<svg xmlns="http://www.w3.org/2000/svg" width="316.375" height="270.136" viewBox="0 0 316.375 270.136">
  <g id="Raggruppa_399" data-name="Raggruppa 399" transform="translate(-29 -128.32)">
    <g id="Raggruppa_75" data-name="Raggruppa 75" transform="translate(-49.732 -132.339)">
      <g id="Slotff" transform="translate(78.732 401.9)">
        <g id="Raggruppa_48" data-name="Raggruppa 48" transform="translate(271.211 101.794)">
          <g id="Raggruppa_45" data-name="Raggruppa 45" transform="translate(0 6.495)">
            <path id="Tracciato_135" data-name="Tracciato 135" d="M891.1,1011l1.178-.329,1.1.263,1.109.06,1.066.337,1.155-.066,1,.551,1.115.187,1.036.431.953.593.948.6.681.9.762.712-.083-1.093-.342-1.091-.519-1.041-.744-.918-.961-.691-.976-.666-.968-.721-1.207-.2-1.017-.678-1.193-.226-1.147.382-1.081.513-.958.785-1.228.316Z" transform="translate(-890.285 -1007.416)" fill="#fff"/>
            <path id="Tracciato_136" data-name="Tracciato 136" d="M902.211,1014.747a.5.5,0,0,1-.343-.135l-.762-.712a.5.5,0,0,1-.058-.065l-.626-.831-1.786-1.122-.945-.393-1.058-.178a.5.5,0,0,1-.159-.055l-.874-.481-1.011.058a.491.491,0,0,1-.18-.023l-1-.317-1.046-.056a.5.5,0,0,1-.09-.013l-.978-.233-1.053.294a.5.5,0,0,1-.617-.343l-.316-1.085a.5.5,0,0,1,.357-.626l1.121-.288.872-.715a.519.519,0,0,1,.1-.065l1.081-.513a.516.516,0,0,1,.056-.023l1.147-.382a.5.5,0,0,1,.252-.017l1.193.226a.5.5,0,0,1,.185.076l.927.618,1.1.182a.505.505,0,0,1,.218.093l.968.721.959.654.971.7a.51.51,0,0,1,.1.091l.744.918a.5.5,0,0,1,.059.092l.519,1.041a.548.548,0,0,1,.03.074l.342,1.091a.514.514,0,0,1,.021.112l.083,1.093a.5.5,0,0,1-.5.54Zm-5.327-4.411,1.03.173a.5.5,0,0,1,.11.032l1.036.431a.49.49,0,0,1,.073.037l1.9,1.2a.5.5,0,0,1,.132.122l.3.4-.149-.474-.476-.956-.667-.823-.906-.652-.966-.66-.887-.66-1.087-.18a.513.513,0,0,1-.2-.078l-.932-.622-.965-.183-.994.331-1,.474-.91.746a.51.51,0,0,1-.193.1l-.726.187.033.111.7-.2a.5.5,0,0,1,.251,0l1.06.252,1.064.057a.507.507,0,0,1,.125.023l.978.309,1.063-.061a.5.5,0,0,1,.271.062Z" transform="translate(-889.287 -1006.418)" fill="#333"/>
          </g>
          <g id="Raggruppa_46" data-name="Raggruppa 46" transform="translate(2.822 3.426)">
            <path id="Tracciato_137" data-name="Tracciato 137" d="M899.22,1001.824l1.1,0,1.176-.163,1.172.12,1.158.259,1.181-.041,1.156.21,1.141.272,1.143.243,1.174.148,1.126.346,1.084.462,1.054.524,1.007.678-.473-1.083-.528-1.019-.869-.765-.976-.613-.978-.623-1.027-.574-1.11-.382-1.127-.332-1.157-.2-1.152-.227-1.16-.183-1.178.005-1.166-.148-1.2.071-.307.994-.229,1.007Z" transform="translate(-898.718 -998.241)" fill="#fff"/>
            <path id="Tracciato_138" data-name="Tracciato 138" d="M912.894,1004.389a.5.5,0,0,1-.28-.086l-.98-.659-1.025-.509-1.033-.44-1.059-.325-1.131-.143-.042-.007-1.143-.243-1.153-.274-1.076-.195-1.128.039a.514.514,0,0,1-.127-.012l-1.129-.252-1.083-.111-1.116.155a.243.243,0,0,1-.071,0l-1.1,0a.5.5,0,0,1-.5-.52l.036-1.01a.523.523,0,0,1,.012-.094L898,998.7c0-.012.006-.025.01-.037l.307-.994a.5.5,0,0,1,.45-.353l1.2-.071a.5.5,0,0,1,.093,0l1.133.144,1.145-.005a.264.264,0,0,1,.08.006l1.16.183,1.171.231,1.145.2a.484.484,0,0,1,.058.013l1.127.333,1.131.389a.5.5,0,0,1,.082.036l1.027.574,1.975,1.249a.507.507,0,0,1,.065.048l.869.765a.508.508,0,0,1,.114.146l.528,1.019.487,1.113a.5.5,0,0,1-.46.7Zm-5.361-3.155,1.153.146a.469.469,0,0,1,.085.018l1.126.346c.017.005.034.011.05.018l1.084.462.708.351-.247-.475-.768-.676-1.921-1.216-.963-.537-1.068-.367-1.077-.317-1.129-.192-1.165-.23-1.1-.173-1.138.005a.453.453,0,0,1-.066,0l-1.12-.142-.807.047-.2.643-.214.942-.016.444h.546l1.141-.158a.511.511,0,0,1,.12,0l1.173.12a.515.515,0,0,1,.059.01l1.1.245,1.117-.039a.577.577,0,0,1,.107.008l1.156.21,1.168.277Z" transform="translate(-897.72 -997.243)" fill="#333"/>
          </g>
          <g id="Raggruppa_47" data-name="Raggruppa 47" transform="translate(4.133)">
            <path id="Tracciato_139" data-name="Tracciato 139" d="M903.755,991.62l1.085-.117,1.089-.184,1.1-.154,1.1-.145,1.11.1,1.111-.052,1.112.036,1.1.168,1.078.286,1.129,0,1.063.349,1.107.166,1.068.434-.588-.98-.843-.742-.968-.6-1.117-.26-1.025-.553-1.153-.076-1.1-.321-1.124-.206-1.15.039-1.139-.021-1.125-.271-1.142.006-1.142.122-1.26-.111.261,1.055.073,1.041Z" transform="translate(-902.636 -988.005)" fill="#fff"/>
            <path id="Tracciato_140" data-name="Tracciato 140" d="M917.011,992a.5.5,0,0,1-.189-.037l-1.013-.411-1.047-.157a.5.5,0,0,1-.083-.02l-.985-.324-1.048,0a.474.474,0,0,1-.13-.017l-1.052-.279-1.045-.16-1.062-.034-1.091.052a.643.643,0,0,1-.068,0l-1.055-.094-2.142.292-1.075.182-1.114.122a.5.5,0,0,1-.537-.362l-.283-1a.471.471,0,0,1-.017-.1l-.07-1-.251-1.013a.5.5,0,0,1,.531-.62l1.211.107,1.093-.116.051,0,1.142-.006a.361.361,0,0,1,.12.014l1.071.258,1.084.02,1.124-.038a.576.576,0,0,1,.107.008l1.124.206.05.012,1.045.306,1.1.072a.5.5,0,0,1,.206.059l.966.521,1.051.245a.5.5,0,0,1,.151.063l.968.6a.548.548,0,0,1,.067.05l.842.742a.485.485,0,0,1,.1.118l.588.98a.5.5,0,0,1-.43.76Zm-2.058-1.591.705.105-.378-.333-.862-.536-1.036-.241a.511.511,0,0,1-.125-.048l-.929-.5-1.043-.069a.476.476,0,0,1-.108-.019l-1.073-.314-1.045-.192-1.1.036-1.164-.021a.5.5,0,0,1-.109-.014l-1.065-.257-1.055.005-1.117.119a.507.507,0,0,1-.1,0l-.56-.049.092.373a.484.484,0,0,1,.013.085l.07.99.153.541.663-.072,1.059-.18,2.219-.3a.5.5,0,0,1,.11,0l1.076.1,1.077-.051h.04l1.112.036a.493.493,0,0,1,.06.005l1.1.168a.481.481,0,0,1,.053.011l1.014.269,1.063,0a.489.489,0,0,1,.159.025Z" transform="translate(-901.638 -987.005)" fill="#333"/>
          </g>
        </g>
        <g id="Raggruppa_51" data-name="Raggruppa 51" transform="translate(0 91.481)">
          <g id="Raggruppa_49" data-name="Raggruppa 49" transform="translate(1.906)">
            <path id="Tracciato_141" data-name="Tracciato 141" d="M85.928,963.122l.8-.9.671-.966.918-.727,1.031-.558.894-.748,1.061-.473,1.1-.344,1.109-.3,1.118-.337,1.165-.081,1.2.115-.128,1.142-.2,1.123.045,1.2-1.322.081-1.184.194-1.183.2-1.2.069-1.208.042-1.189.184-1.189.2-1.16.34Z" transform="translate(-85.426 -957.182)" fill="#fff"/>
            <path id="Tracciato_142" data-name="Tracciato 142" d="M84.93,962.626a.5.5,0,0,1-.375-.835l.781-.878.654-.942a.5.5,0,0,1,.1-.107l.919-.727a.488.488,0,0,1,.072-.048l.987-.534.855-.715a.5.5,0,0,1,.117-.073l1.061-.473a.455.455,0,0,1,.055-.021l1.1-.344,1.126-.307,1.106-.334a.52.52,0,0,1,.11-.02l1.165-.08a.533.533,0,0,1,.083,0l1.2.115a.5.5,0,0,1,.451.555L96.37,958l-.2,1.1.043,1.148a.5.5,0,0,1-.471.52l-1.3.08-2.338.394a.558.558,0,0,1-.057.007l-1.2.069-1.191.041-2.313.374-1.094.32-1.115.526A.5.5,0,0,1,84.93,962.626Zm1.842-2.021-.219.316.546-.16a.55.55,0,0,1,.058-.013l2.385-.385a.5.5,0,0,1,.06-.006l1.208-.042,1.159-.067,2.344-.4.05-.005.832-.051-.027-.711a.5.5,0,0,1,.008-.107l.2-1.123.067-.6-.649-.062-1.067.074-1.064.321-1.122.306-1.057.33-.971.433-.84.7a.5.5,0,0,1-.083.056l-.993.538Z" transform="translate(-84.428 -956.184)" fill="#333"/>
          </g>
          <g id="Raggruppa_50" data-name="Raggruppa 50" transform="translate(0 2.543)">
            <path id="Tracciato_143" data-name="Tracciato 143" d="M80.232,970.455l1.2-.174,1.061-.319,1.1-.1,1.081-.25,1.108-.042,1.1-.09,1.1-.083,1.1-.275,1.108.2,1.107-.044,1.1.208,1.131-.229,1.074.377,1,.077-.432-1.045-.358-1.11-.458-1.073-.228-1.2-1.257.18-1.16.147-1.158.131-1.169.068-1.163.136-1.128.318-1.139.268-1.178.188-.968.723-1.172.3-.888.794-.932.749Z" transform="translate(-79.73 -964.783)" fill="#fff"/>
            <path id="Tracciato_144" data-name="Tracciato 144" d="M79.234,969.959a.5.5,0,0,1-.448-.727l.587-1.17a.5.5,0,0,1,.135-.166l.932-.749.869-.777a.5.5,0,0,1,.21-.112l1.075-.274.889-.664a.5.5,0,0,1,.221-.093l1.16-.185,1.121-.264,1.107-.313a.488.488,0,0,1,.078-.015l1.163-.136,1.2-.07,2.284-.276,1.249-.179a.5.5,0,0,1,.564.4l.218,1.145.437,1.024c.006.014.011.028.016.043l.352,1.091.424,1.027a.5.5,0,0,1-.058.487.493.493,0,0,1-.445.206l-1-.077a.494.494,0,0,1-.128-.027l-.944-.332-1,.2a.49.49,0,0,1-.193,0l-1.041-.2-1.051.041a.58.58,0,0,1-.111-.008l-1-.185-.993.249a.516.516,0,0,1-.084.013l-2.2.174-1.082.041-1.035.24a.48.48,0,0,1-.066.01l-1.053.1-1.013.305a.533.533,0,0,1-.073.016l-1.2.174A.515.515,0,0,1,79.234,969.959Zm.987-1.349-.107.212.212-.03,1.026-.309a.511.511,0,0,1,.1-.019l1.069-.1,1.049-.243a.5.5,0,0,1,.094-.012l1.108-.042,2.14-.17,1.057-.265a.509.509,0,0,1,.213-.007l1.053.194,1.052-.041a.537.537,0,0,1,.113.008l1,.189,1.035-.209a.5.5,0,0,1,.266.018l1.012.356.123.009-.12-.29c-.005-.012-.01-.025-.014-.038l-.351-1.088-.449-1.052a.525.525,0,0,1-.031-.1l-.139-.727-.782.112-2.333.28-1.2.07-1.094.129-1.09.307-1.16.274-.036.007-1.056.168-.869.649a.5.5,0,0,1-.176.084l-1.053.268-.8.712Z" transform="translate(-78.732 -963.784)" fill="#333"/>
          </g>
        </g>
        <g id="Raggruppa_54" data-name="Raggruppa 54" transform="translate(56.09 43.065)">
          <g id="Raggruppa_52" data-name="Raggruppa 52" transform="translate(0 3.131)">
            <path id="Tracciato_145" data-name="Tracciato 145" d="M258.754,825.406l-1.262-.273-1.147.133-1.13-.163-1.141-.028-1.116.259-1.121.166-1.12.2-1.1.279-1.021.4.28-1.03.844-.733.809-.818,1.08-.369,1.09-.281,1.106-.2,1.116-.116,1.1-.3,1.118-.179,1.179.028.211,1.01-.054,1.024Z" transform="translate(-247.848 -821.842)" fill="#fff"/>
            <path id="Tracciato_146" data-name="Tracciato 146" d="M246.364,826.2l.582-2.14.945-.82.879-.889,1.228-.418,1.127-.289,1.144-.2,1.074-.112,1.109-.3,1.163-.186,1.623.039.306,1.463-.053,1.006.49,1.723-2-.433-1.129.13-1.165-.168-1.047-.026-1.093.252-1.121.166-1.088.19-1.056.267Zm2.954-2.975-.754.76-.583.506,1.168-.294,1.12-.2,1.113-.165,1.158-.269,1.263.035,1.066.154,1.164-.135.525.114-.078-.274.055-1.042-.117-.557-.735-.017-1.045.167-1.15.309-1.1.114-1.069.193-1.054.272Z" transform="translate(-246.364 -820.842)" fill="#333"/>
          </g>
          <g id="Raggruppa_53" data-name="Raggruppa 53" transform="translate(0.887)">
            <path id="Tracciato_147" data-name="Tracciato 147" d="M261.124,816.082l-1.292-.1-1.124.239-1.117.135-1.122.117-1.092.285-1.15.091-1.015.539-1.025.478-1.166.471.244-1.238.712-.879.825-.775,1-.54,1.1-.276.963-.65,1.162-.03,1.062-.385,1.128-.083.961-.256.505.867-.014,1.046Z" transform="translate(-250.349 -812.645)" fill="#fff"/>
            <path id="Tracciato_148" data-name="Tracciato 148" d="M249.015,817.993l.446-2.27.837-1.026.929-.851,1.113-.585,1.015-.255,1.012-.683,1.227-.031,1.051-.381,1.151-.085,1.285-.342.768,1.318-.014,1.065.79,1.62-2.092-.156-1.1.231-1.117.135-1.093.113-1.142.29-1.047.083-.923.491-1.048.489Zm1.383-1.831-.041.206.307-.124,1-.467,1.084-.577,1.21-.1,1.124-.287,1.122-.117,1.086-.132,1.172-.249.491.036-.128-.263.014-1.026-.243-.416-.683.173-1.059.078-1.074.389-1.1.028-.915.618-1.125.283-.883.478-.753.708Z" transform="translate(-249.015 -811.485)" fill="#333"/>
          </g>
        </g>
        <g id="Raggruppa_58" data-name="Raggruppa 58" transform="translate(298.753 48.386)">
          <g id="Raggruppa_55" data-name="Raggruppa 55" transform="translate(3.098)">
            <path id="Tracciato_149" data-name="Tracciato 149" d="M982.56,830.14l.934-.546,1.2-.091,1.152-.262,1.159-.269,1.192.041,1.18-.072,1.193-.053,1.165.258,1.128.364,1.114.41.866.818.851.633-1.026-.083-1.138.036-1.126-.073-1.129-.02-1.128.029L989,831.128l-1.114.259-1.1.253-1.118.171-1.09.3-1.072.358-1.119.311-.024-1.348Z" transform="translate(-981.858 -828.386)" fill="#fff"/>
            <path id="Tracciato_150" data-name="Tracciato 150" d="M981.386,832.284a.5.5,0,0,1-.5-.493l-.024-1.348a.533.533,0,0,1,.006-.086l.2-1.292a.5.5,0,0,1,.242-.356l.934-.546a.5.5,0,0,1,.216-.067l1.162-.088,2.272-.522a.5.5,0,0,1,.131-.013l1.168.04,1.156-.071,1.2-.054a.554.554,0,0,1,.131.011l1.165.259.046.012,1.128.364,1.134.417a.5.5,0,0,1,.171.106l.844.8.828.615a.5.5,0,0,1-.34.9l-1-.081-1.109.035H992.5l-1.126-.073-1.1-.019-1.106.029a.377.377,0,0,1-.071,0l-1.058-.122-2.136.493-.036.007-1.089.167-1.062.292-1.046.35-1.144.319A.509.509,0,0,1,981.386,832.284Zm.479-1.816.012.657.495-.138,1.047-.351,1.116-.308a.48.48,0,0,1,.057-.012l1.1-.168,2.2-.507a.509.509,0,0,1,.171-.01l1.109.128,1.093-.028,1.151.02,1.126.073.64-.02-.471-.445-1.018-.375-1.086-.35-1.077-.239-1.127.05-1.171.072h-.048l-1.126-.039-2.249.516a.539.539,0,0,1-.073.011l-1.083.082-.628.367Z" transform="translate(-980.86 -827.388)" fill="#333"/>
          </g>
          <g id="Raggruppa_56" data-name="Raggruppa 56" transform="translate(0.943 2.866)">
            <path id="Tracciato_151" data-name="Tracciato 151" d="M977.064,838.1l1.161-.231,1.116-.269,1.156.1,1.128-.253,1.145.011,1.137.144,1.151.007,1.113.29,1.12.256,1,.578.919.656,1.08.472.654.96.652,1.114-1.174-.566-1.075-.487-1.159-.219-1.169-.129-1.123-.361-1.164-.157-1.175.047-1.168-.024-1.154.188-1.15.174-1.118.319-1.1.366-1.078.455-.864.607.232-.991.412-.977.24-1.037Z" transform="translate(-975.417 -836.952)" fill="#fff"/>
            <path id="Tracciato_152" data-name="Tracciato 152" d="M974.921,841.659a.5.5,0,0,1-.489-.616l.232-.991a.488.488,0,0,1,.026-.081l.4-.937.23-.995.263-1.056a.5.5,0,0,1,.389-.371l1.161-.231,1.1-.264a.471.471,0,0,1,.162-.012l1.077.1,1.051-.236a.463.463,0,0,1,.114-.012l1.145.011a.425.425,0,0,1,.059,0l1.107.14,1.121.007a.5.5,0,0,1,.124.016l1.113.29,1.106.253a.512.512,0,0,1,.139.055l1,.578a.463.463,0,0,1,.04.026l.876.626,1.032.451a.5.5,0,0,1,.214.178l.654.96.018.029.652,1.114a.5.5,0,0,1-.651.706l-1.174-.566-1.009-.457-1.08-.2-1.15-.127a.492.492,0,0,1-.1-.021l-1.081-.348-1.076-.145-1.131.046-1.153-.023-2.232.351-1.086.31-1.065.353-1.01.426-.82.576A.5.5,0,0,1,974.921,841.659Zm1.556-4.125-.184.738-.238,1.029a.542.542,0,0,1-.027.082l-.267.632.907-.382.037-.014,1.1-.366,1.137-.325a.513.513,0,0,1,.063-.014l2.3-.361a.394.394,0,0,1,.091-.006l1.168.024,1.144-.047a.626.626,0,0,1,.087,0l1.164.157a.479.479,0,0,1,.086.02l1.075.345,1.119.123.038.006,1.158.219a.5.5,0,0,1,.114.036l.742.336-.34-.5-.948-.414a.517.517,0,0,1-.091-.051l-.9-.642-.913-.528-1.047-.239-1.066-.278-1.088-.007a.444.444,0,0,1-.06,0l-1.108-.14-1.057-.01-1.071.241a.515.515,0,0,1-.155.01l-1.073-.1-1.036.249Z" transform="translate(-974.419 -835.954)" fill="#333"/>
          </g>
          <g id="Raggruppa_57" data-name="Raggruppa 57" transform="translate(0 4.643)">
            <path id="Tracciato_153" data-name="Tracciato 153" d="M973.1,846.358l1.329.019,1.188-.279,1.195.161,1.184.163,1.214-.074,1.188.2,1.124.453,1.1.475,1.042.561,1.106.479.782.751-.411-.916-.586-.963-.667-.931-.914-.687-1.02-.508-.914-.664-1.054-.4-1.052-.392-1.067-.351-1.05-.447-1.134-.1-.981-.145-.677,1.1-.372,1.253Z" transform="translate(-972.597 -842.264)" fill="#fff"/>
            <path id="Tracciato_154" data-name="Tracciato 154" d="M984.549,848.775a.5.5,0,0,1-.348-.14l-.717-.689-1.023-.443-.038-.019-1.023-.551-1.076-.467-1.062-.428-1.078-.184-1.157.07a.469.469,0,0,1-.1,0l-2.286-.312-1.1.258a.547.547,0,0,1-.122.013l-1.329-.019a.5.5,0,0,1-.452-.7l.535-1.212.363-1.222a.506.506,0,0,1,.054-.12l.677-1.1a.5.5,0,0,1,.5-.233l.98.145,1.1.095a.492.492,0,0,1,.153.038l1.031.438,1.047.345,2.128.8a.517.517,0,0,1,.115.063l.88.639.983.489a.48.48,0,0,1,.078.048l.914.687a.508.508,0,0,1,.106.109l.667.932c.007.01.014.02.021.031l.587.963a.5.5,0,0,1,.029.055l.412.916a.5.5,0,0,1-.458.707Zm-1.669-2.184.276.119-.024-.039-.611-.853-.815-.613-.979-.487a.515.515,0,0,1-.072-.043l-.86-.625-2.039-.77-1.049-.345-.039-.015-.977-.416-1.054-.091-.684-.1-.469.76-.353,1.189a.49.49,0,0,1-.022.06l-.242.547.509.007,1.128-.265a.491.491,0,0,1,.182-.009l2.331.318,1.165-.07a.51.51,0,0,1,.115.006l1.188.2a.5.5,0,0,1,.1.029l1.124.453,1.108.481.038.018Z" transform="translate(-971.6 -841.266)" fill="#333"/>
          </g>
        </g>
        <path id="Tracciato_155" data-name="Tracciato 155" d="M268.838,809.592l1.518-.521,1.653.291,1.527-.509,1.6.126,1.553-.4,1.588,0,1.579-.117,1.592.2,1.579-.092,1.577-.33,1.585.172,1.583-.143,1.583.082,1.58.235,1.592-.4,1.586.008,1.579.252,1.575.273,1.6-.3,1.58.166,1.6-.137,1.587.041,1.547.678,1.6-.111,1.613-.318,1.581.156,1.554.491,1.585.082,1.586.07,1.561.356,1.581.129,1.571.243,1.6-.046,1.547.446,1.629-.316,1.545.443,1.6.26,1.607.184,1.6.257,1.616.145,1.613.17,1.635.057,1.54.6,1.586.32,1.662-.087,1.537.605,1.642.024,1.59.311,1.5.827,1.7-.347,1.506.842,1.635.048,1.635.015,1.567.534,1.664-.293,1.608.153,1.61.109,1.592.591,1.627.066,1.63-.044,1.593-.5,1.657.187,1.614-.283,1.524-.618,1.369-.9,1.457-.656,1.269-.975,1.251-1.06.652-1.5.578-1.5.342-1.533.266-1.57.046-1.638-1.095-1.321-.45-1.509-1.078-1.155-.9-1.283-1.228-.981-.872-1.42-1.5-.633-1.4-.733-1.244-.99-1.447-.642-1.418-.691-1.374-.8-1.34-.9-1.61-.245-1.449-.645-1.469-.6-1.551-.36-1.479-.584-1.44-.736-1.634-.04-1.518-.46-1.6-.11-1.53-.4-1.5-.614-1.577-.169-1.584-.369-1.593-.317-1.606-.257-1.577-.394-1.666,0-1.566-.451-1.511-.676-1.617-.226-1.543-.534-1.577-.395-1.544-.525-1.574-.412-1.583-.38-1.6-.322-1.614-.258-1.607-.286-1.517-.633-1.537-.558-1.719.132-1.461-.841-1.609-.281-1.549-.505-1.555-.483-1.683-.007-1.795-.584,1.719-.878,1.3-.961,1.163-1.13,1.439-.838.948-1.354,1.4-.92.664-1.593,1.329-1,1.139-1.172.973-1.305,1.022-1.189,1.515-.345,1.608-.127,1.6-.275,1.621.041,1.6-.239,1.6-.247,1.635.369,1.615.036,1.6-.235,1.617.073,1.614.008,1.6-.491,1.617.068,1.608-.184,1.612-.079,1.615.008,1.618.19,1.614.024,1.61-.162,1.611-.145,1.613-.077,1.614-.081,1.621.39,1.611-.234,1.617.159,1.61-.333,1.618.237,1.614-.052,1.612-.231,1.613-.147,1.618.336,1.616.122,1.613-.344,1.614-.26,1.618.356,1.615-.109,1.614-.312,1.617.43,1.614-.257,1.614.2,1.613-.373,1.615.293,1.613-.21,1.613-.053,1.616.461,1.61-.525,1.616.484,1.612-.127,1.611-.149,1.62.156,1.557-.355,1.348-.806,1.374-.826.48-1.547,1-1.3.242-1.577.08-1.578-.265-1.57.172-1.565.014-1.571-.811-1.347-1.054-1.133-1.151-1.057-1.174-1.1-1.569-.4-1.473-.531-1.28-1-1.66-.033-1.36-.851-1.6-.152-1.442-.8-1.627-.053-1.59-.185-1.549-.625-1.606-.168-1.624.157-1.61.025-1.6-.133-1.6-.2-1.607-.121-1.613.325-1.607-.125-1.607-.275-1.61.226-1.607-.238-1.608-.068-1.615.575-1.6-.441-1.607-.1-1.62.429-1.6-.472-1.624.363-1.59-.493-1.614.069-1.613,0-1.6-.215-1.629.152-1.575-.461-1.631.107-1.612-.112-1.555-.526-1.565-.4-1.608-.138L336.6,736.9l-1.61-.146-1.543-.455-1.67.03-1.435-.841-1.69,0-1.479-.67-1.561-.445-1.4-.839-1.383-.844-1.378-.827-1.652-.34-1.262-1.035-1.288-.969-1.439-.767-1.11-1.192-1.041-1.238-1.489-.787-.86-1.413-1.46-.79-1.045-1.25-1.418-.794-1.061-1.28-1.609-.486-1.113-1.262-1.512-.6-1.509-.581-1.315-.977-1.536-.512-1.576-.387-1.5-.572-1.506-.554-1.505-.568-1.554-.41-1.527-.523-1.526-.565-1.672.148-1.57-.342-1.548-.526-1.568-.474-1.613-.135-1.623.018-1.612-.091-1.616.038-1.614.191-1.607.043-1.622-.424-1.6.409-1.632-.221-1.563.616-1.62-.016-1.64-.089-1.578.368-1.563.419-1.567.376-1.522.552-1.685-.07-1.57.4-1.493.644-1.531.521-1.446.733-1.482.637-1.458.69-1.357.877-1.515.62-1.109,1.229-1.4.815-1.412.809-.873,1.482-1.385.844-1.188,1.105-1.571.566-1.154,1.163-1.394.808-1.5.634-1.469.659-1.287.986-1.287,1.016-1.456.694-1.572.427-1.42.774-1.457.707-1.631.216-1.446.76-1.574.359-1.531.519-1.607.2-1.59.256-1.562.4-1.57.379-1.59.26-1.653-.262-1.593.2-1.607.052-1.573.4-1.608.046-1.585.271-1.524.488-1.571.055-1.6-.261-1.529.448-1.575.04-1.579.033-1.54.338-1.533.358-1.56.191-1.568.183-1.4.911-1.566.184-1.55.3-1.346.861-1.522.421-1.323.84-1.277.891-1.358.828-1.106,1.144-.9,1.318-.69,1.438.093,1.619.241,1.4.483,1.554,1.5.626,1.253,1.079,1.635.111,1.459.706,1.64-.2,1.534.4,1.581.023,1.558.332,1.573.242,1.59-.346,1.577.454,1.58-.344,1.579-.005,1.584.1,1.567-.271,1.56-.305,1.476.079,1.457.345,1.444.042,1.187.432-1.383.72-1.009,1.4-1.5.746-1.173,1.166-1.569.667-.966,1.427-1.254,1.064-1.361.933-1.352.947-1.187,1.079-1.493.659-1.156,1.141-1.449.695-1.247,1.038-1.356.869-1.65.278-1.483.584-1.353.885-1.49.575-1.445.7-1.568.36-1.508.522-1.48.633-1.66,0-1.454.739-1.563.333-1.532.468-1.575.271-1.622.008-1.5.669-1.608.087-1.592.179-1.566.34-1.611.08-1.494.723-1.607.1-1.613.086-1.5.668L140,780.12l-1.647-.053-1.552.391-1.529.485-1.633.072-1.4.972-1.556.365-1.6.225-1.562.37-1.531.475-1.568.378-1.328,1.021-1.7.08-1.28,1.076-1.392.781-1.657.3-1.31.949-1.354.877-1.186,1.1-1.239,1.067-.484,1.6-.637,1.418-.471,1.57.7,1.5.375,1.481.584,1.4.565,1.51,1.183,1.081,1.312.945,1.546.453,1.525.451,1.6.045,1.579-.034,1.55.284,1.566.358,1.577-.429,1.578.191,1.567-.259,1.589.211,1.563-.242,1.587.092,1.573-.132,1.55-.391,1.58-.039,1.556-.3,1.573-.116,1.565-.225,1.569-.163,1.6.092,1.562-.279,1.613.006,1.621.162,1.591-.252,1.6-.047,1.593-.291,1.608.14,1.6.1,1.6-.385,1.6.212,1.606-.1,1.6.041,1.59.317,1.62-.222,1.577.4,1.621-.1,1.57.4,1.637-.116,1.522.643,1.558.358,1.626.067,1.455.7,1.548.453,1.579.35,1.483.648,1.551.433,1.511.576,1.551.438,1.666-.017,1.578.31,1.444.881,1.636.066,1.57.351,1.567.366,1.54.512,1.62.1,1.561.418,1.6.189,1.575.35,1.624.026,1.588.263,1.561.484,1.664-.353,1.583.3,1.567.493,1.6.211,1.626-.133,1.6.139,1.6.138,1.589.407,1.614-.028,1.622-.321,1.6.125,1.61-.134,1.6.463,1.61-.239,1.606-.229,1.617.373,1.6-.345,1.62.234,1.6-.3,1.606-.093,1.634.269,1.561-.669,1.607-.08,1.647.282,1.587-.316,1.6-.179,1.6-.174,1.566-.433,1.637.044,1.579-.336,1.559-.44,1.594-.245,1.553-.45,1.567-.372Z" transform="translate(-99.795 -701.194)" fill="#333"/>
        <path id="Tracciato_156" data-name="Tracciato 156" d="M599.939,696.041l.415-.752.443-.634.477-.614.35-.694.552-.6.151-.789.225-.746.244-.736.316-.716.267-.737.11-.777.192-.757.325-.738-.18-.815.377-.742-.068-.789.07-.926-.958-.112-.951.2-.915-.352.122.919-.442.75-.145.836-.72.414-.762-.037-.707-.2-.34-.674v-.758l.139-.747.163-.8-.747.037-.714-.172-.734.2-.7-.14-.11.741-.175.762-.232.745-.039.8-.155.776-.323.72-.214.763-.48.643-.455.645-.349.7-.181.8-.534.592-.505.6-.279.766-.466.634-.617.509-.554.66.832.178.841-.089.822.049.8.2.807.163.8.234.825.022.838-.065.8.225.827.022.824.094Z" transform="translate(-419.011 -682.779)" fill="#333"/>
        <g id="Segni_Schiena" transform="translate(140.357 16.99)">
          <path id="Tracciato_157" data-name="Tracciato 157" d="M498.693,808.186l-.482-.881.9-.491.645-.851.721-.741.454-.929.9.441-.525,1.073-.811.833-.715.95Z" transform="translate(-498.211 -780.625)" fill="#fff"/>
          <path id="Tracciato_158" data-name="Tracciato 158" d="M533.45,810.634l-.85-.534.667-1.06.435-1.149.336-1.218.968.267-.356,1.285-.506,1.307Z" transform="translate(-521.094 -782.208)" fill="#fff"/>
          <path id="Tracciato_159" data-name="Tracciato 159" d="M527.429,771.959l-.656-.76.859-.741.629-1.049.809-.943.762.653-.78.91-.64,1.081Z" transform="translate(-517.216 -756.785)" fill="#fff"/>
          <path id="Tracciato_160" data-name="Tracciato 160" d="M576.659,786.185l-.656-.76.859-.741.629-1.049.809-.943.762.653-.78.91-.639,1.081Z" transform="translate(-549.974 -766.251)" fill="#fff"/>
          <path id="Tracciato_161" data-name="Tracciato 161" d="M584.887,737.049l-.656-.76.859-.741.629-1.049.809-.943.762.653-.78.91-.639,1.081Z" transform="translate(-555.449 -733.556)" fill="#fff"/>
          <path id="Tracciato_162" data-name="Tracciato 162" d="M554.981,771.076l-.921-.4.55-1.273.807-1.02.36-1.173.959.294-.415,1.353-.842,1.065Z" transform="translate(-535.373 -755.951)" fill="#fff"/>
          <path id="Tracciato_163" data-name="Tracciato 163" d="M553.772,824.4l-.828-.568.724-1.052.738-.88.492-1.137.632-.972.33-1.1.962.287-.372,1.244-.687,1.056-.492,1.157-.819.976Z" transform="translate(-534.631 -790.203)" fill="#fff"/>
          <path id="Tracciato_164" data-name="Tracciato 164" d="M588.984,758.947l-.729-.69.787-.831.785-.779.5-.907.287-1.062.969.262-.347,1.229-.593,1.088-.878.871Z" transform="translate(-558.127 -747.61)" fill="#fff"/>
          <path id="Tracciato_165" data-name="Tracciato 165" d="M556.68,742.41l-.938-.357.427-1.076.59-.824.619-.8.523-.836.851.532-.565.9-.623.8-.541.756Z" transform="translate(-536.492 -736.857)" fill="#fff"/>
        </g>
        <g id="Tracciato" transform="translate(85.179 45.32)">
          <g id="Raggruppa_62" data-name="Raggruppa 62">
            <g id="Raggruppa_59" data-name="Raggruppa 59">
              <path id="Tracciato_166" data-name="Tracciato 166" d="M358.16,853.214c-5.516,2.294-12.151,6.282-15.974,11.1a35.743,35.743,0,0,0-7.574,25.425,34.433,34.433,0,0,0,13.1,24.441,35.741,35.741,0,0,0,25.437,7.529,35.232,35.232,0,0,0,19.856-61.777,37.193,37.193,0,0,0-17.3-8.553Z" transform="translate(-334.075 -840.288)" fill="#fff"/>
              <path id="Tracciato_167" data-name="Tracciato 167" d="M434.918,957.2l.76.944.348,1.229-.959,1.464-1.323,1.046-1.522.767-1.677.528-1.712-.232-1.635-.4-1.5-.8-.7-1.544.324-2.1,1.494-.829,1.515-.757,1.68-.232,1.691-.072,1.681.268Z" transform="translate(-394.314 -910.042)" fill="#333"/>
              <path id="Tracciato_168" data-name="Tracciato 168" d="M404.457,860.764l.01-1.228-.273-1.192-.315-1.178-.171-1.208-.394-1.154L403,853.629l-.14-1.24-.432-1.146-.586-1.08-.563-1.083-.433-1.148-.591-1.069-.69-1.01-.6-1.064-.6-1.07-.912-.844-.664-1.028L395.9,841l-.848-.872-.724-.995-.911-.812-.906-.816-.918-.8-.973-.684-.914-.761-1.039-.583-.955-.709-1.012-.624-1-.652-1.18-.3-1.021-.616-1.1-.455-1.089-.476-1.147-.318-1.152-.286-1.122-.389-1.151-.289-1.251-.2.7-.993.8-.8.868-.719.909-.665.906-.675,1.108-.319,1.048-.634-1.282-.375-1.216-.077-1.209-.074-1.209-.011-1.212-.138-1.2.157-1.2.146-1.17.312-1.161.31-1.189.258-.114-1.161-.219-1.184.5-1.1.316-1.122.27-1.139.378-1.133-1.124.487-1.131.371-1.035.585-1.041.566-1.082.532-.974.707-.676,1.021-.88.805-.652,1-.59,1.024-.52,1.113-1.229-.279-1.2-.125-1.2-.185-1.192.311-1.176.2-1.224.018-1.164.337-1.079.552-1.142.425-.991.7-1.006.89,1.324-.018,1.208-.013,1.055.627,1.1.4,1.024.575,1.072.642-1.193.356-.96.715-1.131.367-.933.734-1.13.4-.953.693-.855.824-.987.636-.907.743-.862.794-.862.792-.964.694-.714.942-.716.932-.935.748-.76.958-.58,1.088-.8.928-.671,1.022-.555,1.09-.531,1.1-.574,1.076-.528,1.1-.427,1.143-.557,1.1-.172,1.228-.467,1.131-.266,1.19-.3,1.182-.164,1.209-.215,1.2-.172,1.207-.126,1.213.116,1.224-.226,1.215.037,1.221.154,1.213.073,1.217.02,1.227.422,1.169.126,1.215.093,1.231.405,1.158.349,1.17.53,1.108.448,1.131.461,1.124.515,1.1.411,1.155.708,1,.515,1.109.777.948.669,1.014.714.982.641,1.045.893.839.609,1.095,1.027.7.805.919.872.856.881.854,1.116.556,1.013.674.968.739,1.032.645.937.815,1.083.57,1.078.581,1.129.474,1.177.351,1.135.445,1.212.213,1.09.608,1.23.117,1.158.4,1.209.172,1.2.252,1.222.053,1.215.086,1.214.132,1.22,0,1.223.067,1.2-.306,1.233.119,1.225-.066,1.194-.286,1.155-.447,1.237-.05,1.184-.3,1.125-.494,1.224-.187,1.052-.668,1.2-.289,1.059-.617,1.132-.46,1.042-.637,1.028-.654,1.149-.467.972-.746,1.029-.665.872-.867.838-.894.921-.793,1.018-.7.821-.906.664-1.041.892-.841.692-1.007.784-.937.683-1.011.565-1.084.785-.954.629-1.051.424-1.154.546-1.093.544-1.1.218-1.221.59-1.089.172-1.222.24-1.194.23-1.193.343-1.172.07-1.219.343-1.185.19-1.211-.235-1.231.226-1.215-.184-1.215.1-1.226Zm-8.7,18.2-.744.984-.576,1.082-.618,1.063-.811.925-.7,1.01-.833.9-1.031.7-.871.849-.822.909-.9.828-1.047.641-.993.707-.983.729-1.087.561-1.126.477-1,.739-1.169.377-1.1.554-1.149.431-1.223.176-1.174.34-1.2.246-1.21.175-1.206.213-1.2.028-1.192.159-1.2-.079-1.194-.063-1.183-.18-1.219.128-1.165-.312-1.176-.223-1.151-.329-1.172-.251-1.161-.307-1.1-.49-1.1-.473-1.126-.419-1.079-.527-.058-.041-1.117-.659-.274-.18-.931-.511-.294-.539-.625-.409-.482-.367-.788-.476-.609-.446-.277-.184-.976-1.081-.166-.047-.919-.907-.956-.878-.048,0,.068-.085-.812-1.22-1.12-1-.2-1.283-.276-1.2-.221-1.218.013-1.243.093-1.259.539-1.31.64-1.265.792-.883.991-.646.982-.622.862-.838,1.1-.442,1.023-.577,1.054-.516,1.067-.487,1.1-.424,1.053-.517,1.108-.419.883-.814.936-.69,1.06-.549.845-.829.614-1.011.665-.992.313-1.176.23-1.194-.115-1.209-.33-1.154,0-1.239-.525-1.1-.612-1.042-.849-.86-.708-.984-1.082-.56-.924-.779-1.168-.306-1.084-.562-1.2-.122-1.2.151-1.192.021-.11.028-1.19.274-1.171.338-1.209.274-1.044.662-1,.706-1.128.532-.936.807-.728,1-.884.863-.711,1.009-.54,1.109-.457,1.139-.444,1.143.23-1.212.213-1.216.437-1.159.136-1.247.521-1.127.41-1.164.525-1.117.487-1.136.615-1.072.657-1.045.694-1.019.573-1.109.92-.85.781-.952.765-.972.89-.855.987-.747.78-.985,1.033-.687,1.1-.579-.045-.09.493-.334.643-.6.268-.2,1.022-.6,1.037-.572,1.126-.386,1.023-.61,1.143-.324,1.068-.53,1.14-.327,1.148-.295,1.185-.114,1.139-.346,1.208.118,1.19-.367,1.227.031,1.221.029,1.215.111,1.233-.177,1.226.07,1.2.238,1.206.215,1.139.494,1.178.3,1.148.4,1.156.376,1.177.342,1.1.522,1.176.386.937.831,1.145.466.94.795,1.02.672.916.808.986.724.907.82.811.916.842.883.72.988.943.814.531,1.124.6,1.052,0-.076.829.94.4,1.185.539,1.1.641,1.059.309,1.064-.668-.838-.563-1.073-.888-.815-.8-.892-.976-.7-1.016-.629-.945-.775-1.13-.432-1.118-.467-1.2-.161-1.2-.052-1.183-.119-1.2-.189-.108.043-1.162.342-1.19.139-1.091.49-1.092.487-.975.7-.8.884-.915.8-.7.995-.393,1.149-.413,1.129-.306,1.173.155,1.211-.12,1.212.436,1.135.481,1.083.6,1.009.623.978.936.689.855.815,1.008.621,1.2.172,1.041.571,1.17.168,1.095.45,1.161.187,1.106.427,1.2.007,1.111.4,1.149.257,1.084.463,1.033.554,1,.592.911.7.869,1.01.961,1,.307,1.089.251,1.082.331,1.08-.131,1.121.073,1.151-.464.9-.52.847Z" transform="translate(-333.303 -818.223)" fill="#333"/>
            </g>
            <g id="Raggruppa_61" data-name="Raggruppa 61" transform="translate(19.793 50.544)">
              <path id="Tracciato_169" data-name="Tracciato 169" d="M431.253,1002.779c-.1-.044-.2-.087-.306-.129-.059-.023-.12-.045-.18-.068-.089-.034-.179-.067-.271-.1-.066-.023-.133-.045-.2-.067q-.139-.045-.282-.087c-.068-.02-.137-.041-.206-.06-.105-.029-.213-.055-.323-.082l-.019,0c-.057-.014-.112-.029-.17-.041-.17-.038-.344-.073-.523-.1-.044-.008-.091-.013-.135-.02-.14-.022-.281-.043-.426-.061-.072-.009-.146-.015-.219-.022q-.184-.019-.372-.033c-.08-.006-.161-.01-.242-.014q-.19-.009-.385-.012c-.081,0-.161,0-.243,0-.147,0-.3,0-.448.011-.067,0-.132,0-.2.007q-.328.017-.669.053l-.136.017c-.186.022-.373.046-.564.076-.081.013-.164.029-.246.043-.171.03-.343.062-.518.1l-.177.038c-.238.053-.479.111-.725.179l-.057.016c-.23.064-.464.135-.7.211l-.188.062c-.257.086-.517.177-.782.279l-.032.013c-.254.1-.512.206-.773.319l-.207.091c-.274.122-.551.251-.833.391l-.018-.011-.01-.006-.046-.027-.023-.013-.07-.038-.033-.017-.119-.06-.014-.007c-.051-.025-.107-.051-.169-.078l-.034-.015-.128-.054-.032-.013-.064-.025-.165-.063-.072-.026c-.064-.022-.132-.045-.2-.067l-.058-.018q-.138-.042-.288-.081l-.02,0c-.091-.023-.186-.045-.284-.065l-.091-.017q-.116-.023-.238-.041l-.11-.016c-.082-.011-.166-.021-.252-.029l-.105-.01c-.114-.009-.231-.015-.35-.018h-.021c-.126,0-.256,0-.388.005l-.11.007c-.1.006-.192.013-.29.024l-.143.018c-.092.012-.185.027-.279.044-.057.01-.113.02-.171.032l-.111.025c-.083.019-.168.041-.252.064l-.1.027c-.117.034-.235.072-.353.114l-.027.011c-.109.04-.22.084-.33.131l-.105.047c-.089.04-.178.083-.268.127l-.109.055c-.107.057-.216.117-.324.182l-.044.025c-.123.075-.247.155-.371.241l-.1.068q-.14.1-.28.208l-.117.093c-.1.077-.19.158-.285.241-.03.027-.061.052-.092.08q-.186.169-.372.355c-.024.024-.049.051-.073.076q-.15.154-.3.321l-.119.136-.026.031c-.08.093-.16.188-.24.287-.038.047-.075.092-.112.14-.122.156-.245.317-.366.487l0,0h0a8.858,8.858,0,0,0-1.368,2.935,9.446,9.446,0,0,0-.2,1.042c-.036.254-.067.509-.084.762a11.375,11.375,0,0,0-.009,1.337,13.287,13.287,0,0,0,.206,1.722,16.226,16.226,0,0,0,.533,2.079,19.676,19.676,0,0,0,1.6,3.609c.079.138.147.251.2.338.08.131.126.2.127.2h0l2.86-1.074-.265-.818a1.622,1.622,0,0,1,.085-1.211,1.6,1.6,0,0,1,.158-.26c.015-.02.035-.037.052-.057a1.652,1.652,0,0,1,.571-.439c.04-.018.077-.042.119-.058h0a1.64,1.64,0,0,1,.248-.07c.013,0,.026,0,.039,0,.041-.007.082-.009.123-.013a1.6,1.6,0,0,1,.183-.009c.043,0,.084.005.126.009a1.585,1.585,0,0,1,.174.026c.042.009.082.019.122.031a1.586,1.586,0,0,1,.164.058c.039.016.077.032.114.052a1.648,1.648,0,0,1,.152.089c.034.023.069.044.1.07a1.612,1.612,0,0,1,.137.122c.028.027.058.052.084.082a1.638,1.638,0,0,1,.124.165c.019.027.041.052.058.081a1.631,1.631,0,0,1,.137.285l.069.192.187.522,3.269-1.228a9.9,9.9,0,0,1-.505-1.859c-.036-.2-.069-.42-.1-.646s-.048-.464-.061-.709-.016-.5-.01-.758.024-.525.056-.8a8.268,8.268,0,0,1,.136-.819q.045-.207.1-.415a7.306,7.306,0,0,1,.284-.83c.023-.057.051-.113.076-.169a6.96,6.96,0,0,1,.325-.652,7.081,7.081,0,0,1,.853-1.188,7.914,7.914,0,0,1,1.159-1.061c.015-.011.026-.023.041-.034h0c.222-.165.443-.319.664-.466.069-.046.138-.089.207-.134.155-.1.31-.2.463-.287l.224-.13c.158-.09.315-.175.471-.256.062-.033.124-.066.186-.1.216-.108.43-.21.642-.3l.069-.028q.286-.123.566-.229c.066-.025.132-.048.2-.072q.219-.079.436-.149l.205-.064c.151-.046.3-.088.45-.126l.158-.042q.3-.074.587-.132l.018,0,.074-.012q.265-.051.522-.088l.18-.025.052-.006a14.628,14.628,0,0,0,2.2-1.826Z" transform="translate(-403.161 -990.968)" fill="#fff"/>
              <g id="Raggruppa_60" data-name="Raggruppa 60">
                <path id="Tracciato_170" data-name="Tracciato 170" d="M427.643,976.087a.8.8,0,0,0-1.213-.664,32.687,32.687,0,0,1-27.628,2.858.8.8,0,0,0-1.05.882,12.382,12.382,0,0,0,5.329,8.482c-.235.278-.465.569-.689.883-1.9,2.672-2.325,6.113-1.226,9.954a19.588,19.588,0,0,0,2.215,4.969l.348.524.589-.221,2.86-1.074.706-.265-.232-.718-.265-.818a.831.831,0,0,1,.506-1.039.831.831,0,0,1,1.072.5l.256.715.271.755.751-.282,3.269-1.228.764-.287-.311-.754c-.095-.232-2.279-5.741,2.1-9a13.947,13.947,0,0,1,2.56-1.52q.336-.153.677-.283a16.948,16.948,0,0,0,1.943-1.02h0a13.778,13.778,0,0,0,2.913-2.291h0l.035-.036c.406-.418.634-.7.634-.7l-.006,0A11.747,11.747,0,0,0,427.643,976.087Zm-8.358,11.533c-.066.024-.131.046-.2.072-.188.071-.376.147-.566.229l-.069.028c-.212.093-.427.2-.642.3-.062.031-.124.065-.186.1-.156.081-.313.166-.471.256l-.224.13c-.154.091-.309.188-.463.287-.069.045-.138.088-.207.134-.22.147-.442.3-.664.466h0c-.015.011-.026.023-.041.034a7.913,7.913,0,0,0-1.159,1.061,7.085,7.085,0,0,0-.853,1.188,6.945,6.945,0,0,0-.325.652c-.025.057-.053.113-.076.169a7.324,7.324,0,0,0-.284.83q-.058.208-.1.415a8.257,8.257,0,0,0-.136.819c-.031.27-.049.535-.056.8s0,.513.01.759.033.482.061.709.06.443.1.646a9.9,9.9,0,0,0,.505,1.859l-3.269,1.228-.187-.522h0l-.069-.193a1.631,1.631,0,0,0-.137-.285c-.017-.029-.039-.054-.058-.081a1.625,1.625,0,0,0-.124-.165c-.026-.029-.056-.055-.084-.082a1.627,1.627,0,0,0-.137-.122c-.033-.025-.068-.047-.1-.07a1.63,1.63,0,0,0-.152-.089c-.038-.019-.075-.036-.114-.052a1.6,1.6,0,0,0-.164-.058c-.041-.012-.081-.023-.122-.031a1.586,1.586,0,0,0-.174-.026c-.042,0-.083-.008-.126-.009a1.615,1.615,0,0,0-.183.009c-.041,0-.082.006-.123.013-.013,0-.026,0-.039,0a1.642,1.642,0,0,0-.248.07h0c-.042.015-.079.039-.119.058a1.653,1.653,0,0,0-.571.439c-.016.02-.036.037-.052.057a1.6,1.6,0,0,0-.158.26,1.621,1.621,0,0,0-.085,1.211l.265.817-2.86,1.074h0s-.047-.071-.127-.2c-.053-.087-.121-.2-.2-.338a19.678,19.678,0,0,1-1.6-3.609,16.223,16.223,0,0,1-.533-2.079,13.264,13.264,0,0,1-.206-1.722,11.362,11.362,0,0,1,.009-1.337c.017-.253.047-.508.084-.762a9.442,9.442,0,0,1,.2-1.042,8.857,8.857,0,0,1,1.368-2.935h0l0,0c.121-.17.243-.331.366-.487.037-.047.075-.093.112-.14.08-.1.16-.194.24-.287l.026-.031c.04-.046.079-.092.119-.136q.15-.167.3-.321c.024-.025.049-.052.073-.076q.186-.187.372-.355c.03-.028.061-.053.092-.08.1-.084.19-.165.285-.241l.117-.093q.141-.109.28-.208l.1-.068c.124-.086.248-.166.371-.241l.044-.025c.108-.065.217-.125.324-.182l.109-.055c.09-.045.179-.088.268-.127l.105-.047c.111-.047.221-.091.33-.131l.027-.011c.119-.042.237-.08.353-.114l.1-.027c.084-.023.169-.045.252-.064l.111-.025c.057-.012.114-.022.171-.032.094-.017.187-.032.279-.044l.143-.018c.1-.011.194-.018.29-.024l.11-.007c.132-.005.261-.007.388-.005h.021c.119,0,.236.009.35.018l.105.01c.085.008.17.017.252.029l.11.016q.121.019.238.041l.091.017c.1.02.193.042.284.065l.02,0q.151.039.288.081l.058.018c.07.022.138.044.2.067l.072.026.165.063.02.008c-.077.055-.155.107-.231.166a9.665,9.665,0,0,0-2.44,2.9,11.373,11.373,0,0,0-1.261,3.509,23.609,23.609,0,0,1,1.792-3.179,11.756,11.756,0,0,1,2.4-2.6,8.227,8.227,0,0,1,1.36-.852l.161-.071c.261-.113.519-.221.773-.319l.032-.013c.265-.1.525-.193.782-.279l.188-.062c.237-.076.471-.148.7-.212l.057-.016c.246-.067.487-.125.725-.179l.177-.038c.175-.037.347-.069.518-.1.082-.014.165-.03.246-.043.191-.03.379-.055.564-.076l.136-.017q.341-.036.669-.053c.068,0,.133,0,.2-.007.151-.006.3-.01.448-.011.082,0,.162,0,.243,0q.195,0,.385.012c.081,0,.162.008.242.014.126.009.25.02.372.032.073.007.147.014.22.022.145.018.286.038.426.061.045.007.091.013.135.02.178.03.352.066.523.1.058.013.113.027.17.041l.019,0c.109.026.217.053.323.082.07.019.138.039.206.06q.143.042.282.087c.068.022.135.044.2.067s.109.039.163.059a24.537,24.537,0,0,1-3.84,2.635h0C419.518,987.538,419.4,987.577,419.285,987.619Z" transform="translate(-395.972 -973.291)" fill="#333"/>
                <path id="Tracciato_171" data-name="Tracciato 171" d="M400.215,1001.758l-1.433-.843-.464-.446-.883-1.235-.634-1.376-.377-1.474-.5-1.417-.578-1.538-.091-1.636-.137-1.627.211-1.618.335-1.59.462-1.569.951-1.409-1.143-1.249-1.112-1.2-.812-1.424-.606-1.517-.731-1.485-.151-1.648-.064-1.353.749-1.193,1.287-.656,1.41.214,1.548.366,1.486.6,1.544.413,1.617-.045,1.558.373,1.6-.074,1.589.172,1.586-.16,1.6.011,1.533-.505,1.577-.212,1.518-.474,1.538-.4,1.525-.472,1.472-.619,1.427-.718,1.4-.768,1.224-.662,1.329.461.962.964.578,1.277-.153.007.176,1.715-.294,1.7-.538,1.626-.643,1.577-.943,1.413-.984,1.372.04.174-.823.767.067.144-.129-.124-.983,1-.989,1.027-1.314.566.048.167-2.115,1.021-.033.17-.675.01-1.147.621-1,.841-.94,1.128-.9,1.206-.139,1.5-.02,1.508.515,1.413.3.753-.125,1.427-.991.976-1.576.645-1.564.682-1.634.5-.848.185-.716.533-1.4.471-1.432.4-1.314.711ZM400.99,986l-.068-.031-.439.994-.394,1.446-.193.818-.273.6.029,1.126.378,1.451.333,1.867.874,1.989.069-.572.224-.612.255-.617.3-.055.562-.457.559-.493.287-.079.527-.062.128-.247.2.193.391-.2.274-.051.408.026.239.186.4.019.175.3.267.26.382-.093.171.426.3.079.017.265.052-.085.094-.407-.378-.712.04-.849-.086-.906.148-.956.261-.984.152-.508.35-1.023.1-.166.166-.992,1.205-1.428,1.427-1.245-.069-.161.016.091-.081-.095.065.036.1.06.044-.027-.1-.146-.035.046.115.091.081.063.641-.631h.331l.488-.367.156-.314.647-.083.128-.258.763-.28.029.084-.142-.23-.455.1-.129.176-.6.285-.117-.237-.593.3-.208-.061-.663.377-.732.295-.154-.065-1.006.664-1.067,1.067-.859,1.234-.969,1.369-.69,1.531-.955.961-1.35.011-.928-.9-.422-1.254.451-1.391.387-1.41.76-1.25.151-.466.031.069-.074-.052-.153.247-.2-.176-.147.289-.112-.08-.3.134.012.188-.165.209-.225-.086-.191.225.045.151-.465.162.011.14-.308.2.039.231-.309.205.033.22Zm1,8.449-.02.1Zm8.776-10.09,0,.077Zm0,0,0,.077Zm0,0,0,.077Zm0-.185-.155.109.216-.057Zm.463-.151-.15-.076Zm0,0-.15-.076Zm0,0-.151-.076Zm0,0,0,.075Zm-7.342-2.553.308,1.49.193-.1Zm-7.438-4.907.494,1.563.905,1.284,1.08,1.111,1.1,1.04.362-.106.12-.141.228-.422.2.032.425-.368.12.021.381-.219.1-.165.42.015.15-.009.376-.294.51-.122.15.044.278-.3.178.178.167-.22.384-.131.183-.059.393.088.143-.123.513.2.065.092.431-.271.094.218.374-.118.117.186.312-.03.091.192.4-.183v.114l.4.034.044.1.231.179.061.048.239.09.084.066-.007-.279.164.084.189-.027.782-.508.949-.178.15-.254.8-.169.083.087.818-.2.193.095.609-.133.254-.182.651.012.137-.167.775.119.233-.064.5-.2.244.239.486-.155.279.089.442-.106.231.277.491.053.18-.119.641-.009.1.292.085-.1.347.215.278-.058.236.091,1.107-1.45.694-1.695.331-1.814-1.466.817-1.558.566-1.513.671-1.562.554-1.61.39-1.64.234-1.594.484-1.657.091-1.642.24-1.658-.086-1.656.072-1.65-.147-1.633-.263-1.659-.107-1.568-.578Z" transform="translate(-392.458 -969.28)" fill="#333"/>
              </g>
              <path id="Tracciato_172" data-name="Tracciato 172" d="M431.232,1002.761l-.259-.238-.2-.021-.286-.053-.19-.094-.289-.058-.2-.087-.325-.065.01-.124-.222.187-.477-.323-.132-.044-.423-.112-.239.144-.367-.088-.243.01-.386.063-.241.085-.45-.185-.2.051-.678-.042-.112.232-.6-.186-.213.243-.5.16-.221-.164-.672.386-.075-.052-.768-.008-.1.331-.777.276-.086-.126-.7.488-.288-.093-.792.483.038-.2-.031.027-.027-.064-.087.1-.044-.09-.014-.055-.212.121-.014-.007-.069-.3-.154.254-.042-.256-.01-.067-.146.18-.121-.178-.12.109-.135-.268-.063,0-.355.159.01-.121-.245-.245-.119.116-.241-.027-.113.007-.261.073-.1-.114-.348-.067-.023.117-.381.038-.112-.052-.307-.159-.114.259-.29-.048-.178-.006-.077.175-.318-.2-.025.287-.359.074-.008.064-.424-.11,0,.28-.341-.033-.026.214-.421,0-.086-.042-.368.259-.125.028-.242.269-.006.234-.391.116-.121.049-.216.519-.116.033-.269.345-.285-.01.181.209-.4.152-.16.1-.176.63-.1-.068.122.085-.852,1.052-.663,1.8-.265,1.038.091.781,0,1.328.148,1.722.421,2.112,1.684,3.583.149.37.061.247.13-.051,2.78-1.2-.352-.669.245-.947-.012-.319.171-.253.13.007.237-.269.282-.172.06-.2.055.15.242-.04.005-.189.134.04.187-.021.138-.076.16.16.131,0,.107.2.131,0,.25-.076.064.133.042.229.194-.026.2.122-.026.142-.017.348.062.2.327.526,3.342-1.154-.65-1.973-.019-.659-.1-.706.077-.758-.052-.8.139-.823.31-.359.1-.886.251-.093.188-.712.96-1.09,1.02-1.2.148.11-.113-.155.763-.322.219-.112.316-.526.252-.087.508-.191.244.018.564-.467.15.158.5-.374.229.014.361-.376.233.019.454-.121.153-.067.633.078-.017-.179.114.194.516-.086.148-.253-.013-.042,2.386-1.609Z" transform="translate(-403.175 -990.871)" fill="#fff"/>
              <path id="Tracciato_173" data-name="Tracciato 173" d="M424.182,1009.1l.8-3.674,2.456-3.045,1.678-1,1.808-.65,1.821-.558,1.964.044-1.693.89-.773.46-.761.427-1.6.719-1.4.979Z" transform="translate(-413.567 -989.835)" fill="#333"/>
              <path id="Tracciato_174" data-name="Tracciato 174" d="M466.48,1000.341a17.566,17.566,0,0,1-4.985,4.167l1.237.91,3.161-2.329,1.37-1.547Z" transform="translate(-438.395 -989.948)" fill="#333"/>
              <path id="Tracciato_175" data-name="Tracciato 175" d="M409.386,1061.2l1.37,2.132,2.473-1.008-2.255-1.339Z" transform="translate(-403.722 -1030.299)" fill="#333"/>
            </g>
          </g>
        </g>
      </g>
      <g id="World" transform="translate(131.292 260.659)">
        <g id="Raggruppa_63" data-name="Raggruppa 63" transform="translate(0 0)">
          <path id="Tracciato_176" data-name="Tracciato 176" d="M430.606,358.309l.183,1.093-.085,1.091-.257,1.084.084,1.094.316,1.11-.28,1.079.174,1.109-.673,1.04.365,1.131-.182,1.081.065,1.11-.5,1.038-.315,1.057.411,1.167-.227,1.073-.568,1.011.138,1.138-.166,1.084-.452,1.023-.489,1.01.24,1.178-.8.928.029,1.134-.174,1.086-.368,1.033-.291,1.054-.52.983-.416,1.012.058,1.17-.524.977-.324,1.045-.543.964-.5.975-.183,1.1-.7.894-.283,1.064-.463.988-.208,1.1-.395,1.023-.655.9-.618.912-.589.924-.422,1.009-.423,1.01-.434,1.007-.777.815-.228,1.128-.47.993-.637.893-.459,1-1.048.627-.242,1.146-.9.71-.678.856-.213,1.185-.829.75-.861.721-.451,1.026-.785.773-.763.786-.488,1.008-.708.832-.808.746-.467,1.04-.772.777-.648.889-1.039.527-.667.87-.52,1.018-.715.834-1.147.394-.5,1.054-.831.714-1.011.515-.6.969-.847.693-.818.726-.771.783-1.123.356-.87.657-.8.744-.733.837-.691.9-1.112.335-1.029.437-.9.609-.861.671-.8.759-.9.615-.753.854-1.173.182-.767.842-.963.52-1.106.267-.857.7-1.09.278-.865.7-1.033.375-.795.849-1.069.3-.881.693-1.2.012-.891.677-1.017.4-.874.741-1.225-.112-1,.427-1.024.372-.877.776-.989.485-1.073.246-1.074.236-1,.473-1.188-.152-.947.648-1.123.036-.949.675-1.018.438-1.088.164-1.061.272-1.109.053-1.088.136-1.112,0-1.082.144-.988.694-1.14-.2-1.007.654-1.087.14-1.155-.414-1.046.454-1.094.053-1.064.373-1.137-.491-1.082.156-1.064.5-1.105-.211-1.086.225-1.1-.176-1.093-.03-1.092.206-1.091-.246-1.094.113-1.09-.1-1.082-.242-1.106.26-1.081-.22-1.081-.178-1.127.363-1.1-.016-1.05-.474-1.064-.294-1.153.393-1.045-.431-1.083-.151-1.045-.378-1.088-.116L315,453.665l-1.153.2-1.035-.394-1.144.1-1.065-.259-.976-.616-1.133.015-1.007-.468-1-.487-1.013-.419-1.133-.029-1.126-.072-.893-.784-1.041-.328-1.166.013-.987-.49-1.04-.346-.906-.682-.964-.526-1.092-.219-.888-.694-1.119-.172-1.058-.318-1-.441-.785-.882-1.028-.383-.94-.557-1.063-.327-.929-.579-1.038-.384-.778-.838-.909-.605-.924-.578-.907-.605-1.007-.448-.878-.65-1.15-.247-.8-.773-.784-.783-.868-.662-1.04-.43-.639-.966-1.1-.355-.872-.661-.891-.639-.832-.712-.8-.75-.536-1.049-.961-.559-1.035-.486-.454-1.118-.962-.57-.606-.942-1.145-.4-.7-.843-.74-.806-.607-.93-.682-.856-.637-.893-.816-.733-.9-.666-.6-.926-.5-1-.712-.825-.76-.789-.7-.839-.968-.639-.5-.991-.324-1.111-.743-.81-.949-.674-.228-1.162-.547-.944-1.045-.629-.138-1.2-.581-.922-.837-.774-.615-.908-.586-.926-.233-1.118-.619-.907-.6-.92-.591-.928-.08-1.177-.49-.974-.538-.953-.637-.912-.152-1.124-.494-.975L243.2,394.5l-.6-.936-.336-1.041-.379-1.024-.165-1.1-.345-1.034-.425-1.008-.474-.995-.02-1.135-.6-.961-.577-.974-.248-1.068-.1-1.105-.487-1.007-.164-1.086.229-1.169-.731-.963-.162-1.084-.086-1.1,0-1.108-.174-1.077.027-1.107-.721-1,0-1.1.171-1.12-.117-1.084-.521-1.049.138-1.109.1-1.1-.412-1.07.079-1.1.084-1.1-.344-1.084.194-1.1.088-1.093-.147-1.094.089-1.092.118-1.089-.371-1.109.386-1.077.2-1.082.111-1.086-.161-1.109-.041-1.1.16-1.084.4-1.054-.233-1.133.178-1.081.187-1.079.441-1.036.366-1.044-.057-1.121.213-1.072.377-1.037.354-1.039-.187-1.165.567-.987-.064-1.146.6-.972.5-.992-.131-1.176.451-1.006.57-.964.081-1.123.565-.961.051-1.142.839-.854-.135-1.221.868-.832.455-.991-.112-1.233.612-.928.342-1.046.749-.858.615-.915.1-1.166.862-.788.307-1.069.39-1.03.677-.875.584-.924.224-1.132.606-.914.862-.755.357-1.064.816-.775.223-1.16.76-.809.7-.843.707-.838.552-.948.821-.75.669-.86.225-1.207.8-.763.732-.815.969-.616.315-1.164,1.1-.5.721-.817.506-1.013.643-.9.7-.846.788-.762.846-.7.777-.77.944-.6.817-.724.583-.979.84-.7,1.038-.475.909-.615.819-.718.642-.935.666-.917,1.127-.337.741-.827.907-.613,1.047-.417.789-.77.844-.7.7-.911,1.071-.367,1.062-.37.753-.85,1.032-.409.981-.486.707-.952,1.043-.382,1.007-.439,1.023-.4.882-.665.945-.551.947-.551,1.146-.142.8-.868,1.032-.374,1.107-.2.988-.463.928-.609,1.126-.129.971-.509,1.014-.4,1.087-.2.9-.737.952-.6,1.2.145.894-.794,1.095-.165,1.081-.2,1.128-.019.9-.846,1.082-.191,1.151.106.967-.665,1.1-.08,1.086-.151,1.092-.109,1.025-.471,1.137.158,1.064-.259,1.036-.463,1.1-.006,1.124.176,1.039-.517,1.128.284,1.036-.657,1.108.11,1.084-.195,1.1.013,1.1.112,1.088-.176,1.1.151,1.091-.129,1.094-.141,1.091.4,1.1-.481,1.09.212,1.1-.02,1.083.25,1.075.305,1.129-.462,1.067.375,1.063.352,1.118-.189,1.073.232,1.1.038,1.07.238,1.064.263,1.084.133,1.052.318,1.122-.063,1.111.021,1.034.4,1.058.277,1.079.188,1.11.069.937.747,1.078.193,1.1.119.97.571,1.006.435,1.138.023.938.638,1.049.3,1.121.1,1.111.15.828.894,1.147.069,1.09.226.932.608.943.572.92.615,1.188.033.806.85.955.529,1.012.415,1.091.268.887.66.956.527.9.631,1.134.221.7.966.915.591,1.167.191.976.506.876.662.771.814,1.056.392.6,1.047.92.587.868.659,1.193.233.76.807.787.766,1.089.393.647.936.747.807.7.862,1.147.352.748.8.932.6.618.939.688.859,1.079.465.637.91.578.961,1,.555.747.8.789.764.706.839.506,1.009.808.749.643.887.687.85.683.854.472,1.015.964.642.714.834.192,1.208.63.889.733.82.764.8.467,1,.786.8.2,1.158.708.846.512.965.473.986.868.765.7.866-.009,1.243.8.817.621.912.034,1.2.455.99,1.008.738.124,1.143.356,1.036.784.856.475.99.015,1.17.5.979.672.919-.149,1.214.362,1.028.311,1.045.85.876-.083,1.169.464,1,.3,1.052.385,1.029.3,1.054-.079,1.144.371,1.034.227,1.068.024,1.109.686.978.251,1.067-.059,1.121.028,1.1.4,1.044.2,1.077-.026,1.106.2,1.077.133,1.085.061,1.092.053,1.092.018,1.094.013,1.093.406,1.074-.2,1.1.212,1.088v1.1Z" transform="translate(-235.815 -260.659)" fill="#4fd9ff"/>
        </g>
        <g id="Raggruppa_64" data-name="Raggruppa 64" transform="translate(0.266 33.738)">
          <path id="Tracciato_177" data-name="Tracciato 177" d="M253.295,370.593l.778-.779.951-.569.619-.921.765-.787,1.112-.3.642-1.008.932-.573,1.246.052.892-.624.849-.773,1.2.109,1-.4.917-.691,1.092-.126,1.122.039.913-.876,1.136.152L270.47,362l1.128.2,1.078-.091,1.073-.141,1.063-.286,1.106.355,1.067-.36,1.084.052,1.084.08,1.081.153,1.109-.325,1.1.022,1.1.2,1.123-.372,1.085.4,1.117-.156,1.1.146,1.11.007,1.113,0,1.055.5,1.123-.07,1.064.359,1.129-.052,1,.683,1.172-.229,1.092.193,1.1.161.924.807,1.207-.175.9.8.983.5,1.191-.009.883.731,1.173.115.866.732.9.652.829.737.9.621,1.142.322.678.91.831.722,1,.578.686.881.494,1.023.878.728.279,1.14.518.965.55.946.837.816.367,1.049.559.972-.078,1.2.83.9-.03,1.159.488,1.017-.235,1.178.33,1.056.107,1.095.43,1.055.278,1.084-.32,1.131-.022,1.1.488,1.057.037,1.1.19,1.086.222,1.086-.319,1.116.126,1.091.34,1.087.039,1.1-.1,1.1-.5,1.094-.022,1.091.265,1.1-.14,1.088-.025,1.094-.2,1.079-.227,1.072.389,1.159-.709.995.34,1.183-.34,1.055-.4,1.033-.7.927-.3,1.043.046,1.189-.722.882-.662.886-.2,1.127-.7.859-.473.992-.794.777-.55.946-.8.754-.534.97-.9.663-.7.837-.629.9-.466,1.073-1.012.542-.859.662-.629.909-.644.908-1.111.367-.6.977-1.043.432L303.8,435l-.609.977-.789.75-1.162.258-.846.674-.7.865-.967.513-.986.485-.812.72-.651.937-.838.686-.863.654-1.16.263-.792.748-.854.667-.818.713-.556,1.035-.872.64-.934.569-.786.744-.918.6-.981.538-.435,1.11-.794.73-1.059.492-.75.794-.647.882-.457,1.018-.841.743-.139,1.185-.808.791-.552.953.043,1.158-.414,1,.113,1.086-.442,1.075.294,1.1-.234,1.112.121,1.126.107,1.158-.7.992-.427,1.012-.241,1.119-.955.659-.466,1.126-1.048.483-1.106.225-1.106-.047-1.08-.056-1.179.274-.99-.621-1.08-.3-.889-.709-.958-.545-1.161-.264-.9-.678-.776-.8-.867-.694-1.1-.313-.9-.65-.872-.717-.921-.632-1.116-.234-.956-.561-1.158-.135-.843-.8-1.078-.3L253.1,463l-.821-.827-1.093-.291-1.079-.334-.737-.941-1.064-.372-.93-.6-.814-.764-1.034-.462-.92-.632-.887-.687-.783-.8-.683-.892-.7-.874-.157-1.216-.989-.711-.353-1.067-.065-1.145-.559-.986-.191-1.092.2-1.141-.584-1.017-.1-1.095-.068-1.1.017-1.111-.55-1.024-.2-1.078-.043-1.1.163-1.124-.43-1.05-.188-1.081.1-1.112-.209-1.08.071-1.1-.24-1.079.227-1.112-.191-1.084-.11-1.09.114-1.1-.35-1.085.226-1.1-.247-1.093.066-1.1-.314-1.1.6-1.082-.425-1.111.125-1.092.269-1.082-.005-1.1.2-1.083.256-1.075.14-1.084L237.4,412.3l.218-1.079.022-1.106.683-1.005-.225-1.148-.009-1.118.443-1.035.13-1.094.145-1.093.208-1.081.694-.963.184-1.083.19-1.084.5-1,.055-1.125.6-.962.253-1.068.164-1.1.675-.926-.222-1.244.78-.883.223-1.089.17-1.116.954-.795.136-1.133.647-.914.042-1.186.881-.8.12-1.16.532-.963.879-.783.148-1.16.709-.866.429-1.017.392-1.041.947-.719.378-1.05.8-.8.068-1.252.85-.762.451-1.018Z" transform="translate(-236.611 -361.491)" fill="#5cbd2f"/>
        </g>
        <g id="Raggruppa_65" data-name="Raggruppa 65" transform="translate(33.684 147.202)">
          <path id="Tracciato_178" data-name="Tracciato 178" d="M337.044,724.656l-.086-.982-.445-1.074.411-1.1-.321-1.095.4-1.076-.521-1.131.159-1.091.14-1.093.214-1.082.6-1,.04-1.112.15-1.1.31-1.061.862-.837-.029-1.215.859-.788.671-.839.457-.988.877-.653.482-1.036.965-.526.969-.463.7-.963,1.131-.128.956-.525,1.107-.026.97-.634,1.094-.036,1.085-.018,1.088.174,1.065-.573,1.082.351,1.088-.3,1.058.576,1.1-.357,1.076.12,1.061.306,1.077.09,1.084-.007,1.083.008,1.083-.008,1.086-.239,1.075-.031,1.085.447,1.076-.194,1.08-.025,1.079.084,1.073.252,1.088-.237,1.078.079,1.1-.142,1.063.254,1.09.026.976.685,1.19-.4.884.876,1.119.034.956.508.932.529.9.581.639.863.945.67.277,1.085.236,1.062.283,1.076-.451,1.074.15,1.094-.172,1.068.051,1.109-.44,1.015-.409,1.021.214,1.13-.376,1.03-.237,1.065.009,1.114-.169,1.118-.008,1.123.593,1.071-.335,1.157.207,1.1.633,1.011-.011,1.138.525,1.006-.163,1.212.394,1.049.525,1,.815.858-.062,1.251.736.879.654.91.413,1.042.862.776.42,1.042.308,1.122.707.865.936.714.286,1.135.569.946.813.835.247,1.117.323,1.128-.751.933-.483,1.057-1.146-.067-1.082-.312-1.1-.057-1.085-.186-1.081-.186-1.1-.049-1.079-.209-1.1-.091-1.064-.3-1.139.108-1.128.015-.942-.867-1.176.217-1.052-.342-1.1-.13-1.071-.265-1.012-.481-1.046-.345-1.134-.051-1.057-.317-.875-.876-1.195.11-1.021-.42-.95-.612-1.073-.267-1-.465-1.139-.11-.951-.585-.933-.619-.971-.52-1.18-.053-1.079-.293-.957-.559-.969-.53-1.039-.389-.988-.493-.862-.73-.942-.574-1.081-.323-.718-.966-1.141-.228-.847-.731-.836-.739-1.1-.322-1.035-.429-.947-.57-.609-1.067-1.02-.458-.981-.522-.847-.71-.693-.912-1.119-.345-.66-.946-1.158-.314-.816-.747-.6-1Z" transform="translate(-336.483 -700.594)" fill="#5cbd2f"/>
        </g>
        <g id="Raggruppa_66" data-name="Raggruppa 66" transform="translate(114.967 24.782)">
          <path id="Tracciato_179" data-name="Tracciato 179" d="M659.27,407.425l.142,1.1-.507,1.087-.048,1.091,0,1.093.04,1.1-.012,1.095-.238,1.079.394,1.129-.108,1.092-.433,1.058-.189,1.079.087,1.113-.15,1.085.06,1.117-.4,1.048-.4,1.043.306,1.168-.278,1.065-.582,1,.138,1.15-.506,1.01-.378,1.035.116,1.158-.472,1.01-.406,1.024-.131,1.1-.314,1.05-.652.943-.09,1.12L653.9,439.7l-.289,1.059-.619.94-.241,1.078-.614.935-.111,1.134-.228,1.093-.628.924-.566.947-.239,1.095-.324,1.06-.855.8-.6.92-.06,1.2-.7.87-.551.946-.471.991-.463,1-.461,1-.562.943-.945.7-.3,1.108-.5.984-.82.773-.366,1.078-.792.786-.657.879-.75.809-.458,1.027-.766.795-.524.983-1.01.594-.44,1.055-.792.766-.747.8-.512,1.01-.966.606-.8.752-.784.766-.779.769-.862.683-.519,1.03-.638.919-.8.752-.951.584-1.006.512-.661.908-1.07.417-.734.825-.771.83-1.115.063-1.1.132-1.092-.1-1.03-.571-1.048-.285-1.071-.13L616.094,482l-1.155.105-1.061-.286-1.039-.362-.859-.76-1.135-.184-.665-1.008-1.114-.286-.683-.908-.945-.545-.76-.777-.942-.572-.893-.644-.5-1.022-.7-.826-.567-.926-1.063-.552-.534-.957-.46-1-.4-1.021-.492-.957-.982-.716-.289-1.068-.541-.951-.1-1.131-.527-.959-.316-1.04-.164-1.086-.325-1.035-.49-1.011-.139-1.091.194-1.115-.066-1.08.022-1.082-.107-1.094.076-1.09-.04-1.116.385-1.043.286-1.056.11-1.11.618-.949.044-1.156.9-.809,0-1.2.525-.968.541-.959.965-.7.419-1.023.492-.991.636-.894.605-.927.89-.714.685-.907,1.169-.383.506-1.121.818-.776,1.164-.344.728-.886.869-.712.918-.648,1.039-.471.718-.948.978-.563,1.039-.456.969-.569,1.053-.4,1.106-.143.843-.845,1.14.032,1-.5,1.077-.2,1.1.426,1.062-.078,1.108-.142,1.04.331,1.024.361.9.61,1.077.3.793.765.892.613.681.866,1,.508.842.687.647.891.855.67.8.724.652.923,1.131.277.942.485.883.683,1.055.419,1.085-.6,1.074-.056,1.031-.3,1.027-.281,1.246.147.841-.784,1.052-.427.882-.7.561-1,.451-1.027.678-.841.549-.933.757-.836.065-1.175.487-.974.731-.87.5-1.018-.315-1.115L652.519,423l-.095-1.069-.242-1.056.229-1.154-.566-1.008-.073-1.1.277-1.1.051-1.068-.192-1.147.385-1.05.746-.854.558-.924.676-.917.556-1,.492-1.04-.049-1.187.4-1.075-.03-1.136-.07-1.125.252-1.177-.3-1.112-.426-1.068-.159-1.14-.714-.955-.288-1.1-.423-1.047-.226-1.137-.666-.934-.815-.812-.487-1.034-.671-.916-.909-.69-.943-.616-.656-1.025-1.154-.258-.945-.756-1.187.162-1.1.108-.825.792-1.215.151-.884.7-.462,1.107-.724.819-.967.647-.559.967-.663.9-.128,1.162-.7.95.109,1.145.445,1.055v1.13l.368,1.052.034,1.161.477,1.021.875.83-.056,1.283.846.8.931.617.829.855.894.321.817.677-.213,1.091-.4.995-.185,1.115-.793.8-.391,1.062-.653.895-.781.79-1.058.447-.858.655-1.155.3-.813.979-1.2-.141-1.045-.261,1-.9-.544-1.278.269-1.167.854-.91.928-.529.825-.66.652-.773.338-.971-.627-.858-.49-1-.945-.559-.917-.577-.7-.837-.774-.749-.705-.823-.607-.924-.148-1.1.01-1.136v-1.181l-.436-1.094-.849-.837-.688-.929-.925-.72-1.186-.122-1.07-.322-1.111-.162-1.121.183-1.127-.156-1.156-.137-.976.753-1.135-.134-1.124.083-.781.963-1.151.127-.858.686-.945.613-.282,1.16-1.028.669.193,1.252-.521.958-.442,1.022.221,1.118-.426,1.058-.045,1.089.443,1.084-.345,1.09.419,1.073-.523,1.1.522,1.073-.255,1.09.011,1.085-.244,1.074.392,1.115-.346,1.06-.158,1.075-.42,1.014-.078,1.107-.308,1.057-.436,1.017-.891.731-.561.927-.562.97-1.15.342-.577,1.023-1.086.321-.777.841-1.022.4-1.006.429-1.142.021-1.043.274-1.013.224-1.04-.193-1-.334-1.206.162-.788-.9-1.175-.1-.8-.794-.979-.49-.978-.513-.581-1.025-.827-.695-.84-.683-1.117-.405-.676-.871-.834-.719-.424-1.079-.867-.694-.706-.835-.781-.785-.19-1.194-.747-.809-.652-.879-.59-.922-.525-.96-.552-.95-.356-1.04-.4-1.017-.025-1.147-.669-.927-.067-1.112-.526-1-.02-1.109-.175-1.074.013-1.094-.367-1.068-.067-1.1.485-1.076-.3-1.1.107-1.082.25-1.059.568-.955.208-1.069.512-.95.668-.846.677-.818.577-.916.9-.606.742-.784.716-.881,1.121-.23,1.035-.321.788-.885,1.075-.228,1.132-.011.912-.7,1.12.005,1.055-.211,1.01-.41,1-.45,1.109.021.985-.537,1.059-.195,1.008-.383,1.1-.063.865-.686.959-.427,1.169-.328.3-1.166.644-.878.506-1,.15-1.107-.227-1.1.163-1.117-.592-1-.439-.992.14-1.185-.578-.945-.394-1.017-.306-1.075-.664-.883-.9-.708-.459-1-.873-.694,0-1.194-.616-.924.527-.969.847-.74,1.128.086,1.115-.091.841-.9,1.006-.363,1.143-.12.795-.814.907-.585,1.038-.381,1.047-.4.585-1.044,1.2-.226.641-.937.732-.808.831-.7.732-.8.865-.692.73-.826.239-1.157.695-.867.467-1,.639-.916.575-.952.236-1.1.722-.89.295-1.076.46-1,.192-1.118.372-1.042.633-.928.6-.939.576-.939.429-1.007.479-.985.6-.916.89-.706.379-1.1.631-.976.989.777.912.622.431,1.141,1.081.445.53,1.017.712.826,1.122.432.576.956.54.981.917.638.6.918.622.9.893.672.677.854.574.935.929.658.612.906.746.806.316,1.12.724.822.9.705.68.86.166,1.2.938.692.541.951.312,1.09.838.769.519.963.557.941.622.905.137,1.17.48.979.579.927.683.878.755.849.118,1.155.235,1.093.428,1,.5.972.593.934.434,1,.7.9-.043,1.187.682.912.328,1.044.052,1.136.526.974.067,1.123.518.981.172,1.086.683.941.094,1.107.513,1-.216,1.177.5,1,.2,1.074.561,1-.344,1.182.228,1.066.17,1.076.594,1.01.287,1.064.036,1.1.026,1.1.274,1.069-.376,1.137.455,1.053-.178,1.111.481,1.061.236,1.084-.046,1.1.065,1.095-.159,1.1-.072,1.1Z" transform="translate(-579.41 -334.725)" fill="#5cbd2f"/>
        </g>
        <g id="Raggruppa_67" data-name="Raggruppa 67" transform="translate(30.491 0.054)">
          <path id="Tracciato_180" data-name="Tracciato 180" d="M360.548,267.238l-1.22-.085-1,.494-.95.607-.9.723-1.193.029-1.065.338-.842.828-1.131.2-1.046.389-.9.692-.958.562-1.106.279-.938.6-.781.88-1.234.066-.787.858-1.02.452-.755.89-1.261.069-.947.581-.609,1.1-.987.513-1.132.309-.891.663-.937.6-.582,1.079-.855.7-1.232.219-.6,1.026-.77.8-.852.7-.878.673-1.157.372-.783.79-.693.881-.622.862,1.022-.264,1.124-.086.971-.625,1.177.085.893-.873,1.1-.16,1.1-.175,1.059-.321,1.02-.438.947-.639,1.04-.368,1.092-.23,1.042-.367.953-.569,1.022-.4,1.048-.47,1.192.114,1.065-.409,1.123.267,1.095.1,1.134-.13,1.119.127,1.17-.014.972.688,1.057.373,1.068.352.936.659,1.026.443,1.069.367,1.034.449.92.657,1.007.5,1.113.34.7.914.992.44,1.048.276,1.043.265,1.074.015,1.1.186.9-.789,1.02-.244.847-.617.817-.655.907-.6.648-.857.626-.872.776-.793.455-.986.3-1.054.472-.966.452-.977.3-1.038.154-1.081.5-.961.055-1.106.37-1,.749-.856.526-.923.662-.84.865-.642.651-.876,1.06-.381.693-.855.941-.519.731-.845.941-.522.974-.462.907-.576.959-.485.86-.674,1.165-.079.8-.8,1.08-.231,1-.4.808-.8,1.127-.118.822-.78,1.153-.059.917-.684-1.12-.118-1.084.259-1.077.012-1.077-.061-1.08-.094-1.087-.2L390,260.821l-1.067.3-1.081,0-1.075.1-1.078.072-1.053.318-1.059.232-1.138-.43-1.073.148-1.006.617-1.044.307-1.063.178-1.133-.223-1.074.141-1.022.407-1.061.2-1.061.2-1.066.185-1,.453-1.067.183-1.044.276-1.105.06-.994.456-1,.434-1.069.2-.981.478-1.183-.113-1.03.346Z" transform="translate(-326.943 -260.821)" fill="#dffbff"/>
        </g>
        <g id="Raggruppa_68" data-name="Raggruppa 68" transform="translate(109.243 159.022)">
          <path id="Tracciato_181" data-name="Tracciato 181" d="M563.226,743.291l-.921-.83.611-.578-.025-.923.3-1.133,1.05-.272.838.043,1.1.1.618.594.139-.145.2-.153.313-.531.4-.753.819-.568.721-.167.749-.081.674.361.671.071.967.477.476-.282-.121-1.083.777-.822.863-.661,1.116-.035.539.758.695.168.37-.059.433-.107.542.871-.8.749-.807-.817-.763-.206-.683-.2-.329.214-.192.09-.346.789-.579.973-.912.388-.8.025-.878-.086-.568-.369-.6-.129-.223-.014-.311.035-.433.455-.143.781-.825.479-.537.6-1.141.337-.756-.692-.516-.707-.543.057-.4.344.12.767-.341.821Z" transform="translate(-562.305 -735.92)" fill="#0088eb"/>
        </g>
        <g id="Raggruppa_69" data-name="Raggruppa 69" transform="translate(108.967 49.754)">
          <path id="Tracciato_182" data-name="Tracciato 182" d="M562.3,419l-.818-.816.519-.411.613-.591,1.087-.45.7.383.374-.012-.289-.589.213-.643.358-.594.146-.838.48-.636.637-.883.9.092.589.157.585.115.534-.044.046-.518-.391-.96.48-1.057.18-1,1.119-.357.4,1.157-.719.011.081.516v.865l-.486.964-.2.82-.746.678-.875-.028-.767.244-.532-.575-.08.483-.157.2-.161.616.174.913-.447.755-.153.945-1.167.191-.949-.384-.617.583-.358-.029Z" transform="translate(-561.479 -409.357)" fill="#0088eb"/>
        </g>
        <g id="Raggruppa_70" data-name="Raggruppa 70" transform="translate(78.257 119.903)">
          <path id="Tracciato_183" data-name="Tracciato 183" d="M473.075,623.285l-1.013-.708-.937-.394-.472-.329-.275-.093-.644.246-.035-1.039.391-.462,1.086-.166.983.734.392.651.21.167.254-.39.631-.328.732-.261.077-1.118,1.043.136.96-.211.354.856.562.36.767-.188.27.487.049-.538.937-.394.543-1.038.889-.257.624.3-.06.824-.426-.177-.412.16-.725.571-.509.9-.708.579-.914-.342-.9-.091-.5-.585-.287-.54-.408-.134-.528.1-.153.794-.426.771-.757.37Z" transform="translate(-469.699 -619.007)" fill="#0088eb"/>
        </g>
        <g id="Raggruppa_71" data-name="Raggruppa 71" transform="translate(161.828 93.26)">
          <path id="Tracciato_184" data-name="Tracciato 184" d="M719.676,539.38l-.213.89.091,1,.977.313.454-.908-.508-.944Z" transform="translate(-719.464 -539.38)" fill="#5cbd2f"/>
        </g>
        <g id="Raggruppa_72" data-name="Raggruppa 72" transform="translate(162.269 96.965)">
          <path id="Tracciato_185" data-name="Tracciato 185" d="M721.471,550.454l-.477,1.2-.213,1.08.481,1.027-.131,1.087.767.791.291.909.824.108.6-.261.581-.571.7-.634-.342-.81-.237-1.04-.578-.865-.284-.954-.817-.526Z" transform="translate(-720.781 -550.454)" fill="#5cbd2f"/>
        </g>
        <g id="Raggruppa_73" data-name="Raggruppa 73" transform="translate(123.173 16.465)">
          <path id="Tracciato_186" data-name="Tracciato 186" d="M614.981,342.593l.939.128.873-.5.869-.413.963-.055,1-.081.679-.792.925-.233.85-.381.951-.258.62-.8.858-.354.682-.69.874-.353.669-.737.906-.524.273-1,.341-.865.588-.7.236-.978-.423-.928.584-.881-.6-.815.079-.928-.25-.9-.642-.738-1.06-.161-.579-.736-.483-.916-1.2.285-.559-.879-.93-.214-.575-.808-.817-.392-.894-.38-.733-.487-.817-.431-.845-.376-.479-.96-1.166.075-.2-1.255-1.4.324-.283-1.168-.638-.494-1.038-.31-.393-.945-.8-.556-.149-1.011-.476-.776-.962-.485.206-1.207-1.089-.358-.547-.817-.514-.8-.465-.832-.872-.5-.962.112-.858-.5-.734.683-.378.907.139.989-.142.907-.152.924-.065.971.363.886-.022,1.006.646.785,1.1.324.36.955.572.737.484.849,1.176.071.074,1.323.864.551,1.017.163.694.7.689.615.9.4.367.941.636.649.561.775.54.748-.023,1.037.268.931-.323.966-.529.773-.39.868-.175,1,.435,1.074-1.094.592-.165.992-.229.87-.276.949-.2.942-.036.972.256.927.326.858.088,1.2,1.159.182Z" transform="translate(-603.935 -309.867)" fill="#5cbd2f"/>
        </g>
      </g>
      <g id="Raggruppa_74" data-name="Raggruppa 74" transform="translate(178.902 446.719)">
        <path id="Ciuffo" d="M386.289,831.447l-1.024-.579-1.043-.526-1.09-.445-1.177-.118-1.121-.428-1.227.037.97-.807.994-.7.957-.778,1.082-.6,1.225-.219,1.174-.332,1.2-.3,1.231.172,1.226-.012,1.192.293,1.174.143.5-1.052.406-1.157.72-.988.883-.845.713-.984.954-.747,1.034-.617,1.057-.563,1.066-.588,1.171-.336,1.245-.144-.506,1.122-.486,1.1-.135,1.205-.3,1.161.071,1.189.242,1.025,1.1-.282,1.228-.166,1.208-.222,1.218-.141,1.217-.153h1.226l1.22.079,1.229.02,1.187.307,1.184.218-1.12.24-1.086.437-1.033.556-.832.842-1.007.611-.676.957-.662.989" transform="translate(-379.104 -817.724)" fill="#333"/>
        <path id="Tracciato_187" data-name="Tracciato 187" d="M385.044,830.886l-1.025-.579-1-.5-1.005-.411-1.1-.11a.5.5,0,0,1-.129-.031l-1.027-.392-1.127.034h-.015a.5.5,0,0,1-.321-.888l.97-.807.031-.024.98-.693.944-.767a.5.5,0,0,1,.074-.05l1.082-.6a.5.5,0,0,1,.155-.055l1.2-.214,1.149-.326,1.215-.305a.5.5,0,0,1,.192-.01l1.194.167,1.189-.011a.641.641,0,0,1,.124.015l1.163.285.787.1.337-.7.4-1.132a.49.49,0,0,1,.068-.13l.72-.988a.485.485,0,0,1,.059-.067l.85-.814.687-.947a.5.5,0,0,1,.1-.1l.954-.747a.55.55,0,0,1,.052-.036l1.034-.617,1.079-.575,1.06-.585a.5.5,0,0,1,.1-.043l1.171-.336a.543.543,0,0,1,.081-.016l1.245-.144a.5.5,0,0,1,.515.7l-.959,2.15-.125,1.129a.488.488,0,0,1-.013.069l-.277,1.084.064,1.068.115.485.607-.155a.483.483,0,0,1,.057-.011l1.228-.166,1.184-.219.033-.005,2.43-.293a.486.486,0,0,1,.063,0h1.227l1.253.08,1.2.019a.518.518,0,0,1,.118.016l1.17.3,1.166.215a.5.5,0,0,1,.014.984l-1.077.231-1.02.411-.942.507-.779.789a.5.5,0,0,1-.1.076l-.917.557-.616.872-.655.978-.834-.559.662-.988.683-.967a.505.505,0,0,1,.15-.14l.954-.578.788-.8a.5.5,0,0,1,.119-.089l1.033-.556a.456.456,0,0,1,.051-.024l.339-.136-.385-.1-1.168-.019-1.245-.08h-1.162l-2.392.288-1.191.219-1.223.166-1.075.275a.5.5,0,0,1-.613-.371l-.242-1.025a.5.5,0,0,1-.013-.086l-.071-1.19a.5.5,0,0,1,.015-.154l.288-1.127.131-1.17a.5.5,0,0,1,.039-.146l.629-1.422-.325.037-1.077.309-1.017.56-1.064.566-.985.59-.874.684-.672.927a.5.5,0,0,1-.059.068l-.85.814-.65.892-.382,1.088a.51.51,0,0,1-.021.051l-.5,1.052a.5.5,0,0,1-.513.281L389.8,825.6a.509.509,0,0,1-.059-.011l-1.131-.277-1.163.011a.581.581,0,0,1-.074,0l-1.134-.159-1.106.278-1.159.329-.049.011-1.143.2-.97.536-.923.75-.027.02-.844.6,1.054.4,1.111.111a.493.493,0,0,1,.14.035l1.09.445.036.016,1.043.526,1.046.591Z" transform="translate(-378.105 -816.727)" fill="#fff"/>
      </g>
    </g>
    <g id="Raggruppa_183" data-name="Raggruppa 183" transform="matrix(1, -0.017, 0.017, 1, 128.052, 353.536)">
      <g id="Raggruppa_179" data-name="Raggruppa 179" transform="translate(0 2.378)">
        <g id="Raggruppa_177" data-name="Raggruppa 177" transform="translate(0.637 0.559)">
          <path id="Tracciato_313" data-name="Tracciato 313" d="M0,1.559c.512-.465.332-.521,1.055-.907A7.742,7.742,0,0,1,2.378.206,6.307,6.307,0,0,1,3.743.017,5.682,5.682,0,0,1,5.113.073,6.176,6.176,0,0,1,6.4.53" fill="#333"/>
        </g>
        <g id="Raggruppa_178" data-name="Raggruppa 178">
          <path id="Tracciato_314" data-name="Tracciato 314" d="M.6,2.569c-.149,0-.38.069-.488-.051a.665.665,0,0,1,.109-.856A11.857,11.857,0,0,1,1.28.99,7.412,7.412,0,0,1,2.4.438,7.205,7.205,0,0,1,3.616.172,6.24,6.24,0,0,1,4.846.091,6.01,6.01,0,0,1,6.112.029a7.657,7.657,0,0,1,1.137.56.394.394,0,0,1,.25.583c-.117.278-.389.525-.667.407a5.82,5.82,0,0,0-1.168-.457,5.021,5.021,0,0,0-1.253.033,6.415,6.415,0,0,0-1.278.024,6.463,6.463,0,0,0-1.18.5A4.379,4.379,0,0,0,.928,2.44.443.443,0,0,1,.6,2.569Z" fill="#fff"/>
        </g>
      </g>
      <g id="Raggruppa_182" data-name="Raggruppa 182" transform="translate(5.695 0)">
        <g id="Raggruppa_180" data-name="Raggruppa 180" transform="translate(0.25 0.34)">
          <path id="Tracciato_315" data-name="Tracciato 315" d="M0,0A4.685,4.685,0,0,1,1.254.608a3.229,3.229,0,0,1,.91,1.065" fill="#333"/>
        </g>
        <g id="Raggruppa_181" data-name="Raggruppa 181">
          <path id="Tracciato_316" data-name="Tracciato 316" d="M2.387,2.33a.327.327,0,0,1-.264-.164,2.913,2.913,0,0,0-.954-.811C.626.975.124.643.115.639-.023.577-.022.41.04.273S.259-.049.4.012C.439.031,1.024.4,1.627.837A3.3,3.3,0,0,1,2.588,1.92a.214.214,0,0,1-.087.322C2.461,2.263,2.431,2.33,2.387,2.33Z" fill="#fff"/>
        </g>
      </g>
    </g>
    <g id="Raggruppa_190" data-name="Raggruppa 190" transform="matrix(1, -0.017, 0.017, 1, 161.645, 350.985)">
      <g id="Raggruppa_186" data-name="Raggruppa 186" transform="translate(0.782 1.9)">
        <g id="Raggruppa_184" data-name="Raggruppa 184" transform="translate(0.543 0.679)">
          <path id="Tracciato_317" data-name="Tracciato 317" d="M6.637,1.008C6.072.608,6.1.827,5.333.531A6.473,6.473,0,0,0,4.035.1,6.081,6.081,0,0,0,2.663.008,5.789,5.789,0,0,0,1.333.319,5.787,5.787,0,0,0,0,.707" fill="#333"/>
        </g>
        <g id="Raggruppa_185" data-name="Raggruppa 185">
          <path id="Tracciato_318" data-name="Tracciato 318" d="M7.14,2.22c-.109,0-.276.116-.372.049A3.8,3.8,0,0,0,5.7,1.643a6.2,6.2,0,0,0-1.2-.341,5.678,5.678,0,0,0-1.245,0,5.03,5.03,0,0,0-1.264.047,5.916,5.916,0,0,0-1.117.6.6.6,0,0,1-.782-.216A.69.69,0,0,1,.245.866,6.678,6.678,0,0,1,1.439.425,6.089,6.089,0,0,1,2.676.213,7.075,7.075,0,0,1,3.93,0,6.755,6.755,0,0,1,5.167.287,7.145,7.145,0,0,1,6.336.744a7.121,7.121,0,0,1,1.1.576A.442.442,0,0,1,7.5,2,.4.4,0,0,1,7.14,2.22Z" fill="#fff"/>
        </g>
      </g>
      <g id="Raggruppa_189" data-name="Raggruppa 189" transform="translate(0 0)">
        <g id="Raggruppa_187" data-name="Raggruppa 187" transform="translate(0.198 0.202)">
          <path id="Tracciato_319" data-name="Tracciato 319" d="M1.922,0A4.645,4.645,0,0,0,.816.826,3.148,3.148,0,0,0,0,1.932" fill="#333"/>
        </g>
        <g id="Raggruppa_188" data-name="Raggruppa 188">
          <path id="Tracciato_320" data-name="Tracciato 320" d="M.2,2.54c-.033,0-.023-.248-.056-.26C0,2.227-.03,2.208.024,2.067A3.2,3.2,0,0,1,.862.916,7.541,7.541,0,0,1,2.023.044c.13-.078.2-.053.28.076S2.357.3,2.228.382a10.405,10.405,0,0,0-1.024.8A2.8,2.8,0,0,0,.513,2.255C.471,2.363.311,2.54.2,2.54Z" fill="#fff"/>
        </g>
      </g>
    </g>
  </g>
</svg>
