<svg xmlns="http://www.w3.org/2000/svg" width="240.321" height="263.711" viewBox="0 0 240.321 263.711">
  <g id="donazioni" transform="translate(-94.001 -199.334)">
    <g id="Cake" transform="translate(95 290.49)">
      <path id="Tracciato_1894" data-name="Tracciato 1894" d="M915.167,665.5v49.74c0,24.95,45.765,45.177,102.218,45.177S1119.6,740.19,1119.6,715.24V665.5Z" transform="translate(-915.166 -588.862)" fill="#f0f0f0" stroke="#1d1d1b" stroke-miterlimit="10" stroke-width="2"/>
      <path id="Tracciato_1895" data-name="Tracciato 1895" d="M1172.345,620.5l-6.845,15.972,6.845-2.738Z" transform="translate(-1051.264 -564.397)" fill="#f0f0f0" stroke="#1d1d1b" stroke-linecap="round" stroke-linejoin="round" stroke-width="2"/>
      <g id="Raggruppa_389" data-name="Raggruppa 389" transform="translate(0.001 31.69)">
        <path id="Tracciato_1896" data-name="Tracciato 1896" d="M1093.718,582.134l-76.18,29.814,18.859-44.166c-6.161-.512-12.514-.783-19.011-.783-56.453,0-102.218,20.226-102.218,45.177s45.765,45.177,102.218,45.177S1119.6,637.127,1119.6,612.177C1119.6,600.641,1109.816,590.118,1093.718,582.134Z" transform="translate(-915.167 -567)" fill="#fff" stroke="#1d1d1b" stroke-linejoin="round" stroke-width="2"/>
      </g>
      <g id="Raggruppa_390" data-name="Raggruppa 390" transform="translate(0 119.482)">
        <path id="Tracciato_1897" data-name="Tracciato 1897" d="M915.165,759.387a13.716,13.716,0,0,0,1.652,1.7c5.647,4.9,17.89,1.664,26.8,5.422,7.279,3.069,12.7,14.348,21.679,16.444,7.928,1.851,17.952-5.7,26.882-4.748,8.238.875,16.356,10.44,25.2,10.44s16.964-9.565,25.2-10.44c8.931-.949,18.955,6.6,26.883,4.748,8.975-2.1,14.4-13.375,21.68-16.444,8.913-3.758,21.157-.523,26.8-5.422a13.8,13.8,0,0,0,1.651-1.7" transform="translate(-915.165 -759.387)" fill="none" stroke="#1d1d1b" stroke-linejoin="round" stroke-width="2"/>
      </g>
      <line id="Linea_34" data-name="Linea 34" y2="36.714" transform="translate(121.081 32.602)" fill="#fff" stroke="#1d1d1b" stroke-linecap="round" stroke-miterlimit="10" stroke-width="2"/>
      <g id="Raggruppa_391" data-name="Raggruppa 391" transform="translate(66.777 38.078)">
        <path id="Tracciato_1898" data-name="Tracciato 1898" d="M1077.015,612.577c0,1.648-3.473,4.037-7.758,4.037s-7.758-2.389-7.758-4.037" transform="translate(-1061.5 -598.167)" fill="none" stroke="#1d1d1b" stroke-linecap="round" stroke-linejoin="round" stroke-width="1"/>
        <circle id="Ellisse_256" data-name="Ellisse 256" cx="7.758" cy="7.758" r="7.758" transform="translate(0.228)" fill="#f0f0f0" stroke="#1d1d1b" stroke-linecap="round" stroke-linejoin="round" stroke-width="1"/>
      </g>
      <g id="Raggruppa_392" data-name="Raggruppa 392" transform="translate(67.69 86.449)">
        <path id="Tracciato_1899" data-name="Tracciato 1899" d="M1079.015,718.577c0,1.648-3.473,4.037-7.758,4.037s-7.758-2.389-7.758-4.037" transform="translate(-1063.5 -704.167)" fill="none" stroke="#1d1d1b" stroke-linecap="round" stroke-linejoin="round" stroke-width="1"/>
        <circle id="Ellisse_257" data-name="Ellisse 257" cx="7.758" cy="7.758" r="7.758" transform="translate(0.228)" fill="#f0f0f0" stroke="#1d1d1b" stroke-linecap="round" stroke-linejoin="round" stroke-width="1"/>
      </g>
      <g id="Raggruppa_393" data-name="Raggruppa 393" transform="translate(30.271 61.351)">
        <path id="Tracciato_1900" data-name="Tracciato 1900" d="M997.015,663.577c0,1.648-3.473,4.037-7.758,4.037s-7.758-2.389-7.758-4.037" transform="translate(-981.5 -649.167)" fill="none" stroke="#1d1d1b" stroke-linecap="round" stroke-linejoin="round" stroke-width="1"/>
        <circle id="Ellisse_258" data-name="Ellisse 258" cx="7.758" cy="7.758" r="7.758" transform="translate(0.228)" fill="#f0f0f0" stroke="#1d1d1b" stroke-linecap="round" stroke-linejoin="round" stroke-width="1"/>
      </g>
      <g id="Raggruppa_394" data-name="Raggruppa 394" transform="translate(125.188 84.624)">
        <path id="Tracciato_1901" data-name="Tracciato 1901" d="M1205.015,714.577c0,1.648-3.473,4.037-7.758,4.037s-7.758-2.389-7.758-4.037" transform="translate(-1189.5 -700.167)" fill="none" stroke="#1d1d1b" stroke-linecap="round" stroke-linejoin="round" stroke-width="1"/>
        <circle id="Ellisse_259" data-name="Ellisse 259" cx="7.758" cy="7.758" r="7.758" transform="translate(0.228)" fill="#f0f0f0" stroke="#1d1d1b" stroke-linecap="round" stroke-linejoin="round" stroke-width="1"/>
      </g>
      <g id="Raggruppa_395" data-name="Raggruppa 395" transform="translate(158.5 62.72)">
        <path id="Tracciato_1902" data-name="Tracciato 1902" d="M1278.015,666.577c0,1.648-3.473,4.037-7.758,4.037s-7.758-2.389-7.758-4.037" transform="translate(-1262.5 -652.167)" fill="none" stroke="#1d1d1b" stroke-linecap="round" stroke-linejoin="round" stroke-width="1"/>
        <circle id="Ellisse_260" data-name="Ellisse 260" cx="7.758" cy="7.758" r="7.758" transform="translate(0.228)" fill="#f0f0f0" stroke="#1d1d1b" stroke-linecap="round" stroke-linejoin="round" stroke-width="1"/>
      </g>
      <text id="La_Fee_del_brand" data-name="La Fee del brand" transform="translate(41.381 12)" fill="#1d1d1b" font-size="12" font-family="CircularSpotifyText-Light, Circular Std" font-weight="300" letter-spacing="-0.03em"><tspan x="-40.986" y="0">La Fee del brand</tspan></text>
    </g>
    <g id="Piece" transform="translate(257.114 199.334)">
      <g id="Raggruppa_396" data-name="Raggruppa 396" transform="translate(0 44.285)">
        <path id="Tracciato_1903" data-name="Tracciato 1903" d="M1595.359,568.714,1576.5,612.88l76.18-29.815S1633.384,572.006,1595.359,568.714Z" transform="translate(-1576.5 -568.714)" fill="#fff" stroke="#1d1d1b" stroke-linecap="round" stroke-linejoin="round" stroke-width="2"/>
        <path id="Tracciato_1904" data-name="Tracciato 1904" d="M1576.5,630.162V677.62l76.207-29.661V600.5Z" transform="translate(-1576.5 -585.995)" fill="#fff" stroke="#1d1d1b" stroke-linecap="round" stroke-linejoin="round" stroke-width="2"/>
        <path id="Tracciato_1905" data-name="Tracciato 1905" d="M1576.5,668.161V683.22l76.207-29.661V638.5Z" transform="translate(-1576.5 -606.654)" fill="#f0f0f0" stroke="#1d1d1b" stroke-linecap="round" stroke-linejoin="round" stroke-width="2"/>
      </g>
      <g id="Raggruppa_397" data-name="Raggruppa 397" transform="translate(24.414 47.838)">
        <path id="Tracciato_1906" data-name="Tracciato 1906" d="M1645.515,608.077c0,1.648-3.473,4.037-7.758,4.037s-7.758-2.389-7.758-4.037" transform="translate(-1630 -593.667)" fill="none" stroke="#1d1d1b" stroke-linecap="round" stroke-linejoin="round" stroke-width="1"/>
        <circle id="Ellisse_261" data-name="Ellisse 261" cx="7.758" cy="7.758" r="7.758" transform="translate(0.228)" fill="#f0f0f0" stroke="#1d1d1b" stroke-linecap="round" stroke-linejoin="round" stroke-width="1"/>
      </g>
      <rect id="Rettangolo_214" data-name="Rettangolo 214" width="2.282" height="22.817" rx="1.141" transform="translate(31.259 29.357)" fill="#fff" stroke="#797979" stroke-linecap="round" stroke-linejoin="round" stroke-width="1"/>
      <path id="Tracciato_1907" data-name="Tracciato 1907" d="M1621.029,539.493l11.688,4.543a.9.9,0,0,0,1.221-.836v-9.086a.9.9,0,0,0-1.221-.835l-11.688,4.543A.9.9,0,0,0,1621.029,539.493Z" transform="translate(-1600.398 -505.131)" fill="#fff" stroke="#ff0f5f" stroke-linecap="round" stroke-linejoin="round" stroke-width="1"/>
      <path id="Tracciato_1908" data-name="Tracciato 1908" d="M1647.02,589c0,.756-1.123,1.369-2.51,1.369S1642,589.756,1642,589" transform="translate(-1612.11 -535.458)" fill="none" stroke="#1d1d1b" stroke-linecap="round" stroke-linejoin="round" stroke-width="1"/>
      <g id="Raggruppa_398" data-name="Raggruppa 398" transform="translate(2.99 80.468)">
        <line id="Linea_35" data-name="Linea 35" y1="9.699" x2="5.741" transform="translate(0 25.941)" fill="none" stroke="#ccc" stroke-linecap="round" stroke-linejoin="round" stroke-width="1"/>
        <line id="Linea_36" data-name="Linea 36" y1="9.699" x2="5.741" transform="translate(7.246 23.058)" fill="none" stroke="#ccc" stroke-linecap="round" stroke-linejoin="round" stroke-width="1"/>
        <line id="Linea_37" data-name="Linea 37" y1="9.699" x2="5.741" transform="translate(14.491 20.176)" fill="none" stroke="#ccc" stroke-linecap="round" stroke-linejoin="round" stroke-width="1"/>
        <line id="Linea_38" data-name="Linea 38" y1="9.699" x2="5.741" transform="translate(21.737 17.294)" fill="none" stroke="#ccc" stroke-linecap="round" stroke-linejoin="round" stroke-width="1"/>
        <line id="Linea_39" data-name="Linea 39" y1="9.699" x2="5.741" transform="translate(28.982 14.411)" fill="none" stroke="#ccc" stroke-linecap="round" stroke-linejoin="round" stroke-width="1"/>
        <line id="Linea_40" data-name="Linea 40" y1="9.699" x2="5.741" transform="translate(36.228 11.529)" fill="none" stroke="#ccc" stroke-linecap="round" stroke-linejoin="round" stroke-width="1"/>
        <line id="Linea_41" data-name="Linea 41" y1="9.699" x2="5.741" transform="translate(43.473 8.647)" fill="none" stroke="#ccc" stroke-linecap="round" stroke-linejoin="round" stroke-width="1"/>
        <line id="Linea_42" data-name="Linea 42" y1="9.699" x2="5.741" transform="translate(50.719 5.765)" fill="none" stroke="#ccc" stroke-linecap="round" stroke-linejoin="round" stroke-width="1"/>
        <line id="Linea_43" data-name="Linea 43" y1="9.699" x2="5.741" transform="translate(57.964 2.882)" fill="none" stroke="#ccc" stroke-linecap="round" stroke-linejoin="round" stroke-width="1"/>
        <line id="Linea_44" data-name="Linea 44" y1="9.699" x2="5.741" transform="translate(65.21)" fill="none" stroke="#ccc" stroke-linecap="round" stroke-linejoin="round" stroke-width="1"/>
      </g>
      <path id="Tracciato_1909" data-name="Tracciato 1909" d="M1637.825,545.192c-1.6-1.6-1.825-1.55-1.825-2.187a.993.993,0,0,1,.982-1.033,1.129,1.129,0,0,0,1.687,0,.993.993,0,0,1,.982,1.033C1639.651,543.642,1639.427,543.591,1637.825,545.192Z" transform="translate(-1608.848 -509.89)" fill="#ff0f5f"/>
      <text id="Donazioni-2" data-name="Donazioni" transform="translate(35.184 12)" fill="#1d1d1b" font-size="12" font-family="CircularStd-Bold, Circular Std" font-weight="700" letter-spacing="-0.03em"><tspan x="-26.358" y="0">Donazioni</tspan></text>
    </g>
  </g>
</svg>
