<svg xmlns="http://www.w3.org/2000/svg" width="330.499" height="263.002" viewBox="0 0 330.499 263.002">
  <g id="Raggruppa_428" data-name="Raggruppa 428" transform="translate(-9168.001 -19140)">
    <path id="Coupon" d="M-1981-14504h-310a10.012,10.012,0,0,1-10-10v-124h.009a36.747,36.747,0,0,0,14.393-2.907,36.874,36.874,0,0,0,11.76-7.929,36.888,36.888,0,0,0,7.928-11.76A36.766,36.766,0,0,0-2264-14675a36.773,36.773,0,0,0-2.907-14.4,36.853,36.853,0,0,0-7.928-11.76,36.869,36.869,0,0,0-11.76-7.93A36.762,36.762,0,0,0-2301-14712v-45a10.01,10.01,0,0,1,10-10h310a10.01,10.01,0,0,1,10,10v45h-.009a36.75,36.75,0,0,0-14.394,2.907,36.87,36.87,0,0,0-11.761,7.93,36.857,36.857,0,0,0-7.93,11.76A36.776,36.776,0,0,0-2008-14675a36.762,36.762,0,0,0,2.908,14.4,36.879,36.879,0,0,0,7.93,11.76,36.878,36.878,0,0,0,11.761,7.929A36.768,36.768,0,0,0-1971-14638v124A10.012,10.012,0,0,1-1981-14504Z" transform="translate(11469 33907)" fill="#1d1d1b"/>
    <line id="Linea_45" data-name="Linea 45" x2="330" transform="translate(9168.5 19304.5)" fill="none" stroke="#fff" stroke-width="2" stroke-dasharray="15 20"/>
  </g>
</svg>
