<svg xmlns="http://www.w3.org/2000/svg" xmlns:xlink="http://www.w3.org/1999/xlink" width="375" height="308.002" viewBox="0 0 375 308.002">
  <defs>
    <filter id="Coupon" x="0" y="0" width="375" height="308.002" filterUnits="userSpaceOnUse">
      <feOffset input="SourceAlpha"/>
      <feGaussianBlur stdDeviation="7.5" result="blur"/>
      <feFlood flood-opacity="0.161"/>
      <feComposite operator="in" in2="blur"/>
      <feComposite in="SourceGraphic"/>
    </filter>
  </defs>
  <g id="Raggruppa_399" data-name="Raggruppa 399" transform="translate(0.499 -185.5)">
    <g transform="matrix(1, 0, 0, 1, -0.5, 185.5)" filter="url(#Coupon)">
      <path id="Coupon-2" data-name="Coupon" d="M-1981-14504h-310a10.012,10.012,0,0,1-10-10v-124h.009a36.747,36.747,0,0,0,14.393-2.907,36.874,36.874,0,0,0,11.76-7.929,36.888,36.888,0,0,0,7.928-11.76A36.766,36.766,0,0,0-2264-14675a36.773,36.773,0,0,0-2.907-14.4,36.853,36.853,0,0,0-7.928-11.76,36.869,36.869,0,0,0-11.76-7.93A36.762,36.762,0,0,0-2301-14712v-45a10.01,10.01,0,0,1,10-10h310a10.01,10.01,0,0,1,10,10v45h-.009a36.75,36.75,0,0,0-14.394,2.907,36.87,36.87,0,0,0-11.761,7.93,36.857,36.857,0,0,0-7.93,11.76A36.776,36.776,0,0,0-2008-14675a36.762,36.762,0,0,0,2.908,14.4,36.879,36.879,0,0,0,7.93,11.76,36.878,36.878,0,0,0,11.761,7.929A36.768,36.768,0,0,0-1971-14638v124A10.012,10.012,0,0,1-1981-14504Z" transform="translate(2323.5 14789.5)" fill="#1d1d1b"/>
    </g>
    <line id="Linea_34" data-name="Linea 34" x2="330" transform="translate(22.5 372.5)" fill="none" stroke="#dbdbdb" stroke-width="2" stroke-dasharray="15 20"/>
  </g>
</svg>
