<svg xmlns="http://www.w3.org/2000/svg" width="12.81" height="16.441" viewBox="0 0 12.81 16.441">
  <g id="Raggruppa_277" data-name="Raggruppa 277" transform="translate(-695.279 -889)">
    <path id="Tracciato_731" data-name="Tracciato 731" d="M707.17,929.52H696.2a.39.39,0,0,1-.416-.4l1.138-10.283a.4.4,0,0,1,.416-.333h8.7a.4.4,0,0,1,.416.333l1.138,10.283A.39.39,0,0,1,707.17,929.52Z" transform="translate(0 -24.578)" fill="none" stroke="#000" stroke-miterlimit="10" stroke-width="1"/>
    <path id="Tracciato_732" data-name="Tracciato 732" d="M718.5,893.922V891.94a2.44,2.44,0,0,1,2.44-2.44h0a2.44,2.44,0,0,1,2.44,2.44v1.982" transform="translate(-19.256)" fill="none" stroke="#000" stroke-miterlimit="10" stroke-width="1"/>
  </g>
</svg>
