<svg xmlns="http://www.w3.org/2000/svg" width="17.056" height="15.482" viewBox="0 0 17.056 15.482">
  <g id="Raggruppa_276" data-name="Raggruppa 276" transform="translate(-516.574 -918.177)">
    <g id="Raggruppa_275" data-name="Raggruppa 275" transform="translate(522.009 922.914)">
      <circle id="Ellisse_197" data-name="Ellisse 197" cx="3.049" cy="3.049" r="3.049" transform="translate(0 0)" fill="none" stroke="#0f80ff" stroke-miterlimit="10" stroke-width="1"/>
    </g>
    <path id="Tracciato_730" data-name="Tracciato 730" d="M526.211,919.7l.856-.627a1.878,1.878,0,0,1,2.976,1.718l-.115,1.055a1.878,1.878,0,0,0,1.109,1.921l.971.428a1.878,1.878,0,0,1,0,3.437l-.971.428a1.878,1.878,0,0,0-1.109,1.921l.115,1.055a1.878,1.878,0,0,1-2.976,1.718l-.856-.627a1.878,1.878,0,0,0-2.219,0l-.856.627a1.878,1.878,0,0,1-2.976-1.718l.115-1.055a1.878,1.878,0,0,0-1.109-1.921l-.971-.428a1.878,1.878,0,0,1,0-3.437l.971-.428a1.878,1.878,0,0,0,1.109-1.921l-.115-1.055a1.878,1.878,0,0,1,2.976-1.718l.856.627A1.878,1.878,0,0,0,526.211,919.7Z" fill="none" stroke="#0f80ff" stroke-miterlimit="10" stroke-width="1"/>
  </g>
</svg>
