<svg xmlns="http://www.w3.org/2000/svg" width="159.308" height="200.083" viewBox="0 0 159.308 200.083">
  <g id="Sloff" transform="translate(-332.431 -4473.469)">
    <g id="Sloth" transform="translate(332.431 4473.469)">
      <g id="Raggruppa_247" data-name="Raggruppa 247" transform="translate(10.215 182.558)">
        <g id="Raggruppa_240" data-name="Raggruppa 240" transform="translate(0 0.957)">
          <g id="Raggruppa_238" data-name="Raggruppa 238" transform="translate(0.658 0.566)">
            <path id="Tracciato_681" data-name="Tracciato 681" d="M368.673,5088.7l.043.954.116.974.437.9.055,1,.332.921.444.877.347.911.434.872.31.938.547.815.444.875.662.733.507.839.577.793.666.593-.242-.878-.308-.949-.033-1.016-.31-.949-.329-.948-.012-1.011L373,5095l-.091-1-.21-.977.082-1.014-.357-.967.112-1.007.038-.995-.025-.992.025-.988-.988.377-.991.375-1.012.333Z" transform="translate(-368.673 -5087.06)" fill="#fff"/>
          </g>
          <g id="Raggruppa_239" data-name="Raggruppa 239">
            <path id="Tracciato_682" data-name="Tracciato 682" d="M373.125,5101.069l-.4-.266-.61-.793-.8-.642-.423-.933-.587-.808-.625-.792-.469-.888-.483-.881-.283-.972-.454-.895-.267-.966-.438-.91-.18-.988-.178-.985-.382-.948-.068-1,.372-.69,1.058-.212.944-.487.934-.519,1.052-.233.622-.083.2.635-.012.976-.221.975.292.97-.111.987.031.982.165.968.2.961.133.973.146.969.115.978.45.9.193.958.215.955.136.975.375.909-.281.841Zm-5.343-13.307.083.976.15,1,.469.914.091,1.021.368.937.482.89.388.924.477.883.358.95.594.817.6.928-.251-1.029-.116-.942-.144-.934-.38-.89-.111-.942-.207-.926.078-.966-.2-.929-.206-.933.131-.956-.207-.942.126-.917-.829.417-.945.168Z" transform="translate(-366.48 -5085.175)" fill="#333"/>
          </g>
        </g>
        <g id="Raggruppa_243" data-name="Raggruppa 243" transform="translate(4.689 2.025)">
          <g id="Raggruppa_241" data-name="Raggruppa 241" transform="translate(0.611 0.662)">
            <path id="Tracciato_683" data-name="Tracciato 683" d="M384.146,5093.057l.383.89.2.957.447.868.161.992.529.83.412.887.545.813.43.885.6.774.6.775.776.622.532.831.8.581.55.839.907.656-.515-.994-.42-.9-.437-.9-.346-.935-.29-.955-.382-.92-.112-1.012-.335-.937-.295-.95-.346-.938-.135-.993-.144-.984-.22-.969-.125-.984-.11-.941-.958.433-.812.707-.916.534Z" transform="translate(-384.146 -5090.942)" fill="#fff"/>
          </g>
          <g id="Raggruppa_242" data-name="Raggruppa 242">
            <path id="Tracciato_684" data-name="Tracciato 684" d="M390.482,5104.236l-.473-.039-.686-.746-.8-.613-.524-.891-.755-.666-.6-.806-.654-.76-.479-.886-.581-.814-.511-.859-.65-.791-.293-.974-.551-.858-.14-1.021-.271-.958-.4-.921.269-.692.875-.6.919-.527.943-.489.886-.585.608.179.295.427.074.979.21.96.067.982.144.974.285.94.262.945.382.909.186.97.5.865.32.924.25.95.267.948.3.935.578.818.192.982-.126.609Zm-7.07-12.434.424.9.235.978.482.882.2,1.012.566.838.453.9.586.818.477.893.647.774.646.772.687.57-.288-.754-.484-.829-.1-.969-.263-.908-.436-.852-.316-.894-.329-.893-.227-.922-.159-.937-.241-.92.058-.969-.22-.984-.817.495-.761.552Z" transform="translate(-382.109 -5088.736)" fill="#333"/>
          </g>
        </g>
        <g id="Raggruppa_246" data-name="Raggruppa 246" transform="translate(8.772)">
          <g id="Raggruppa_244" data-name="Raggruppa 244" transform="translate(0.611 0.542)">
            <path id="Tracciato_685" data-name="Tracciato 685" d="M397.755,5085.9l.093.892.422.888.413.881.348.908.419.878.324.932.511.835.7.71.332.957.754.655.56.8.671.709.671.708.649.737.8.579-.413-.909-.489-.876-.3-.951-.238-.974-.262-.962-.418-.905-.44-.9-.121-1.005-.424-.914-.285-.957-.007-1.022-.478-.918-.136-.993.035-1.008-.077-.885-.935.437-.955.465-.9.57Z" transform="translate(-397.755 -5083.792)" fill="#fff"/>
          </g>
          <g id="Raggruppa_245" data-name="Raggruppa 245">
            <path id="Tracciato_686" data-name="Tracciato 686" d="M403.987,5097.379l-.375-.221-.693-.728-.857-.552-.754-.672-.488-.911-.743-.687-.556-.837-.5-.868-.693-.748-.5-.874-.4-.924-.415-.911-.448-.9-.316-.953-.431-.914-.1-1.006.259-.58.942-.488.827-.685,1.018-.361.914-.538.48-.039.433.427-.109.986.236.959.259.945.026.994.347.923.263.941.111.989.395.9.182.972.338.921.406.9.254.954.42.889.458.868.355.911-.256.624Zm-6.993-12.471.232.908.254.977.557.855.485.874.243,1,.616.805.48.882.5.876.749.692.628.779.622.8-.312-.907-.38-.867-.274-.905-.422-.856-.137-.951-.272-.9-.2-.924-.4-.874-.014-.966-.186-.923-.189-.923-.189-.848-.866.32-.747.574Z" transform="translate(-395.718 -5081.985)" fill="#333"/>
          </g>
        </g>
      </g>
      <path id="Tracciato_687" data-name="Tracciato 687" d="M357.7,4689.458c0,.433-.365.552-.4.953-.037.432-.015.833-.089,1.229a10.722,10.722,0,0,1-.24,1.21,9,9,0,0,1-.456,1.145,7.89,7.89,0,0,1-.622,1.058,13.945,13.945,0,0,1-1.646,1.8c-.333.255-.541.7-.907.9a8.648,8.648,0,0,1-1.138.575c-.391.14-.879-.026-1.289.061a9.945,9.945,0,0,1-1.217.267,10.766,10.766,0,0,1-1.246-.038,11.473,11.473,0,0,1-1.227-.181c-.412-.06-.913.278-1.317.175s-.713-.559-1.1-.7a11.681,11.681,0,0,1-1.2-.38,11,11,0,0,1-1.008-.752,9.768,9.768,0,0,1-.889-.863,9.146,9.146,0,0,1-1-.732,7.894,7.894,0,0,1-.746-.986c-.205-.315-.238-.763-.451-1.175-.179-.347-.576-.613-.759-1.025-.161-.364-.584-.648-.747-1.06-.148-.374-.074-.856-.223-1.267q-.207-.573-.412-1.191c-.129-.388-.321-.769-.448-1.181-.121-.392-.311-.776-.431-1.19-.115-.4.063-.882-.05-1.3-.108-.4-.2-.807-.305-1.222s-.1-.831-.2-1.246-.219-.8-.313-1.22-.418-.762-.507-1.179.1-.873.012-1.29-.452-.763-.53-1.181.115-.871.04-1.289-.4-.779-.47-1.2.1-.863.035-1.282-.323-.8-.383-1.217-.24-.814-.3-1.233-.074-.837-.125-1.257-.2-.824-.242-1.244-.2-.826-.242-1.246-.1-.838-.136-1.258-.049-.842-.082-1.263.07-.851.043-1.271.208-.854.185-1.276-.208-.832-.226-1.253-.141-.838-.154-1.259.184-.846.177-1.268-.293-.84-.295-1.261.363-.842.367-1.263-.138-.843-.128-1.264.172-.836.188-1.257-.376-.86-.355-1.28.4-.821.432-1.241-.14-.855-.106-1.274-.092-.858-.051-1.276.345-.813.393-1.23.027-.847.083-1.263.222-.82.286-1.235.135-.832.207-1.246.089-.841.169-1.252.4-.777.484-1.187.2-.81.3-1.214-.17-.909-.062-1.312.141-.837.258-1.237.718-.658.844-1.056,0-.88.136-1.274.342-.77.486-1.16.449-.725.6-1.112.12-.855.28-1.239.528-.684.7-1.064.251-.8.427-1.181.212-.829.4-1.2.253-.815.444-1.184.665-.6.863-.963.482-.689.687-1.05.073-.93.284-1.286.686-.569.9-.921.475-.692.7-1.04.473-.693.7-1.036.5-.671.741-1.01.213-.881.455-1.215.643-.575.891-.9.484-.692.737-1.016.283-.858.54-1.176c.27-.333.528-.67.79-.982.277-.331.917-.335,1.184-.641.285-.327.422-.761.692-1.06.294-.325.583-.627.857-.917.3-.323.485-.732.76-1.012.318-.325.738-.5,1.01-.764.346-.337.819-.443,1.076-.681.593-.55.659-.37.967-.915.057-.419-.384-1-.333-1.4s.4-.8.445-1.206-.207-.866-.165-1.274.276-.816.312-1.225.028-.84.059-1.249.2-.828.226-1.236,0-.841.015-1.25-.226-.848-.212-1.257.224-.832.232-1.241c.008-.424.392-.838.393-1.248s-.2-.842-.208-1.251-.368-.83-.381-1.239c-.013-.424.148-.845.129-1.254s-.135-.832-.162-1.241-.044-.836-.077-1.245-.11-.83-.149-1.238.143-.856.1-1.265.019-.847-.031-1.255-.1-.833-.158-1.242-.2-.818-.259-1.227-.457-.779-.516-1.187.456-.908.4-1.318-.163-.818-.22-1.229-.509-.771-.562-1.184-.215-.814-.262-1.228-.079-.831-.119-1.247.219-.853.187-1.271.168-.837.146-1.257-.133-.816-.146-1.237.105-.839.106-1.256-.486-.849-.479-1.265-.059-.851-.045-1.267.6-.82.618-1.236-.107-.849-.079-1.264-.307-.872-.272-1.287.341-.818.384-1.232.243-.82.294-1.233.109-.834.169-1.246.191-.821.26-1.231-.261-.9-.184-1.313.33-.8.417-1.2.262-.805.359-1.209.057-.857.164-1.258.328-.785.446-1.184.367-.767.495-1.163-.054-.909.085-1.3.611-.674.761-1.061-.068-.938.094-1.321.613-.655.786-1.032.369-.756.554-1.128.161-.869.358-1.234.394-.753.6-1.112.628-.609.85-.96.56-.637.794-.98.155-.925.4-1.26.614-.6.872-.925.485-.7.755-1.015.848-.373,1.13-.679.3-.877.593-1.172.772-.416,1.076-.7.68-.5.994-.77.393-.844.717-1.1.616-.594.95-.844.783-.367,1.125-.6.8-.321,1.15-.545.6-.632.96-.844.775-.349,1.14-.548.71-.468,1.082-.654.747-.4,1.125-.578.858-.149,1.241-.31.708-.5,1.1-.653.885-.039,1.277-.176.724-.5,1.118-.625.857-.091,1.255-.2.832-.155,1.232-.255c.415-.1.752-.506,1.154-.595.42-.093.816-.283,1.219-.36.424-.082.926.336,1.328.271.428-.07.772-.623,1.173-.676.434-.058.9.3,1.3.262.442-.046.839-.311,1.232-.341.454-.034.889.229,1.272.212.482-.021.9-.2,1.249-.206.805-.006.636-.215,1.263-.187.424.011.823.478,1.239.5s.853-.2,1.268-.171.844.027,1.259.063.865-.141,1.279-.1.8.469,1.208.523.818.218,1.229.282.918-.371,1.328-.3.824.219,1.232.3.792.344,1.2.437.764.42,1.167.524.873,0,1.273.11.82.205,1.217.33.753.408,1.147.544.756.378,1.145.524.888.041,1.273.2.685.54,1.065.708.823.222,1.2.4.771.343,1.141.534.692.49,1.056.692.718.436,1.075.649.718.435,1.068.659.85.244,1.193.478.543.694.879.939.726.434,1.055.689.646.539.967.8.767.4,1.079.676.713.478,1.016.762.458.746.753,1.039.554.637.84.938.745.464,1.022.774.582.62.849.937.433.743.691,1.067.7.531.951.862.1.973.344,1.31.9.407,1.132.749.379.772.6,1.12.436.733.647,1.085c.221.369.35.782.551,1.139.212.375.248.833.44,1.192s.587.622.77,1.03c.164.366.065.862.226,1.273.147.377.28.771.425,1.183.135.385.682.646.814,1.06.125.39-.187.928-.064,1.342.117.395.523.715.638,1.13.111.4-.051.877.058,1.292s.25.8.353,1.211.254.8.353,1.213.126.829.221,1.245.465.754.556,1.169.266.8.354,1.217.031.851.116,1.267.272.8.355,1.217-.233.9-.152,1.317.169.822.247,1.238.143.827.22,1.243.5.763.579,1.179.263.808.336,1.223.1.838.168,1.254-.349.913-.279,1.329.187.822.256,1.238.358.8.425,1.21.427.787.493,1.2.018.853.083,1.268-.278.9-.214,1.313.3.808.364,1.222.137.833.2,1.248.363.8.426,1.214-.326.905-.264,1.318.527.777.589,1.19.143.836.2,1.248.048.851.109,1.261-.206.888-.145,1.3.66.761.721,1.17c.063.425-.017.862.044,1.27.064.427.276.82.338,1.226.065.429-.063.875,0,1.278.067.431.272.824.336,1.223.069.435-.065.882,0,1.276.07.422-.108.9,0,1.3s.242.832.38,1.229.322.8.491,1.186.622.64.819,1.016.22.841.44,1.206.429.729.667,1.084.791.469,1.041.816.172.916.432,1.255.625.576.891.911.485.684.755,1.016.487.684.759,1.014.418.74.689,1.071.7.507.971.84.656.548.923.882.615.584.878.922.426.733.684,1.075.445.716.7,1.062.354.777.6,1.127.373.758.611,1.113.422.72.654,1.08.572.625.8.991.381.745.6,1.115.677.578.885.952.492.691.691,1.07.346.77.537,1.152.354.765.536,1.152.023.911.2,1.3.571.664.737,1.058.3.785.454,1.183.49.712.64,1.113.049.876.191,1.28.049.867.184,1.273.721.649.848,1.058.231.81.351,1.22.07.854.183,1.268.449.752.554,1.167-.255.929-.156,1.345.646.713.74,1.131-.122.9-.037,1.31.144.839.223,1.252.133.84.206,1.253.217.826.283,1.241.374.806.434,1.222.019.859.072,1.275-.189.879-.143,1.3.234.831.271,1.248.324.83.354,1.248-.2.867-.179,1.286.2.845.209,1.263-.182.856-.177,1.275.374.854.369,1.272-.437.844-.452,1.263.192.861.169,1.279-.022.855-.056,1.272-.469.81-.513,1.226.35.9.295,1.313-.087.853-.153,1.266-.142.846-.219,1.257-.539.761-.628,1.17-.156.834-.257,1.241-.162.835-.275,1.237-.294.8-.419,1.2-.234.815-.372,1.209.08.939-.07,1.329-.536.708-.7,1.092-.066.909-.242,1.288-.7.615-.886.987-.513.689-.714,1.054-.474.7-.687,1.06-.244.849-.47,1.2-.565.646-.8.986-.141.961-.392,1.29c-.262.346-.953.34-1.216.659-.277.336-.19.968-.464,1.275-.291.327-.787.449-1.072.745-.3.316-.738.472-1.032.753-.32.307-.319.934-.622,1.2-.337.3-.626.629-.935.878-.359.288-.888.3-1.2.53a12.691,12.691,0,0,1-1.147.561c-.684.44-.361.608-.991.678s-.625.323-1.262.314-.634-.269-1.273-.277-.64.135-1.279.126-.635-.2-1.274-.208-.64.092-1.277.084-.639.062-1.277.054-.636-.131-1.274-.14-.635-.225-1.273-.233-.644.473-1.283.464-.635-.267-1.273-.275-.641.189-1.279.181-.64.137-1.278.128-.632-.489-1.27-.5-.638.013-1.276,0-.638-.056-1.276-.064-.642.3-1.281.293-.636-.182-1.274-.19-.636-.136-1.274-.144-.637-.067-1.275-.075-.638,0-1.276-.011-.638-.027-1.276-.036-.642.282-1.281.273-.637-.066-1.275-.075-.642.258-1.28.25-.637-.073-1.276-.082-.638-.015-1.276-.023-.64.088-1.278.079-.631-.488-1.269-.5-.641.229-1.278.22-.635-.178-1.273-.187-.641.28-1.279.272-.633-.332-1.271-.34-.64.111-1.278.1-.641.183-1.279.175-.64.13-1.278.122-.637-.055-1.275-.063-.638.047-1.276.038-.635-.237-1.273-.246-.636-.179-1.275-.188-.638-.05-1.276-.059-.638.006-1.276,0-.643.394-1.281.386-.633-.406-1.271-.415-.638-.059-1.277-.067-.642.245-1.28.236-.637-.126-1.275-.135-.638-.064-1.276-.073-.639.005-1.277,0-.639.044-1.277.035-.643.313-1.281.3-.634-.328-1.273-.337-.637-.14-1.275-.149-.639.019-1.277.01-.641.129-1.279.12-.639.007-1.277,0-.636-.186-1.275-.194-.645.438-1.283.429-.633-.39-1.272-.4-.643.322-1.282.313-.636-.181-1.274-.189-.638-.034-1.277-.043-.641.174-1.279.166-.636-.231-1.275-.24-.64.119-1.279.11-.637-.145-1.276-.153-.643.25-1.282.241-.64.069-1.279.06-.637-.164-1.276-.172-.639.02-1.278.011-.635-.3-1.274-.313-.642.16-1.281.151-.639,0-1.279.013A2.715,2.715,0,0,0,357.7,4689.458Z" transform="translate(-332.431 -4510.268)" fill="#333"/>
      <g id="Tracciato" transform="translate(19.748 0)">
        <g id="Raggruppa_251" data-name="Raggruppa 251">
          <g id="Raggruppa_248" data-name="Raggruppa 248">
            <path id="Tracciato_688" data-name="Tracciato 688" d="M427.412,4519.4c-6.505,2.705-14.329,7.409-18.839,13.095a42.15,42.15,0,0,0-8.932,29.984,40.608,40.608,0,0,0,15.452,28.823,42.148,42.148,0,0,0,30,8.878,41.549,41.549,0,0,0,23.416-72.854,43.863,43.863,0,0,0-20.4-10.086Z" transform="translate(-399.103 -4504.107)" fill="#fff"/>
            <path id="Tracciato_689" data-name="Tracciato 689" d="M529.468,4656.165l1.049.971.028,1.427-.307,1.338-.991.951-1,.924-1.27.5-1.259.56-1.374.08-1.343.119-1.308-.333-1.316-.238-1.187-.632-.8-1.069-.6-1.147-.29-1.289.842-1.028,1.2-.857,1.309-.687,1.376-.6,1.473-.345,1.508.152,1.506.024,1.467.367Z" transform="translate(-481.731 -4600.404)" fill="#333"/>
            <path id="Tracciato_690" data-name="Tracciato 690" d="M482.217,4523.669l-.23-1.046-.172-1.051-.166-1.051-.148-1.056-.179-1.052L481,4517.4l-.232-1.041-.161-1.066-.3-1.027-.477-.965-.409-.986-.269-1.046-.59-.907-.561-.912-.385-1-.52-.931-.586-.892-.361-1.029-.578-.9-.677-.832-.743-.778-.559-.913-.7-.809-.624-.87-.719-.789-.739-.771-.673-.836-.9-.606-.718-.794-.906-.583-.676-.855-.884-.667-.881-.671-.964-.553-.961-.548-.85-.722-.994-.491-.934-.594-1.007-.459-.918-.638-.988-.5-1.081-.29-1.046-.358-1.046-.352-1.036-.378-1.055-.325-1.066-.284-1.022-.469-1.073-.28-1.012-.125.575-.723.651-.794.71-.747.877-.552.688-.8.979-.393.878-.528.831-.613.792-.414-.93-.224-1.085-.157-1.093-.09-1.087-.136-1.1.051-1.092-.055-1.106-.2-1.085.226-1.077.212-1.1.079-1.067.254-1.093.16-.937.4-.394-.948-.039-1.044.164-1.029.086-1.045.467-.954.143-1.042.481-.931.4-1.053-1.182.279-1.036.4-.925.643-.969.517-1.059.372-.8.791-.988.521-.888.67-.745.825-.7.86-.661.883-.53.966-.7.874-.344,1.094-1.154-.124-1.074-.383-1.117-.1-1.123-.009-1.123.039-1.116.132-1.094.259-1.079.3-1.061.352-.962.583-1.02.434-1.074.375-.845.75-.917.746,1.129-.138,1.026.3,1.05.069,1,.315.945.452.95.439.877.57.815.6-.921.549-1.009.415-.974.493-1.008.43-.879.663-1.059.357-.911.609-.824.733-.9.622-1,.492-.705.872-.99.52-.8.755-.688.866-.784.759-.785.759-.747.8-.7.837-.859.709-.514.956-.621.866-.689.819-.546.917-.572.9-.62.872-.558.911-.451.97-.391,1-.516.935-.458.963-.381,1-.316,1.02-.539.94-.365,1.006-.175,1.063-.321,1.018-.168,1.057-.275,1.031-.311,1.028-.143,1.06-.126,1.061-.074,1.066-.13,1.061.019,1.07.027,1.067-.017,1.064-.063,1.067.189,1.058.066,1.062.027,1.066-.094,1.086.208,1.051.247,1.042.325,1.023.01,1.089.343,1.016.383,1,.13,1.075.352,1.01.394.994.41.986.442.971.492.947.362,1.008.551.916.566.9.364,1.021.66.847.583.892.528.931.549.921.757.766.63.862.609.885.835.687.652.851.7.809.931.573.625.9.95.535.837.659.689.848.947.518.806.707.9.569.857.644,1,.4.951.482.944.491.84.7.979.432.949.5,1.077.191.994.381.933.562,1.047.236,1.065.158,1,.386,1.058.158,1.036.245,1.044.206,1.046.2,1.065.072,1.038.318,1.072,0,1.064.085,1.066.057,1.068.007,1.065-.116,1.066-.009,1.056-.165,1.06-.094,1.055-.135,1.06-.1,1.073-.044,1.065-.12,1.016-.355,1.006-.37,1.021-.3,1.058-.178.988-.408,1-.374,1.073-.184.977-.436,1-.377.949-.5.937-.515.967-.46.883-.608.878-.608.932-.522.821-.688.99-.453.7-.84.817-.682.854-.639.926-.565.689-.828.784-.725.663-.842.891-.631.584-.91.724-.786.681-.823.541-.928.742-.781.407-1.013.687-.825.611-.878.392-1,.659-.856.287-1.05.637-.877.382-1,.277-1.038.57-.923.379-1,.2-1.058.463-.976.288-1.03.065-1.083.377-1.01.181-1.053.179-1.054.137-1.06.038-1.069.13-1.06-.038-1.07.111-1.062-.009-1.066-.087-1.064-.081-1.061v-1.067Zm-10.53,21.411-.44,1-.542.94-.6.9-.662.86-.683.842-.61.9-.732.8-.83.707-.761.763-.674.852-.768.761-.909.6-.72.822-.782.759-.937.555-.882.627-.875.642-1.043.365-.94.527-.914.581-.909.606-1.032.345-.986.447-1.042.3-1.017.364-1.028.332-1.069.185-1.005.44-1.079.128-1.037.349-1.1-.062-1.069.152-1.053.085-1.05.17-1.058.113-1.06-.154-1.061.058-1.054-.122-1.061-.03-1.031-.288-1.037-.2-1.069-.028-1.049-.164-1.039-.219-1.016-.305-1.015-.309-1.009-.327-.92-.562-.962-.433-.975-.4-.976-.406-.967-.432-.1.012-1.259-.872-.446-.007-.935-.855-.525-.367-.8-.4-.643-.34-.776-.768-.7-.543-.328-.215-.616-.6-.7-.507-.1-.162-.558-.88-.8-.633-.746-.7.05-.09-.037,0-.654-.949-.73-.882-.79-.847-.43-.972-.269-1.024-.33-1.016.1-1.073-.169-1.054.256-1.035.256-1.014.353-1.032.44-1,.4-1.051.668-.851.916-.591.7-.836.986-.456.947-.489.9-.57.928-.531.955-.48.93-.536,1.047-.279.916-.567.934-.522,1.065-.257.961-.478.932-.533.92-.556.878-.624.8-.726.751-.768.686-.825.43-.986.508-.924.547-.956.091-1.089.171-1.069-.2-1.071.08-1.093-.363-1.025-.324-1.024-.383-1.01-.575-.914-.611-.888-.7-.824-.879-.631-.809-.7-.905-.566-.915-.565-1.05-.248-.972-.514-1.073-.158-1.083.066-1.07,0-1.094-.1-.1.263-1.132-.031-1.069.315-1,.5-1.023.408-1.007.451-.963.539-.906.63-1.007.509-.712.873-.764.795-.794.772-.626.912-.613.917-.625.915-.524.979-.371,1.046-.369,1.149.14-1.175.234-1.053.211-1.058.2-1.063.488-.98.366-1.011.236-1.059.437-.986.347-1.024.5-.956.586-.909.486-.959.524-.939.531-.937.629-.875.556-.926.6-.9.682-.838.761-.769.618-.9.753-.776.821-.706.94-.569.773-.748.788-.736.78-.756L420,4498.8l-.038-.084.523-.483.955-.4.318-.223.919-.59.942-.554.956-.532.961-.528,1.045-.341.987-.479,1.006-.44,1.1-.162,1.013-.43,1.058-.285,1.086-.161,1.088-.122,1.055-.317,1.09-.1,1.093-.01,1.073-.249,1.094.055,1.088.052,1.094-.217,1.077.288,1.1-.138,1.09.089,1.047.387,1.1.031,1.046.323,1.068.215,1.03.359,1.094.146,1.053.3,1.031.366.918.637,1.007.412.95.533,1.076.291.955.53.824.745.971.5.988.488.818.732.922.593.831.71.816.726.777.768.828.716.606.929.8.749.686.847.66.867.652.872.7.838.568.935-.016-.077.535.879.526.9.449.937.342.986.358.972.526.9.391,1.092-.7-.97-.509-.958-.737-.791-.739-.781-.631-.9-.849-.68-.838-.7-.938-.556-.967-.5-.96-.514-1.043-.317-1.049-.269-1.034-.324-1.082-.085-1.055-.327-1.092.2-1.073.048-.133-.055-1.094-.078-1.036.339-1.043.27-.957.5-1.063.292-.821.723-.874.631-.788.74-.595.9-.731.8-.316,1.051-.545.928-.394,1.005-.074,1.082-.3,1.046.2,1.075-.107,1.083.26,1.047.45.977.244,1.062.523.948.759.766.638.875.843.676,1.007.41.876.63.992.41,1,.377,1.022.318,1.051.214,1.025.3,1.063.15,1.025.313,1.047.219,1.058.176,1.048.221,1.016.347.968.486,1.043.245.939.512,1.051.286.8.728.906.567.658.843.785.748.433.989.52.969.147,1.1.35,1.039.129,1.089-.2,1.086-.1,1.059-.221,1.157-.68.97Z" transform="translate(-398.255 -4473.469)" fill="#333"/>
          </g>
          <g id="Raggruppa_250" data-name="Raggruppa 250" transform="translate(23.065 59.759)">
            <path id="Tracciato_691" data-name="Tracciato 691" d="M523.685,4716.246c-.118-.051-.238-.1-.361-.151-.069-.028-.141-.054-.212-.081-.1-.04-.211-.079-.32-.116-.078-.027-.157-.054-.236-.08-.109-.036-.22-.069-.332-.1l-.244-.07c-.124-.034-.252-.065-.38-.1l-.023-.005c-.067-.017-.132-.034-.2-.048-.2-.045-.406-.086-.616-.122-.052-.009-.107-.016-.16-.024-.165-.026-.331-.051-.5-.072-.085-.01-.172-.018-.259-.026-.144-.015-.29-.028-.439-.039-.094-.006-.189-.011-.285-.016-.149-.007-.3-.012-.454-.015-.1,0-.19,0-.286,0-.174,0-.351.005-.529.013-.079,0-.156,0-.236.008q-.387.021-.789.063c-.053.005-.107.015-.161.021-.219.025-.44.055-.665.09-.1.015-.193.034-.29.051-.2.035-.4.072-.611.116l-.209.045c-.281.063-.565.131-.855.21l-.068.02c-.271.075-.547.16-.826.25l-.222.073c-.3.1-.609.209-.922.33l-.038.015c-.3.116-.6.243-.911.376l-.244.107c-.324.145-.65.3-.983.461l-.021-.013-.012-.007-.054-.032-.026-.015-.083-.045-.039-.02-.141-.071-.016-.008c-.06-.029-.127-.06-.2-.092l-.04-.018-.151-.064-.038-.016-.075-.03c-.062-.024-.127-.049-.194-.073l-.085-.03c-.076-.027-.156-.053-.238-.079l-.068-.021c-.109-.033-.222-.065-.341-.1l-.023-.006c-.108-.027-.22-.052-.335-.076l-.107-.021c-.092-.018-.185-.034-.281-.049l-.13-.019c-.1-.013-.2-.024-.3-.034-.041,0-.082-.009-.124-.012-.134-.011-.272-.019-.413-.022h-.024c-.149,0-.3,0-.458.006-.043,0-.087.006-.13.008q-.169.01-.342.028l-.169.021c-.109.014-.218.032-.329.052-.067.012-.134.023-.2.038l-.131.029q-.148.034-.3.075l-.117.032c-.138.041-.277.085-.417.135l-.032.012c-.129.047-.259.1-.389.155l-.124.056c-.1.046-.21.1-.316.15l-.128.065q-.19.1-.382.214l-.052.03c-.146.088-.292.183-.438.284-.038.026-.075.054-.112.081-.11.078-.22.159-.33.246l-.139.11c-.112.09-.224.186-.337.284-.036.032-.072.062-.108.094-.146.133-.293.272-.439.419-.029.028-.058.061-.086.09q-.177.182-.353.378c-.047.053-.094.106-.141.161l-.03.036c-.094.11-.189.222-.283.339-.044.054-.089.108-.133.165-.144.184-.288.374-.431.575l0,0h0a10.465,10.465,0,0,0-1.613,3.461,11.3,11.3,0,0,0-.241,1.229c-.043.3-.078.6-.1.9a13.319,13.319,0,0,0-.01,1.577,15.727,15.727,0,0,0,.243,2.031,19.12,19.12,0,0,0,.629,2.452,23.157,23.157,0,0,0,1.89,4.256c.093.163.173.3.236.4.094.154.149.236.15.238h0l3.373-1.267-.312-.964a1.908,1.908,0,0,1-.026-1.092,1.941,1.941,0,0,1,.126-.335,1.908,1.908,0,0,1,.186-.306c.018-.024.042-.044.061-.068a1.953,1.953,0,0,1,.674-.518c.048-.022.091-.05.141-.068h0a1.837,1.837,0,0,1,.293-.082c.016,0,.031,0,.046,0,.048-.009.1-.011.145-.016a1.893,1.893,0,0,1,.216-.01c.05,0,.1.006.148.011a1.809,1.809,0,0,1,.206.03c.049.01.1.023.144.037a1.94,1.94,0,0,1,.193.068c.046.02.091.039.135.062a1.858,1.858,0,0,1,.179.1c.04.027.082.052.12.082a1.89,1.89,0,0,1,.162.144c.034.032.068.062.1.1a1.957,1.957,0,0,1,.147.194c.022.033.048.062.068.1a1.9,1.9,0,0,1,.161.336l.082.227.221.616,3.855-1.448a11.662,11.662,0,0,1-.6-2.192c-.043-.24-.082-.5-.113-.762s-.056-.547-.071-.836-.019-.588-.012-.894.029-.62.066-.938.089-.641.16-.966q.053-.243.121-.488a8.7,8.7,0,0,1,.335-.979c.028-.066.06-.133.089-.2a8.26,8.26,0,0,1,.383-.77,8.382,8.382,0,0,1,1.007-1.4,9.313,9.313,0,0,1,1.367-1.251c.017-.013.031-.027.049-.04h0c.262-.195.523-.375.783-.549.082-.054.163-.1.245-.157.183-.118.365-.231.547-.339.088-.052.176-.1.265-.154.186-.106.37-.206.555-.3.073-.038.146-.079.219-.115.254-.127.507-.248.758-.357l.081-.034c.224-.1.447-.187.668-.27.078-.03.155-.057.233-.085.172-.062.344-.121.514-.176l.242-.076q.268-.08.531-.149c.062-.016.125-.035.186-.05.234-.058.465-.11.693-.155l.021,0,.088-.015c.208-.04.413-.074.616-.1l.212-.029.061-.007a17.239,17.239,0,0,0,2.589-2.154Z" transform="translate(-490.373 -4702.424)" fill="#fff"/>
            <g id="Raggruppa_249" data-name="Raggruppa 249">
              <path id="Tracciato_692" data-name="Tracciato 692" d="M517.958,4681.155a.948.948,0,0,0-1.431-.782,38.548,38.548,0,0,1-32.582,3.37.942.942,0,0,0-1.238,1.041,14.6,14.6,0,0,0,6.284,10c-.277.328-.549.671-.812,1.042-2.243,3.15-2.742,7.209-1.445,11.738a23.118,23.118,0,0,0,2.612,5.86l.41.618.694-.261,3.373-1.267.833-.313-.274-.847-.312-.964a.98.98,0,0,1,.6-1.226,1.042,1.042,0,0,1,.151-.042.988.988,0,0,1,1.113.633l.3.843.32.89.885-.333,3.855-1.449.9-.338-.367-.89c-.112-.272-2.687-6.77,2.479-10.613a16.443,16.443,0,0,1,3.019-1.793q.4-.179.8-.334a19.949,19.949,0,0,0,2.292-1.2h0a16.253,16.253,0,0,0,3.436-2.7h0l.041-.043c.479-.493.748-.829.748-.829l-.007,0A13.855,13.855,0,0,0,517.958,4681.155Zm-9.856,13.6c-.078.028-.155.055-.233.084q-.332.126-.668.271l-.081.034c-.25.11-.5.23-.758.357-.073.037-.146.077-.219.115-.185.1-.369.2-.555.3-.088.05-.176.1-.265.154-.181.108-.364.222-.547.339-.082.053-.163.1-.244.158-.26.173-.521.354-.783.549h0c-.017.013-.031.027-.049.04a9.314,9.314,0,0,0-1.367,1.252,8.038,8.038,0,0,0-1.39,2.17c-.029.066-.062.133-.089.2a8.7,8.7,0,0,0-.335.979q-.067.245-.121.489c-.071.325-.123.647-.16.965s-.058.632-.066.938,0,.6.012.895.04.568.071.836.07.522.113.762a11.666,11.666,0,0,0,.6,2.192l-3.855,1.448-.221-.616h0l-.082-.227a1.9,1.9,0,0,0-.161-.336c-.02-.034-.046-.063-.068-.1a1.8,1.8,0,0,0-.147-.194c-.031-.035-.066-.065-.1-.1a1.882,1.882,0,0,0-.162-.144c-.038-.029-.079-.056-.12-.082a1.974,1.974,0,0,0-.179-.105c-.044-.022-.089-.042-.135-.061a1.826,1.826,0,0,0-.194-.069c-.048-.014-.1-.027-.144-.037a1.929,1.929,0,0,0-.206-.031c-.049,0-.1-.01-.148-.011a1.893,1.893,0,0,0-.216.01c-.048,0-.1.007-.145.015-.016,0-.031,0-.047,0a1.948,1.948,0,0,0-.293.083h0c-.05.018-.093.045-.141.068a1.938,1.938,0,0,0-.673.518c-.019.023-.043.043-.061.067a1.977,1.977,0,0,0-.186.307,1.938,1.938,0,0,0-.126.335,1.91,1.91,0,0,0,.026,1.092l.312.964-3.373,1.268h0s-.055-.083-.15-.238c-.063-.1-.143-.236-.236-.4a23.159,23.159,0,0,1-1.89-4.256,19.12,19.12,0,0,1-.629-2.452,15.716,15.716,0,0,1-.243-2.031,13.306,13.306,0,0,1,.01-1.577c.02-.3.055-.6.1-.9a11.27,11.27,0,0,1,.241-1.229,10.494,10.494,0,0,1,.792-2.1,10.605,10.605,0,0,1,.822-1.359h0l0,0c.143-.2.287-.391.431-.575.044-.057.089-.11.133-.165.094-.117.188-.229.283-.339l.03-.036c.047-.054.094-.108.141-.16.117-.132.235-.257.353-.378.029-.029.057-.061.086-.09.146-.147.293-.286.439-.419.036-.033.072-.062.108-.094q.168-.149.337-.284l.139-.11q.165-.129.33-.246l.112-.08c.146-.1.292-.2.438-.284l.052-.03q.192-.114.382-.214l.128-.065c.106-.054.211-.1.316-.15l.124-.056c.13-.056.26-.108.389-.155l.032-.012c.14-.051.279-.095.417-.135l.117-.032c.1-.027.2-.053.3-.075l.131-.029c.068-.015.134-.025.2-.038q.166-.03.329-.052l.169-.021c.115-.013.229-.022.342-.029l.13-.008c.155-.007.308-.009.457-.006h.024c.141,0,.278.011.413.022l.124.012c.1.009.2.021.3.034l.13.019q.143.022.28.048l.107.021c.115.023.227.049.335.076l.023.005c.118.03.232.063.34.1l.068.022c.082.025.162.052.238.079l.085.03c.067.024.133.049.194.073l.024.009c-.091.064-.183.127-.272.2a11.4,11.4,0,0,0-2.877,3.426,13.4,13.4,0,0,0-1.487,4.138,27.813,27.813,0,0,1,2.114-3.749,13.864,13.864,0,0,1,2.83-3.069,9.73,9.73,0,0,1,1.6-1l.189-.083c.308-.133.612-.261.911-.376l.038-.015c.312-.121.619-.228.922-.33l.222-.073c.279-.09.555-.174.826-.25l.067-.02c.29-.079.575-.147.855-.21l.209-.045c.206-.044.409-.082.611-.117.1-.017.195-.035.29-.05.225-.035.447-.064.665-.09.053-.006.108-.015.161-.021.268-.028.531-.048.789-.062.08,0,.157-.005.236-.008.178-.007.355-.012.529-.013.1,0,.191,0,.286,0,.153,0,.3.007.454.015.1,0,.191.01.285.016.148.011.294.024.439.039.086.009.174.017.259.026.171.021.338.045.5.072l.16.024c.21.037.415.078.616.122.068.015.134.032.2.049l.022.005c.128.031.256.062.38.1.083.022.163.046.244.07q.168.05.332.1l.236.079c.065.022.128.047.192.07a28.977,28.977,0,0,1-4.529,3.107h.006C508.377,4694.66,508.24,4694.706,508.1,4694.755Z" transform="translate(-480.426 -4677.964)" fill="#333"/>
              <path id="Tracciato_693" data-name="Tracciato 693" d="M484.467,4710.955l-1.037-.278-.757-.742-.437-.6-.817-1.172-.53-1.328-.561-1.3-.708-1.254-.227-1.423-.3-1.456-.475-1.431-.005-1.5.049-1.485-.071-1.5.243-1.482.65-1.362.362-1.464.745-1.254-1.013-.989-1.012-1.058-.615-1.345-.814-1.2-.632-1.3-.611-1.323-.424-1.4-.329-1.423.332-1.586.9-1.268,1.384-.8,1.595.2,1.419.323,1.389.408,1.431.235,1.369.552,1.454.105,1.448.1,1.435.254,1.451.11,1.453-.13,1.448-.084,1.46.037,1.426-.308,1.408-.361,1.464-.071,1.386-.444,1.437-.258,1.334-.591,1.3-.646,1.377-.459,1.262-.716,1.313-.611,1.306-.638,1.513-.564,1.554.456,1.252,1.049.516,1.576h.028l-.128,1.513-.2,1.491-.262,1.476-.254,1.494-.7,1.345-.478,1.448-.976,1.171-.868,1.227-.058.119-.841,1.028-.077.02.076.074L509,4689.3l-1.344,1-1.415.886-.063-.009-1.16.767-1.335.418-.077.092-.7.244-1.347.729-1.183.971-1.014,1.028-.812,1.2-.515,1.38-.073,1.478.283,1.445.337,1.422.281.919.191,1.741-1.386,1.1-1.432.469-1.362.658-1.4.563-1.443.445-.985.258-.91.454-1.191.547-1.264.354-1.233.442-1.239.427Zm.993-18.618-.024,0-.687,1.058-.6,1.679-.091,1-.215.722-.028,1.322.421,1.714.03,1.138.26,1.1.648,1.142.407,1.261.27-.741.09-.785.384-.685.359-.059.483-.77.788-.439.334-.131.605-.252.238.246.2-.118.468-.031.317-.083.468.053.322.053.344.337.289.148.437.108.2.245.437.215.208.24.141.049.17.139-.206-.489-.2-.878.058-1,.04-1.057-.05-1.132.171-1.189.3-.572.288-1.258-.026-.267.7-.915.5-.969.795-.752.682-.89.773-.831.094.076.075.126-.118-.136.087.062-.036-.115.1.032.031.03-.036.049-.084-.177.107.087.9-.538.272-.18.53-.515.382-.028.525-.536.34.061.839-.447v-.083l-.109.083-.542.061-.165.144-.746.194-.07-.035-.742.2-.212.029-.8.39-.939.167-.1.1-1.224.714-1.29,1.234-.98,1.485-.665,1.131-.7,1.114-.686,1.132-1.083,1.058-1.553.173-1.193-1.029-.188-1.51.062-1.306.551-1.18.543-1.161.457-1.207.254-.506.012.033.008.151-.321,0-.056.133-.327.053-.067.015-.335.177-.042.141-.179.268-.1.108-.258.208-.1.01-.416.325-.021.13-.32.271-.229.031-.3.306-.014.219Zm1.1,9.812-.023.046Zm10.35-11.9,0,.021Zm0,0,0,.021Zm0,0,0,.021Zm.07-.052-.082.058.1-.018Zm.481-.345.011.006Zm0,0,.011.006Zm0,0,.011.007Zm0,0,0,.019Zm-8.58-2.86.444,1.656.106-.084Zm-8.784-5.772.51,1.369.643,1.321.858,1.193,1.049,1.022,1.028,1.073.452-.324.037-.3.541-.133.171-.05.428-.538.166.065.481-.193.081-.257.389-.217.249.15.421-.416.6-.166.156-.027.379-.179.216.238.219-.141.455-.084.207-.129.447-.056.174-.039.6.2.079.016.493-.1.124.1.432-.077.164.044.374-.039.094.3.429-.027.051-.061.4.26.064.077.348-.021.092.005.23.25.149-.083-.039-.127.211.145.158-.18,1.052-.271,1.006-.509.2-.217.95-.164.036-.12.985-.17.216.058.708-.25.341.029.743-.189.18-.039.905-.1.285.124.6.061h.289l.572-.142.324.187.524-.175.282.242.585.038.189,0,.731.081.18.085.093-.085.454.1.272.133.265.123.943-1.291.641-1.469.716-1.452.235-1.643-1.341.594-1.275.614-1.248.689-1.312.55-1.368.391-1.388.309-1.365.379-1.359.421-1.407.2-1.414.126-1.383.39-1.43-.055-1.417,0-1.415.156-1.421.005-1.412-.168-1.427.013-1.392-.315-1.416-.13-1.371-.382-1.376-.336Z" transform="translate(-475.136 -4672.664)" fill="#333"/>
            </g>
            <path id="Tracciato_694" data-name="Tracciato 694" d="M523.464,4715.975l-.369-.131-.151-.24-.328-.1-.25-.046-.375.036-.251-.04-.381-.08.026-.2-.215.006-.625-.08-.151-.076-.516.025-.263.021-.428-.143-.28-.127-.459.082-.287-.11-.533.011-.235.059-.777.215-.17-.068-.66.125-.276.132-.6.135-.215.011-.847.225-.133-.22-.748.509-.275-.09-.875.456-.07-.068-.886.433-.319-.061-.977.479.083-.031-.1.143-.049-.04h-.034l.014-.225-.138.166-.086-.18-.005-.031-.236-.018-.078.068-.141-.083-.042,0-.053-.083-.139-.223-.12.063-.207-.182-.091.051-.337-.12-.03.019-.337-.08-.117.027-.3.086-.117-.1-.292-.067-.117-.094-.418.019-.025.01-.457.044-.126.076-.362-.191-.145.223-.331.025-.215-.032-.133.021-.268.188-.108.059-.436.062,0,.091-.425.056-.117.071-.391,0-.051.217-.471.063-.025.077-.454.271-.071.141-.286.306-.188.048-.321.3,0,.218-.6.252-.074.1-.247.477-.278.04-.02.045-.3.329-.1.194-.451.564.122.083,0,.008-.78,1.369-.77,2.084-.228,1.217-.348.872.124,1.584.351,2.009.485,2.482,1.8,4.313.424.288.083.279.034.124,3.408-1.275-.254-1.117-.066-1.021.126-.314.126-.326.122-.015.155-.479.413-.131.152-.042-.018-.049.33.078.038-.036.132-.07.214-.1.138.156.206-.02.144.027.167.121.165-.014.233.02.067.163.128.178.242-.036.139.222.041.121.214.333.005.254.2.743,3.89-1.472-.551-2.3-.307-.733-.021-.845.008-.9.088-.937.169-.963.024-.515.3-1,.286-.116.328-.791.951-1.443,1.437-1.175-.026-.14.092.121.776-.553.226-.183.535-.355.215-.239.578-.264.232-.09.706-.475.078-.042.728-.13.275.035.5-.208.236-.092.514-.2.186-.047.661-.3.028.026.1.055.6-.22.226.059.135.132,2.514-2.263Z" transform="translate(-490.159 -4702.137)" fill="#fff"/>
            <path id="Tracciato_695" data-name="Tracciato 695" d="M517.725,4723.623l.955-4.293,2.8-3.645,2.022-1.1,2.073-.9,2.209-.329,2.213-.195-1.905,1.086-1.011.348-.908.51-1.842.92-1.607,1.229-2.772,3.02Z" transform="translate(-504.948 -4701.008)" fill="#333"/>
            <path id="Tracciato_696" data-name="Tracciato 696" d="M572.43,4713.163s-1.5,2.188-5.879,4.913l1.459,1.073,3.728-2.747,1.615-1.823Z" transform="translate(-539.126 -4701.013)" fill="#333"/>
            <path id="Tracciato_697" data-name="Tracciato 697" d="M498.011,4793.179l1.616,2.515,2.917-1.189-2.66-1.58Z" transform="translate(-491.149 -4756.846)" fill="#333"/>
          </g>
        </g>
      </g>
      <g id="Raggruppa_258" data-name="Raggruppa 258" transform="translate(38.366 44.577)">
        <g id="Raggruppa_254" data-name="Raggruppa 254" transform="translate(0 2.365)">
          <g id="Raggruppa_252" data-name="Raggruppa 252" transform="translate(0.51 0.655)">
            <path id="Tracciato_698" data-name="Tracciato 698" d="M462.017,4633.779c.563-.512.537-.336,1.331-.761a7.911,7.911,0,0,1,1.413-.534,3.885,3.885,0,0,1,2.969-.13,6.376,6.376,0,0,1,1.445.385" transform="translate(-462.017 -4632.12)" fill="#333"/>
          </g>
          <g id="Raggruppa_253" data-name="Raggruppa 253">
            <path id="Tracciato_699" data-name="Tracciato 699" d="M460.9,4633.036c-.164,0-.322-.177-.441-.308a.55.55,0,0,1,.074-.8,4.431,4.431,0,0,1,1.071-.864,10.084,10.084,0,0,1,1.3-.454,7.281,7.281,0,0,1,1.3-.407,6.806,6.806,0,0,1,1.361-.265,7.266,7.266,0,0,1,1.366.244,7.733,7.733,0,0,1,1.275.506c.305.129.562.411.433.716a.813.813,0,0,1-.915.426,7.108,7.108,0,0,0-1.25-.625,5.669,5.669,0,0,0-1.393.06,6.317,6.317,0,0,0-1.368.187,7.581,7.581,0,0,0-1.32.46,3.131,3.131,0,0,0-1.041.921A.8.8,0,0,1,460.9,4633.036Z" transform="translate(-460.317 -4629.938)" fill="#fff"/>
          </g>
        </g>
        <g id="Raggruppa_257" data-name="Raggruppa 257" transform="translate(6.136)">
          <g id="Raggruppa_255" data-name="Raggruppa 255" transform="translate(0.25 0.384)">
            <path id="Tracciato_700" data-name="Tracciato 700" d="M481.605,4623.335c.691.31.731.158,1.375.616a3.688,3.688,0,0,1,1.138,1.037" transform="translate(-481.605 -4623.335)" fill="#333"/>
          </g>
          <g id="Raggruppa_256" data-name="Raggruppa 256">
            <path id="Tracciato_701" data-name="Tracciato 701" d="M483.436,4624.309c-.107,0-.229.086-.284-.015a3.262,3.262,0,0,0-1.039-.91,8,8,0,0,0-1.2-.7c-.151-.068-.169-.34-.1-.491a.253.253,0,0,1,.369-.1,5.987,5.987,0,0,1,1.433.732,3.532,3.532,0,0,1,.986,1.235c.078.146.09.2-.056.282C483.5,4624.365,483.483,4624.309,483.436,4624.309Z" transform="translate(-480.771 -4622.055)" fill="#fff"/>
          </g>
        </g>
      </g>
      <g id="Raggruppa_265" data-name="Raggruppa 265" transform="translate(75.215 42.16)">
        <g id="Raggruppa_261" data-name="Raggruppa 261" transform="translate(0.889 2.352)">
          <g id="Raggruppa_259" data-name="Raggruppa 259" transform="translate(0.635 0.445)">
            <path id="Tracciato_702" data-name="Tracciato 702" d="M595.44,4624.627a3.842,3.842,0,0,0-1.354-.693,7.263,7.263,0,0,0-1.446-.523,7.09,7.09,0,0,0-1.545-.076,6.593,6.593,0,0,0-1.521.272,7.254,7.254,0,0,0-1.349.732" transform="translate(-588.225 -4623.324)" fill="#333"/>
          </g>
          <g id="Raggruppa_260" data-name="Raggruppa 260">
            <path id="Tracciato_703" data-name="Tracciato 703" d="M593.942,4624.184a.549.549,0,0,1-.329-.109,3.914,3.914,0,0,0-1.193-.739,7.265,7.265,0,0,0-1.361-.361,6.374,6.374,0,0,0-1.407-.078,6.236,6.236,0,0,0-1.348.376,5.956,5.956,0,0,0-1.339.419c-.288.165-.6.192-.769-.1a.722.722,0,0,1,.185-.925,7.663,7.663,0,0,1,1.273-.579,8.985,8.985,0,0,1,2.75-.219,8.022,8.022,0,0,1,1.374.121,7.31,7.31,0,0,1,1.253.582,9.539,9.539,0,0,1,1.214.6.607.607,0,0,1,.247.816A.661.661,0,0,1,593.942,4624.184Z" transform="translate(-586.107 -4621.84)" fill="#fff"/>
          </g>
        </g>
        <g id="Raggruppa_264" data-name="Raggruppa 264">
          <g id="Raggruppa_262" data-name="Raggruppa 262" transform="translate(0.185 0.315)">
            <path id="Tracciato_704" data-name="Tracciato 704" d="M585.909,4615.051a5.155,5.155,0,0,0-1.181.953,3.584,3.584,0,0,0-.967,1.175" transform="translate(-583.761 -4615.051)" fill="#333"/>
          </g>
          <g id="Raggruppa_263" data-name="Raggruppa 263">
            <path id="Tracciato_705" data-name="Tracciato 705" d="M583.386,4616.685c-.036,0-.038-.016-.073-.029-.155-.06-.205-.119-.146-.274a3.627,3.627,0,0,1,.856-1.351,10.933,10.933,0,0,1,1.278-1.007c.142-.085.336.069.421.21a.26.26,0,0,1-.062.385,6.971,6.971,0,0,0-1.154.822,3.357,3.357,0,0,0-.908,1.106C583.553,4616.667,583.507,4616.685,583.386,4616.685Z" transform="translate(-583.143 -4614)" fill="#fff"/>
          </g>
        </g>
      </g>
      <path id="Tracciato_706" data-name="Tracciato 706" d="M410.071,4966.1a.6.6,0,0,1-.591-.5c-.043-.247-.069-.354-.094-.457a7.059,7.059,0,0,1-.149-.8,3.321,3.321,0,0,0-.109-.422,5.172,5.172,0,0,1-.194-.824c-.022-.159-.047-.325-.074-.5-.037-.242-.077-.5-.11-.763-.02-.164-.055-.34-.091-.526-.046-.232-.093-.472-.122-.733a3.2,3.2,0,0,0-.116-.487,4.381,4.381,0,0,1-.169-.766,1.8,1.8,0,0,1,.24-.955,1.449,1.449,0,0,0,.14-.366,5.233,5.233,0,0,0-.091-.531,6.131,6.131,0,0,1-.118-.728,2.406,2.406,0,0,0-.119-.475,3.447,3.447,0,0,1-.177-.78l-.034-.438c-.022-.274-.044-.552-.064-.833a1.849,1.849,0,0,0-.128-.444,2.79,2.79,0,0,1-.2-.815,3.108,3.108,0,0,1,.08-.785,2.251,2.251,0,0,0,.062-.5c-.011-.229-.013-.459-.014-.692,0-.193,0-.388-.01-.583a5.428,5.428,0,0,1,.032-.718,4.9,4.9,0,0,0,.029-.56,1.461,1.461,0,0,0-.139-.395,2.231,2.231,0,0,1-.245-.873,2.018,2.018,0,0,1,.255-.9,1.388,1.388,0,0,0,.142-.378,1.47,1.47,0,0,0-.127-.408,2.288,2.288,0,0,1-.215-.866,5.082,5.082,0,0,1,.067-.729,4.321,4.321,0,0,0,.056-.549c0-.181-.01-.368-.023-.567-.015-.229-.031-.466-.025-.713a3.921,3.921,0,0,1,.112-.755,3.044,3.044,0,0,0,.084-.519,4.8,4.8,0,0,1,.1-.731,4.075,4.075,0,0,0,.076-.539,4.1,4.1,0,0,1,.124-.747,3.235,3.235,0,0,0,.093-.52c.011-.189.012-.377.013-.566,0-.229,0-.466.02-.709a1.752,1.752,0,0,0-.072-.454,2.606,2.606,0,0,1-.1-.84,3.392,3.392,0,0,0-.015-.53,4.286,4.286,0,0,1-.01-.76c.026-.256.059-.513.092-.77.022-.168.043-.336.063-.5.029-.249.066-.5.1-.749.026-.174.053-.348.076-.521a5.519,5.519,0,0,1,.161-.724,4.911,4.911,0,0,0,.124-.532,2.9,2.9,0,0,1,.264-.78,2.023,2.023,0,0,0,.168-.448,2.142,2.142,0,0,0-.007-.484,2.953,2.953,0,0,1,.011-.817,1.951,1.951,0,0,0-.009-.474,2.764,2.764,0,0,1,.014-.836,1.775,1.775,0,0,1,.572-.872,1.545,1.545,0,0,0,.242-.273c.037-.161.064-.34.093-.53a6.972,6.972,0,0,1,.136-.722c.045-.175.08-.354.115-.531.046-.234.094-.476.164-.721.085-.3.179-.6.274-.894l.105-.332a.6.6,0,0,1,1.145.358l-.107.337c-.091.284-.181.568-.263.857-.056.2-.1.406-.141.627-.04.2-.079.4-.13.6a6.088,6.088,0,0,0-.112.6c-.031.2-.063.415-.113.631a1.8,1.8,0,0,1-.565.845,1.562,1.562,0,0,0-.244.276,1.917,1.917,0,0,0,.01.47,2.861,2.861,0,0,1-.007.805,2.032,2.032,0,0,0,.005.494,3.057,3.057,0,0,1-.005.784,2.976,2.976,0,0,1-.259.746,1.95,1.95,0,0,0-.17.46,5.841,5.841,0,0,1-.153.668,4.534,4.534,0,0,0-.129.567c-.024.181-.051.362-.078.543-.036.236-.071.472-.1.708-.02.173-.042.347-.065.52-.032.246-.064.491-.088.736a3.274,3.274,0,0,0,.013.548,4.4,4.4,0,0,1,.014.724,1.7,1.7,0,0,0,.071.461,2.665,2.665,0,0,1,.1.817c-.015.2-.016.41-.016.628s0,.422-.015.633a4.285,4.285,0,0,1-.122.721,3.142,3.142,0,0,0-.094.529,5.039,5.039,0,0,1-.1.7,3.9,3.9,0,0,0-.077.554,4.065,4.065,0,0,1-.111.734,2.938,2.938,0,0,0-.084.526c0,.194.009.395.023.608s.029.432.026.658a5.316,5.316,0,0,1-.068.706,4.16,4.16,0,0,0-.055.559,1.471,1.471,0,0,0,.129.418,2.29,2.29,0,0,1,.213.844,2.063,2.063,0,0,1-.257.9,1.379,1.379,0,0,0-.14.367,1.411,1.411,0,0,0,.142.41,2.232,2.232,0,0,1,.242.845,5.886,5.886,0,0,1-.033.7,4.636,4.636,0,0,0-.028.564c.009.208.01.417.011.624s0,.428.013.64a3.229,3.229,0,0,1-.083.788,2.19,2.19,0,0,0-.061.487,1.857,1.857,0,0,0,.133.47,2.759,2.759,0,0,1,.2.777c.019.277.041.549.062.819l.035.442a2.453,2.453,0,0,0,.125.512,3.384,3.384,0,0,1,.17.733,5.211,5.211,0,0,0,.1.59,6.131,6.131,0,0,1,.11.659,1.89,1.89,0,0,1-.25.992,1.55,1.55,0,0,0-.13.327,3.36,3.36,0,0,0,.128.546,4.1,4.1,0,0,1,.155.686c.024.212.067.428.108.636s.079.406.105.612c.031.254.069.5.1.726.028.182.055.356.077.523a4.115,4.115,0,0,0,.155.638,4.177,4.177,0,0,1,.147.594,6.108,6.108,0,0,0,.126.688c.03.12.061.248.112.541a.6.6,0,0,1-.489.692A.563.563,0,0,1,410.071,4966.1Z" transform="translate(-384.972 -4787.535)" fill="#fff"/>
      <path id="Tracciato_707" data-name="Tracciato 707" d="M498.429,4839.741l-.082-.343c-.064-.266-.128-.532-.185-.8a3.128,3.128,0,0,1-.046-.7,2.512,2.512,0,0,0-.022-.48,1.8,1.8,0,0,0-.174-.424,2.463,2.463,0,0,1-.259-.688,2.365,2.365,0,0,1,.024-.742,1.718,1.718,0,0,0,.029-.453c-.023-.158-.051-.315-.078-.472-.039-.228-.078-.455-.107-.683a5.039,5.039,0,0,1-.027-.665,4.534,4.534,0,0,0-.015-.506l.9-.094a5.476,5.476,0,0,1,.02.6,4.3,4.3,0,0,0,.02.548c.027.215.064.429.1.643.029.164.057.328.081.493a2.422,2.422,0,0,1-.029.712,1.675,1.675,0,0,0-.028.464,1.772,1.772,0,0,0,.176.435,2.523,2.523,0,0,1,.254.659,3.235,3.235,0,0,1,.038.662,2.35,2.35,0,0,0,.026.5c.055.259.118.517.18.775l.083.348Z" transform="translate(-447.97 -4724.923)" fill="#fff"/>
      <path id="Tracciato_708" data-name="Tracciato 708" d="M539.708,4850.811a1.987,1.987,0,0,1,.013-.779,1.373,1.373,0,0,0,.029-.427,1.731,1.731,0,0,0-.184-.413,2.355,2.355,0,0,1-.28-.684,5,5,0,0,0-.13-.493,5.365,5.365,0,0,1-.163-.644c-.065-.385-.127-.772-.184-1.157-.025-.167-.059-.334-.094-.5-.044-.211-.088-.429-.117-.653a4.984,4.984,0,0,0-.1-.5,5.378,5.378,0,0,1-.123-.655l.9-.094a4.584,4.584,0,0,0,.1.545,5.96,5.96,0,0,1,.116.591c.024.19.064.382.1.585.038.183.075.366.1.549.056.38.117.761.181,1.139a4.581,4.581,0,0,0,.138.537,5.9,5.9,0,0,1,.151.58,1.645,1.645,0,0,0,.186.423,2.442,2.442,0,0,1,.274.656,2.045,2.045,0,0,1-.019.755,1.327,1.327,0,0,0-.027.433Z" transform="translate(-476.592 -4732.706)" fill="#fff"/>
      <path id="Tracciato_709" data-name="Tracciato 709" d="M575.451,4828.689a1.148,1.148,0,0,0-.23-.324,1.66,1.66,0,0,1-.429-.726,2.69,2.69,0,0,1-.028-.719,2.08,2.08,0,0,0-.007-.468,3.591,3.591,0,0,1-.047-.682,3.088,3.088,0,0,0-.026-.49,5.887,5.887,0,0,1-.062-.657c-.01-.177-.019-.345-.043-.506a1.708,1.708,0,0,0-.159-.421,2.329,2.329,0,0,1-.238-.7c-.02-.16-.058-.325-.1-.5a5.661,5.661,0,0,1-.119-.652l.9-.094a4.91,4.91,0,0,0,.1.55c.042.187.085.381.111.584a1.648,1.648,0,0,0,.16.433,2.4,2.4,0,0,1,.234.671c.03.2.041.4.051.587a5.2,5.2,0,0,0,.051.557,3.817,3.817,0,0,1,.039.639,2.847,2.847,0,0,0,.031.515,2.814,2.814,0,0,1,.021.687,2,2,0,0,0,.009.483,1.164,1.164,0,0,0,.23.325,1.689,1.689,0,0,1,.424.706Z" transform="translate(-501.506 -4717.262)" fill="#fff"/>
    </g>
    <g id="Pollice" transform="matrix(0.996, 0.087, -0.087, 0.996, 428.721, 4524.961)">
      <g id="Raggruppa_267" data-name="Raggruppa 267" transform="translate(23.452 0)">
        <path id="Tracciato_710" data-name="Tracciato 710" d="M724.73,4737.279c-2.751-4.161,21.182-34.048.886-41.814s-26.3,19.952-23.37,38.484Z" transform="translate(-700.593 -4692.65)" fill="#333"/>
        <g id="Raggruppa_266" data-name="Raggruppa 266">
          <path id="Tracciato_711" data-name="Tracciato 711" d="M700.1,4730.516c.132-.017.369-.321.355-1.163-.006-.375-.11-.826-.124-1.35-.012-.408-.364-.851-.374-1.344-.008-.421.025-.875.022-1.356,0-.428.252-.879.256-1.352,0-.432.071-.881.082-1.35.011-.435-.242-.9-.223-1.361.018-.437.078-.888.1-1.351.026-.438.139-.884.174-1.346.033-.439.084-.889.126-1.349.041-.44.288-.866.338-1.324s.142-.93.212-1.414c.067-.464-.053-.965.026-1.443s-.068-.979.023-1.456.574-.854.677-1.326-.032-.983.086-1.452.1-.963.235-1.427.355-.895.5-1.353.313-.9.481-1.357.63-.773.816-1.219.334-.887.539-1.323.031-1.043.255-1.47c.19-.421.9-.573,1.13-.979s.109-1.018.373-1.4.673-.663.969-1.021.568-.74.9-1.07.69-.627,1.047-.924.835-.424,1.219-.684a13.347,13.347,0,0,1,1.1-.861,12.783,12.783,0,0,1,1.244-.632,12.6,12.6,0,0,1,1.259-.683,12.345,12.345,0,0,1,1.417-.155,12.652,12.652,0,0,1,1.412.13,12.106,12.106,0,0,1,1.364.213,11.6,11.6,0,0,1,1.385,0c.433.108.937-.048,1.368.073s.752.611,1.175.749.955-.006,1.367.155.867.3,1.264.489.563.83.937,1.064,1.088.03,1.428.313a8.608,8.608,0,0,1,.937,1.009c.334.35.386.926.648,1.317s.775.67.975,1.1a10.852,10.852,0,0,1,.32,1.423,12.191,12.191,0,0,1,.165,1.419,13.882,13.882,0,0,1,.253,1.4c.035.476.147.948.141,1.422s.221.984.179,1.458-.339.935-.406,1.406.065.99-.022,1.457-.691.837-.8,1.3.006.986-.117,1.443-.365.893-.5,1.347-.169.954-.318,1.4-.534.832-.692,1.276-.231.938-.395,1.379-.327.905-.494,1.343c-.174.456.042,1.052-.124,1.488s-.651.738-.819,1.154c-.175.433-.032.986-.2,1.4-.177.435-.8.675-.969,1.089-.178.435-.435.826-.6,1.238-.177.438-.055.981-.217,1.393-.175.442-.259.9-.414,1.311-.168.449-.179.924-.319,1.336-.157.458-.315.874-.433,1.286-.159.545-.392,1-.473,1.463a5.154,5.154,0,0,0,.007,1.5c.073.766.4,1.186.433,1.129a6.061,6.061,0,0,1,.077-1.349,7.986,7.986,0,0,1,.316-1.232,9.527,9.527,0,0,1,.33-1.257c.167-.388.547-.713.754-1.154.183-.389.494-.741.7-1.172.191-.391.294-.846.5-1.271.194-.394.388-.805.6-1.227.2-.4.2-.9.4-1.324.2-.4.609-.7.811-1.123.193-.4.022-.987.22-1.407.191-.4.392-.807.586-1.229s.547-.757.737-1.19c.183-.416.539-.766.725-1.2s.482-.8.66-1.231-.08-1.022.088-1.46.74-.708.9-1.149.236-.9.379-1.345.044-.95.171-1.4.293-.873.4-1.328.145-.909.236-1.369.473-.855.544-1.319-.03-.939.021-1.405.258-.912.287-1.38c.018-.431-.267-.884-.282-1.333-.015-.434.137-.893.086-1.336s-.024-.9-.112-1.337-.606-.755-.734-1.18a12.62,12.62,0,0,0-.338-1.269,11.869,11.869,0,0,0-.681-1.121c-.212-.383-.084-.987-.345-1.349a11.714,11.714,0,0,0-.99-.918c-.309-.356-.807-.5-1.149-.81s-.47-.9-.847-1.171-.978-.193-1.383-.422-.739-.571-1.163-.766-.9-.242-1.333-.407-.737-.717-1.181-.858-1.042.245-1.49.122-.807-.6-1.257-.708c-.462-.084-.924-.286-1.393-.328s-.957.024-1.427.023-.941.145-1.409.186-.946.041-1.408.124-.947.124-1.4.249-.973.125-1.41.294-.66.835-1.076,1.05a12.281,12.281,0,0,0-1.224.659c-.416.268-.824.516-1.2.815s-.906.453-1.256.787-.516.863-.836,1.226-.508.829-.8,1.216-.576.771-.839,1.177-.995.549-1.229.972-.379.926-.587,1.36-.235.92-.421,1.339-.362.857-.531,1.284-.216.91-.368,1.342-.732.741-.868,1.178.148,1.016.027,1.458-.267.889-.372,1.334-.407.865-.5,1.313.194.981.118,1.432-.189.908-.252,1.36-.493.877-.545,1.33.253.964.211,1.417c-.043.47-.374.906-.408,1.358-.028.471-.058.935-.073,1.387-.017.473-.083.937-.089,1.388-.006.474.382.936.387,1.386.006.476-.082.935-.066,1.383.017.478-.115.945-.088,1.39.029.48-.03.948.008,1.39.041.483.025.953.073,1.388.054.49.4.91.461,1.336.083.492.221.924.3,1.329.1.521-.167,1.048-.077,1.416C699.671,4730.3,700,4730.531,700.1,4730.516Z" transform="translate(-698.468 -4689.368)" fill="#fff"/>
        </g>
      </g>
      <g id="Raggruppa_269" data-name="Raggruppa 269" transform="translate(2.235 36.815)">
        <g id="Raggruppa_268" data-name="Raggruppa 268">
          <path id="Tracciato_712" data-name="Tracciato 712" d="M636.751,4860.77l-.905-.762,2.118-26.658c-8.135-17.791,10.026-21.073,19-21.165,18.944-.2,38.109,8.053,34.722,17.489,1.332,11.131,8.249,21.253-1.964,29.543,6.963,9.437,3.439,20.933-16.715,23.043s-39.855.1-39.712-15.064A7.329,7.329,0,0,1,636.751,4860.77Z" transform="translate(-632.284 -4810.922)" fill="#333"/>
          <path id="Tracciato_713" data-name="Tracciato 713" d="M635.658,4830.39c.147-.038.1-.361-.176-1.219-.123-.378-.6-.739-.742-1.273-.111-.417-.2-.9-.3-1.411-.087-.435-.148-.921-.216-1.425-.06-.446.136-.951.1-1.451-.034-.454.112-.927.1-1.424a8.139,8.139,0,0,1-.105-1.365,9.3,9.3,0,0,1,.345-1.327,11.647,11.647,0,0,1,1.447-2.294c.254-.366.214-.979.529-1.324.3-.329.835-.439,1.192-.741.339-.286.517-.82.91-1.076s.965-.266,1.4-.5c.416-.228.925-.257,1.373-.458.433-.193.717-.765,1.178-.934.446-.163.95-.2,1.419-.339s.978-.038,1.454-.155.875-.468,1.355-.563.978.025,1.46-.051.908-.449,1.392-.508,1,.345,1.485.3c.44-.034.849-.58,1.3-.6s.9.428,1.351.42.881.032,1.331.034.9-.528,1.347-.515.885.208,1.334.232.9-.056,1.345-.023.862.365,1.309.408.866.237,1.312.288.93-.284,1.375-.225.827.5,1.27.569.91-.064,1.352.01.9.025,1.342.107.88.341,1.341.439.9.25,1.353.358.989-.115,1.443,0,.891.292,1.342.42.8.569,1.25.71.962.059,1.4.212.791.55,1.228.717,1.025-.043,1.456.139.793.527,1.218.725.8.489,1.217.7.78.513,1.187.745.854.385,1.25.634.668.669,1.053.937.75.578,1.119.9,1.083.288,1.41.641a10.975,10.975,0,0,1,.824,1.244,8.218,8.218,0,0,1,.693,1.3c.207.451.043.993.131,1.462s.579.958.523,1.446c-.114.612-.61.521-.721,1.133a5.514,5.514,0,0,0,.1,1.751c.057.45.411.871.493,1.315s.294.861.38,1.306.253.862.352,1.3.169.883.275,1.32.117.9.225,1.334.22.874.33,1.309.009.9.114,1.327.176.859.275,1.286.488.792.578,1.22.137.873.213,1.3-.159.913-.1,1.346-.014.872.02,1.308.074.857.08,1.293.286.874.258,1.311a12.273,12.273,0,0,1,.118,1.292c-.074.413-.564.733-.682,1.133a12.383,12.383,0,0,1-.241,1.24c-.159.385-.385.744-.581,1.115-.211.367-.649.579-.893.931a8.344,8.344,0,0,1-.665,1.071,7.069,7.069,0,0,1-.731.919c-.214.2-.26.675-.656,1.035-.237.216-.7.275-1.048.6-.126.167-.678.4-.628.589.176.312.447.152.644.45.39.592.242.689.626,1.285a8.547,8.547,0,0,1,.64,1.2c.2.384.787.587.968.977a9.672,9.672,0,0,1,.313,1.285c.136.393.158.819.257,1.22a11.249,11.249,0,0,1,.109,1.232,9.536,9.536,0,0,1,.246,1.217,7.855,7.855,0,0,1-.042,1.244,8.773,8.773,0,0,1-.215,1.387c-.127.447-.611.751-.8,1.173s-.056,1.019-.307,1.411a11.24,11.24,0,0,1-.9,1.082c-.3.353-.8.513-1.136.833a12.089,12.089,0,0,1-1.035.9,13.486,13.486,0,0,1-1.048.927c-.41.25-.959.235-1.38.456s-.8.522-1.232.717-.866.387-1.312.557-.944.161-1.4.309-.8.63-1.265.755-.874.472-1.34.578-1.033-.261-1.5-.172-.864.614-1.336.689-.972-.005-1.445.057-.963.017-1.437.069-.976-.164-1.451-.119-.907.623-1.381.661-.962,0-1.437.033-.981-.279-1.454-.245-.922.456-1.393.482-.956-.1-1.427-.081-.951-.034-1.422-.022-.95-.076-1.421-.071-.949.26-1.42.257-.944-.335-1.414-.346-.949.05-1.419.031-.965.233-1.434.2-.94-.2-1.408-.242-.914-.379-1.382-.429-.985.253-1.451.191-.884-.5-1.348-.574-1.027.35-1.489.262-.885-.377-1.337-.487-.943-.128-1.389-.258-.884-.344-1.322-.5-.833-.463-1.261-.637-.919-.255-1.335-.457-.763-.574-1.162-.805-.86-.4-1.237-.665-.843-.466-1.192-.767-.441-.894-.753-1.233-.975-.429-1.239-.81a10.084,10.084,0,0,1-.58-1.315,12.982,12.982,0,0,1-.615-1.236,13.125,13.125,0,0,1-.251-1.361,12.369,12.369,0,0,1-.061-1.367c-.07-.456-.612-.866-.628-1.313a10.493,10.493,0,0,1,.306-1.373,8.221,8.221,0,0,1,.464-1.283c.12-.451.008-.962.206-1.36a5.518,5.518,0,0,1,.826-1.088,4.86,4.86,0,0,1,.954-.974,11.015,11.015,0,0,1,1.209-.7,11.944,11.944,0,0,1,1.282-.532c.432-.186.846-.378,1.283-.517s.92-.139,1.367-.241c.462-.1.868-.434,1.317-.505.472-.076.915-.316,1.362-.369.482-.056.967.067,1.406.024.5-.029.985-.012,1.445-.028.506-.017.987-.084,1.443-.088.513,0,1-.186,1.447-.179.526.008,1,.477,1.429.494.56.022,1.042-.039,1.441-.017.924.053,1.356-.035,1.366-.128.013-.067-.247-.38-.966-.541-.31-.069-.677-.256-1.117-.333-.38-.062-.859.168-1.336.105-.4-.052-.8-.389-1.265-.433-.407-.039-.854-.02-1.311-.047-.413-.024-.862.215-1.315.2-.417-.009-.844.213-1.295.218-.42.021-.884-.459-1.343-.432-.426.024-.845.385-1.3.428-.428.042-.834.279-1.282.348-.427.067-.883-.035-1.323.067-.421.1-.883.082-1.313.221-.411.133-.9.132-1.313.312-.4.17-.6.752-1,.972-.377.207-.957.1-1.332.361a7.3,7.3,0,0,0-1.144.894,8.332,8.332,0,0,0-.85,1.171,8.6,8.6,0,0,0-.471,1.356,7.7,7.7,0,0,0-.594,1.286,7.21,7.21,0,0,0-.192,1.409c-.033.5-.152,1.016-.144,1.531s.383.99.441,1.5-.295,1.083-.18,1.584a12.627,12.627,0,0,0,.414,1.5c.172.47.766.779,1.007,1.238a11.394,11.394,0,0,0,.765,1.2,11.994,11.994,0,0,0,.774,1.189,13.492,13.492,0,0,0,.8,1.214c.339.336.864.463,1.238.768s.478.969.877,1.241.849.485,1.268.725.846.482,1.279.694,1.071-.041,1.515.144.823.506,1.277.667.873.412,1.332.552,1.011-.069,1.475.051.86.508,1.327.61c.443.092.866.3,1.315.382s.868.337,1.318.406.963-.321,1.415-.262.886.2,1.34.249.915-.082,1.37-.042.883.312,1.338.342.9.185,1.354.207.92-.357,1.376-.343.9.2,1.355.2.906.242,1.362.241.9-.328,1.359-.335.9-.023,1.36-.038.9-.1,1.357-.118.9-.018,1.359-.043.96.193,1.438.163.936-.187,1.413-.221.949,0,1.426-.044.944-.081,1.419-.127.942-.1,1.416-.159.973.108,1.445.041.883-.492,1.354-.573.913-.242,1.38-.339,1.041.294,1.5.179.928-.244,1.386-.378.876-.4,1.328-.558.834-.482,1.279-.659.934-.229,1.369-.428.759-.6,1.183-.824,1.033-.1,1.445-.345c.383-.224.692-.608,1.063-.875s.756-.51,1.1-.807.732-.559,1.047-.885.347-.9.629-1.253.385-.806.631-1.185.944-.491,1.149-.894.11-.946.269-1.369a11.418,11.418,0,0,0,.268-1.315c.106-.434.639-.8.691-1.248a11.106,11.106,0,0,0,.133-1.588c0-.521-.591-1.006-.657-1.521a14.924,14.924,0,0,0,.042-1.579c-.122-.508-.2-1.037-.364-1.524-.153-.495-.679-.831-.892-1.293s-.5-.89-.741-1.344c-.2-.447-.222-1.091-.421-1.421a.557.557,0,0,0-.073.056c-.228.188.015-.426.512-.91.291-.284.961-.255,1.137-.516a11.17,11.17,0,0,0,.972-1.236c.294-.425.6-.869.861-1.323.243-.455.01-1.137.206-1.615s.734-.83.879-1.324a14.349,14.349,0,0,0,.211-1.546,13,13,0,0,0,.183-1.533c.027-.479-.06-.951-.065-1.421s-.049-.943-.084-1.414.238-.982.179-1.451-.249-.931-.33-1.4-.165-.941-.262-1.4-.02-.977-.129-1.436-.659-.821-.773-1.278-.28-.912-.4-1.368c-.11-.43,0-.914-.1-1.338s-.084-.891-.189-1.316-.428-.807-.528-1.233-.243-.854-.335-1.284-.019-.867-.1-1.285-.219-.832-.274-1.25c-.065-.447-.184-.456-.154-.906a8.377,8.377,0,0,1,.326-1.324,8.909,8.909,0,0,0-.166-2.857,8.92,8.92,0,0,0-.448-1.378c-.2-.438-.715-.694-.973-1.095a12.184,12.184,0,0,0-.663-1.278,14.113,14.113,0,0,0-1.1-.934c-.349-.341-.688-.663-1.049-.961-.382-.315-.639-.766-1.015-1.033s-.717-.6-1.105-.839-.759-.543-1.156-.768-.878-.328-1.284-.538-.83-.409-1.243-.6-.835-.4-1.255-.578-.849-.366-1.276-.532-.817-.463-1.248-.615-1.024.153-1.46.013-.761-.659-1.2-.786-.943-.054-1.386-.17-.848-.412-1.293-.517-.923-.11-1.369-.208-.944.02-1.392-.069-.916-.09-1.364-.172-.848-.563-1.3-.631-.964.187-1.419.127-.921-.085-1.378-.137-.906-.234-1.363-.277-.93.021-1.389-.012-.917-.148-1.376-.172-.914-.384-1.373-.4-.935.111-1.394.108-.93.01-1.389.019-.935-.084-1.393-.063-.9.458-1.36.491-.923.021-1.379.067-.973-.243-1.43-.177-.942.068-1.4.149-.852.525-1.3.623-.865.373-1.31.489-.884.264-1.323.4-.964.042-1.4.2-.808.481-1.229.664-1.04-.009-1.449.2-.768.568-1.161.807-.811.482-1.183.754-.534.79-.864,1.083-.907.38-1.2.709a11.693,11.693,0,0,0-.779,1.125c-.263.375-.206.932-.415,1.32a11.074,11.074,0,0,0-.592,1.185c-.168.429-.544.773-.652,1.2a10.294,10.294,0,0,0-.3,1.329,8.108,8.108,0,0,0,.224,1.353c.021.458.019.893.066,1.313.052.458.034.9.111,1.314.085.457.171.888.278,1.289.122.458.065.945.2,1.328.167.46.328.89.5,1.24.186.405.525.668.664.952C635.439,4830.252,635.6,4830.417,635.658,4830.39Z" transform="translate(-630.027 -4808.122)" fill="#fff"/>
        </g>
      </g>
      <g id="Raggruppa_271" data-name="Raggruppa 271" transform="translate(0 58.58)">
        <path id="Tracciato_714" data-name="Tracciato 714" d="M632.833,4907.944c-6-3.156-10.449-29.675,12.133-26.8Z" transform="translate(-626.379 -4880.122)" fill="#333"/>
        <g id="Raggruppa_270" data-name="Raggruppa 270">
          <path id="Tracciato_715" data-name="Tracciato 715" d="M641.2,4879.333c.025-.188-.287-.479-1.3-.7-.411-.086-.921-.082-1.482-.162a13.735,13.735,0,0,0-1.48-.021,12.261,12.261,0,0,0-1.471.169c-.5,0-1.074-.372-1.618-.275a9.592,9.592,0,0,0-1.539.434,7.206,7.206,0,0,0-1.17.444,11.707,11.707,0,0,0-1.037.71c-.354.193-.859.165-1.216.393a67.032,67.032,0,0,0-2.2,1.9,14.1,14.1,0,0,0-.771,1.234,12.494,12.494,0,0,0-.836,1.164,11.975,11.975,0,0,0-.648,1.282,11.448,11.448,0,0,0-.673,1.3c-.133.44-.261.89-.361,1.325s-.113.921-.183,1.362.009.927-.032,1.371-.357.905-.368,1.351.276.922.294,1.367.322.886.37,1.329.075.9.151,1.335c.079.457,0,.927.106,1.357.108.453.434.824.564,1.246.138.447.206.888.363,1.3.169.44-.059,1.03.125,1.421.218.489.881.716,1.131,1.124a10.88,10.88,0,0,0,.825,1.244,9.955,9.955,0,0,0,.96,1.149c.933.643,1.6.874,1.671.718.079-.173-.243-.643-.694-1.311-.218-.324-.305-.792-.56-1.275-.2-.372-.877-.572-1.064-1.055-.156-.4-.184-.905-.318-1.395-.138-.439,0-.982-.124-1.482-.112-.456-.215-.925-.305-1.424-.085-.467-.543-.894-.6-1.392-.057-.476.109-.989.079-1.487-.029-.479.124-.969.126-1.466s-.3-.983-.266-1.478.209-.964.279-1.453.27-.938.377-1.421-.051-1.024.094-1.5a10.831,10.831,0,0,1,.669-1.265,10.2,10.2,0,0,1,.725-1.2,10.828,10.828,0,0,1,.7-1.228,10.706,10.706,0,0,1,1.01-.985,10.941,10.941,0,0,1,1.131-.828c.385-.28.587-.86.99-1.085s.99-.168,1.413-.344a12.2,12.2,0,0,1,1.359-.348,11.551,11.551,0,0,1,1.363-.278c.5-.106.945-.421,1.4-.489.522-.08,1-.272,1.438-.32.559-.06,1.054-.061,1.46-.1C640.889,4879.507,641.188,4879.569,641.2,4879.333Z" transform="translate(-622.819 -4878.33)" fill="#fff"/>
        </g>
      </g>
    </g>
  </g>
</svg>
