<svg id="SLOFF" xmlns="http://www.w3.org/2000/svg" width="117.547" height="29.871" viewBox="0 0 117.547 29.871">
  <path id="Tracciato_1910" data-name="Tracciato 1910" d="M1623.326,1390.078c-4.955-1.14-7.236-1.842-7.236-4.385s2.149-3.07,5.481-3.07c2.807,0,6.8.965,11.182,2.587v-4.78a25.858,25.858,0,0,0-10.612-2.5c-6.49,0-10.787,2.324-10.787,7.718,0,4.692,2.5,7.148,10.875,9.077,5.218,1.184,8.156,1.754,8.156,4.824,0,3.113-2.763,3.464-6.665,3.464a23.756,23.756,0,0,1-12.8-4.3v5.13c3.026,2.324,8.595,3.9,12.8,3.9,6.972,0,11.4-2.412,11.4-8.2C1635.122,1393.717,1631.745,1392.007,1623.326,1390.078Z" transform="translate(-1610.916 -1377.879)" fill="#1d1d1b"/>
  <path id="Tracciato_1911" data-name="Tracciato 1911" d="M1963.719,1401.42v-23.489h-4.736v25.679a4.14,4.14,0,0,0,4.14,4.14h12.568v-4.736h-10.378A1.593,1.593,0,0,1,1963.719,1401.42Z" transform="translate(-1932.278 -1377.879)" fill="#1d1d1b"/>
  <path id="Tracciato_1912" data-name="Tracciato 1912" d="M2605.921,1384.26a1.594,1.594,0,0,1,1.594-1.594h10.378v-4.736h-12.568a4.14,4.14,0,0,0-4.14,4.14v7.163H2589.21v-4.973a1.594,1.594,0,0,1,1.594-1.594h10.378v-4.736h-12.568a4.14,4.14,0,0,0-4.139,4.14v25.679h4.736v-13.8h11.975v13.8h4.736v-13.8h12.053v-4.713h-12.053Z" transform="translate(-2509.78 -1377.879)" fill="#1d1d1b"/>
  <path id="Tracciato_1913" data-name="Tracciato 1913" d="M2181.531,1377.252a14.89,14.89,0,1,0,14.89,14.89A14.89,14.89,0,0,0,2181.531,1377.252Zm0,25.066a10.176,10.176,0,1,1,10.177-10.176A10.188,10.188,0,0,1,2181.531,1402.318Z" transform="translate(-2124.004 -1377.252)" fill="#1d1d1b"/>
  <path id="Tracciato_1914" data-name="Tracciato 1914" d="M3101.721,1393.246c0-.465-.336-.753-.882-.753h-1.058v2.375h.417v-.828h.522l.583.828h.492l-.641-.9A.711.711,0,0,0,3101.721,1393.246Zm-1.523.424v-.8h.607c.309,0,.492.136.492.4,0,.244-.19.4-.488.4Z" transform="translate(-2985.55 -1391.324)" fill="#1d1d1b"/>
  <path id="Tracciato_1915" data-name="Tracciato 1915" d="M3083.925,1377.252a2.357,2.357,0,1,0,2.357,2.357A2.357,2.357,0,0,0,3083.925,1377.252Zm0,4.32a1.964,1.964,0,1,1,1.964-1.964A1.966,1.966,0,0,1,3083.925,1381.572Z" transform="translate(-2968.735 -1377.252)" fill="#1d1d1b"/>
</svg>
