<svg xmlns="http://www.w3.org/2000/svg" width="53.78" height="63.549" viewBox="0 0 53.78 63.549">
  <g id="Sloth" transform="translate(-786.122 -1114.494)">
    <g id="Raggruppa_373" data-name="Raggruppa 373" transform="translate(786.122 1114.494)">
      <circle id="Ellisse_249" data-name="Ellisse 249" cx="24.677" cy="24.677" r="24.677" transform="translate(2.213 10.407)" fill="#fff"/>
      <path id="Tracciato_1862" data-name="Tracciato 1862" d="M1092.252,1572.346a1.461,1.461,0,0,1,.732,1.618c-.36,1.523-1.884,2.6-4.029,2.78-2.219.187-3.765-.591-4.269-2.085a1.464,1.464,0,0,1,.4-1.54A6.491,6.491,0,0,1,1092.252,1572.346Z" transform="translate(-1061.702 -1536.53)" fill="#1d1d1b"/>
      <path id="Tracciato_1863" data-name="Tracciato 1863" d="M839.607,1145.537a26.743,26.743,0,0,0-21.163-22.312,13.777,13.777,0,0,1,4.8-3.7,17.368,17.368,0,0,0-9.541.407c-.784-1.466.867-5.442.867-5.442-6.279,1.866-7.763,6.514-7.763,6.514-6.359-1.35-9.932,2.322-9.932,2.322a7.451,7.451,0,0,1,5.157,1.695,26.9,26.9,0,1,0,37.571,20.513Zm-21.122,1.156c2.637,3.983,10.268,2.959,13.49,5.9a5.677,5.677,0,0,1,1.223,1.628q.059.116.113.232a6,6,0,0,1-.146,5.182,22.525,22.525,0,0,1-35.587,6.332,22.941,22.941,0,0,1-2-2.137,6.165,6.165,0,0,1-1.312-5.165q.028-.132.062-.264a5.7,5.7,0,0,1,.873-1.915c2.534-3.551,10.211-4.147,11.955-8.594a6.955,6.955,0,0,0-7.791-9.088l-.084.013a10.717,10.717,0,0,0-8.507,7.208,22.528,22.528,0,0,1,43.246-4.563,10.561,10.561,0,0,0-9.741-5.292l-.083.005A6.955,6.955,0,0,0,818.485,1146.693Z" transform="translate(-786.122 -1114.494)" fill="#1d1d1b"/>
    </g>
    <g id="Raggruppa_374" data-name="Raggruppa 374" transform="translate(800.939 1153.278)">
      <path id="Tracciato_1864" data-name="Tracciato 1864" d="M1004.656,1621.823a2.112,2.112,0,0,0-1.116-1.754,2.062,2.062,0,0,0-2.056.063,23.167,23.167,0,0,1-19.555,2.062h0a2.1,2.1,0,0,0-2.034.4,2.059,2.059,0,0,0-.694,1.936,11.051,11.051,0,0,0,3.1,6.093q-.317.542-.6,1.145l-.019.042-.018.042a10.743,10.743,0,0,0,.059,7.7,16.35,16.35,0,0,0,1.674,3.487l1.035,1.552,1.745-.659,2.144-.81.038-.015,2.229-.842,2.439-.921,2.338-.884-1.01-2.229c-.079-.2-.919-2.429.4-4.012a5.427,5.427,0,0,1,1.41-1.1,13.974,13.974,0,0,0,4.959-2.862A10.393,10.393,0,0,0,1004.656,1621.823Zm-14.893,18.247-.194-.538a1.212,1.212,0,0,0-2.281.82l.207.575-2.144.81s-3.248-4.872-1.522-8.982q.167-.357.341-.677c.057.036.114.071.173.106a12.177,12.177,0,0,0,3.1,1.286,3.953,3.953,0,0,0,.026.554q.121-.249.248-.485a14.443,14.443,0,0,0,3.412.4c.358,0,.718-.014,1.08-.039a7.108,7.108,0,0,0,0,5.247Z" transform="translate(-979.169 -1619.825)" fill="#1d1d1b"/>
      <path id="Tracciato_1865" data-name="Tracciato 1865" d="M1037.444,1730.129a5.91,5.91,0,0,1,2.758-5.513s-3.907-1.083-6.394,4.245c-1.725,4.11,1.522,8.982,1.522,8.982l2.144-.81-.207-.575a1.212,1.212,0,0,1,.73-1.55h0a1.212,1.212,0,0,1,1.55.73l.194.538,2.439-.921s-1.573-3.653.761-6.444a9.605,9.605,0,0,1,3.958-2.487,15.9,15.9,0,0,0,2.588-2.08A10.251,10.251,0,0,0,1037.444,1730.129Z" transform="translate(-1029.148 -1715.931)" fill="#fff"/>
    </g>
  </g>
</svg>
