<svg xmlns="http://www.w3.org/2000/svg" width="22.618" height="28.561" viewBox="0 0 22.618 28.561">
  <g id="Notifiche" transform="translate(-1117.837 -253.832)">
    <path id="Tracciato_820" data-name="Tracciato 820" d="M1139.83,271.325a3.381,3.381,0,0,0-1.044-1.675,13.531,13.531,0,0,1-4.178-6.7,8.181,8.181,0,0,0-8.248-6.053l-.333-1.24a1.78,1.78,0,0,0-2.18-1.258h0a1.781,1.781,0,0,0-1.259,2.181l.333,1.239a8.181,8.181,0,0,0-4.118,9.367,13.528,13.528,0,0,1-.27,7.888,3.39,3.39,0,0,0,4.083,4.373l14.82-3.971A3.389,3.389,0,0,0,1139.83,271.325Z" fill="none" stroke="#190e3b" stroke-width="1"/>
    <path id="Tracciato_821" data-name="Tracciato 821" d="M1124.229,279.015c0,.039-.012.075-.012.114a2.764,2.764,0,1,0,5.094-1.476Z" fill="none" stroke="#190e3b" stroke-width="1"/>
  </g>
</svg>
