<svg xmlns="http://www.w3.org/2000/svg" width="109.909" height="28.704" viewBox="0 0 109.909 28.704">
  <g id="SLOFF_logo" transform="translate(-172.918 -431)">
    <g id="Raggruppa_1" data-name="Raggruppa 1" transform="translate(213.089 436.98)">
      <path id="Tracciato_1" data-name="Tracciato 1" d="M307.781,463.247a6.471,6.471,0,0,0,1.188,2.027,5.262,5.262,0,0,0,1.585,1.282,5.755,5.755,0,0,0,1.841.7,8.682,8.682,0,0,0,1.934.163,6.6,6.6,0,0,0,2.027-.326,2.764,2.764,0,0,0,1.258-.769,3.029,3.029,0,0,0,.606-.932,2.532,2.532,0,0,0,.187-.909,2.348,2.348,0,0,0-.606-1.561,5.279,5.279,0,0,0-1.584-1.165c-.652-.326-1.374-.629-2.143-.932-.792-.3-1.584-.606-2.377-.932a15.662,15.662,0,0,1-2.167-1.072,4.9,4.9,0,0,1-1.608-1.468,3.548,3.548,0,0,1-.652-2,4.443,4.443,0,0,1,.116-.932,3.5,3.5,0,0,1,.513-1.1,4.524,4.524,0,0,1,1.025-1.095,5.666,5.666,0,0,1,1.724-.815,9.068,9.068,0,0,1,2.54-.4c.932-.023,1.911-.023,2.936.047,1,.07,1.794.163,2.353.233l.839.14-.21,2.959a6.2,6.2,0,0,0-1.794-1.655,8.487,8.487,0,0,0-3.774-1.3,6.4,6.4,0,0,0-3.612.489,2.26,2.26,0,0,0-1.468,2.167,2.679,2.679,0,0,0,1.235,2.144,10.5,10.5,0,0,0,2.843,1.445c1.095.373,2.213.769,3.308,1.165a8.156,8.156,0,0,1,2.843,1.724,3.788,3.788,0,0,1,1.188,2.75,3.644,3.644,0,0,1-1.538,3.285,7.088,7.088,0,0,1-4.008,1.142c-.443,0-.862,0-1.258-.023s-.746-.023-1.025-.047a7.646,7.646,0,0,1-.955-.116c-.35-.07-.582-.117-.746-.14a3.294,3.294,0,0,1-.722-.186c-.326-.093-.536-.163-.629-.187s-.3-.093-.652-.21-.536-.186-.606-.21Z" transform="translate(-307.269 -451)" fill="#190e3b"/>
      <path id="Tracciato_2" data-name="Tracciato 2" d="M365.561,467.756h-9.188V451h2.176v16.466a10.122,10.122,0,0,0,3.143-.339,8.645,8.645,0,0,0,2.66-1.257,14.784,14.784,0,0,0,2.176-1.789Z" transform="translate(-341.691 -451)" fill="#190e3b"/>
      <path id="Tracciato_3" data-name="Tracciato 3" d="M397.405,458.719a8.253,8.253,0,0,1,3.078-5.712,8.647,8.647,0,0,1,6.272-1.982,8.217,8.217,0,0,1,5.782,2.914,7.732,7.732,0,0,1,1.912,6.086,8.261,8.261,0,0,1-3.125,5.713,8.614,8.614,0,0,1-6.272,1.982,8.215,8.215,0,0,1-5.782-2.915A7.7,7.7,0,0,1,397.405,458.719Zm1.539,0a9.3,9.3,0,0,0,2.868,5.62,8.352,8.352,0,0,0,5.316,2.681,4.763,4.763,0,0,0,4.22-1.959,6.755,6.755,0,0,0,1.446-5.293,9.273,9.273,0,0,0-2.7-5.573,7.963,7.963,0,0,0-5.083-2.588,5.264,5.264,0,0,0-4.43,1.889A6.387,6.387,0,0,0,398.944,458.719Z" transform="translate(-371.305 -451)" fill="#190e3b"/>
      <path id="Tracciato_4" data-name="Tracciato 4" d="M475.406,454.869a10.025,10.025,0,0,0-1.257-1.717,5.7,5.7,0,0,0-1.838-1.33,6.136,6.136,0,0,0-2.394-.483h-3.433v7.882h6.77v.363h-6.77v8.172h-2.152V451h10.421Z" transform="translate(-418.704 -451)" fill="#190e3b"/>
      <path id="Tracciato_5" data-name="Tracciato 5" d="M520.493,454.869a10.061,10.061,0,0,0-1.257-1.717,5.7,5.7,0,0,0-1.838-1.33,6.138,6.138,0,0,0-2.394-.483h-3.433v7.882h6.77v.363h-6.77v8.172h-2.152V451H519.84Z" transform="translate(-450.755 -451)" fill="#190e3b"/>
    </g>
    <path id="Tracciato_6" data-name="Tracciato 6" d="M186.889,459.7a13.591,13.591,0,0,1-6.942-2.1c-2-1.155-4.5-2.342-5.781-4.556-1.05-1.815-1.248-4.387-1.248-7.469a12.443,12.443,0,0,1,7.017-12.044c1.792-1.037,4.2-2.536,6.953-2.536,2.624,0,4.718,1,7.06,2.351a15.791,15.791,0,0,1,7.52,12.229c0,2.416-1.224,4.763-2.5,6.973a14.522,14.522,0,0,1-4.882,5.489A14.253,14.253,0,0,1,186.889,459.7Zm0-27.52a13.717,13.717,0,0,0-6.807,1.6,13.534,13.534,0,0,0-5.244,4.835,13.765,13.765,0,0,0-1.628,6.957A13.585,13.585,0,0,0,175,452.611a15.57,15.57,0,0,0,11.887,6.8,13.969,13.969,0,0,0,7.049-1.623,14.26,14.26,0,0,0,4.776-5.383,13.186,13.186,0,0,0,1.6-6.827,13.578,13.578,0,0,0-1.419-6.929A13.917,13.917,0,0,0,193.8,433.6,13,13,0,0,0,186.889,432.183Z" fill="#190e3b"/>
  </g>
</svg>
