<svg xmlns="http://www.w3.org/2000/svg" width="318.71" height="132.698" viewBox="0 0 318.71 132.698">
  <g id="image" transform="translate(-24.211 -67.303)">
    <g id="Raggruppa_500" data-name="Raggruppa 500" transform="translate(19150 9747.806)">
      <rect id="Rettangolo_255" data-name="Rettangolo 255" width="59" height="112" rx="6" transform="translate(-18958.943 -9674.195) rotate(31)" fill="#190e3b"/>
      <circle id="Ellisse_327" data-name="Ellisse 327" cx="5" cy="5" r="5" transform="translate(-18991 -9577)" fill="#fff"/>
      <path id="bolla" d="M20.243.187c5.094,0,9.189,1.366,12.513,4.783,3.143,3.23,6.6,7.759,6.6,12.672,0,5.264-2.973,9.451-6.6,12.8-3.188,2.945-5.825,3.16-10.568,3.16-5.124,0-8.938.543-12.266-2.91C6.818,27.467,3.7,24.257,3.7,19.373A18.144,18.144,0,0,1,8.491,6.927C11.767,3.413,15.01.187,20.243.187Z" transform="translate(-18970.836 -9640.409) rotate(28)" fill="#694eff"/>
    </g>
    <rect id="Rettangolo_256" data-name="Rettangolo 256" width="13" height="13" transform="translate(239.58 137.276) rotate(-31)" fill="#44f5cc"/>
    <rect id="Rettangolo_258" data-name="Rettangolo 258" width="25.187" height="25.187" transform="matrix(0.809, -0.588, 0.588, 0.809, 106.865, 99.294)" fill="#ff6926"/>
    <rect id="Rettangolo_257" data-name="Rettangolo 257" width="13" height="13" rx="6.5" transform="translate(232.711 73.998) rotate(-31)" fill="#ff4e4e"/>
    <circle id="Ellisse_329" data-name="Ellisse 329" cx="3" cy="3" r="3" transform="translate(53 160)" fill="#fff"/>
    <rect id="Rettangolo_260" data-name="Rettangolo 260" width="13" height="13" transform="translate(325.082 95.775) rotate(-31)" fill="#fff8ed"/>
    <rect id="Rettangolo_261" data-name="Rettangolo 261" width="9" height="9" rx="4.5" transform="translate(305.082 166.695) rotate(-31)" fill="#fff8ed"/>
    <rect id="Rettangolo_262" data-name="Rettangolo 262" width="8.707" height="8.707" transform="translate(24.211 95.517) rotate(-31)" fill="#fff"/>
  </g>
</svg>
