<svg xmlns="http://www.w3.org/2000/svg" width="330" height="183" viewBox="0 0 330 183">
  <path id="Coupon" d="M-1981-14584h-310a10.01,10.01,0,0,1-10-10v-44h.009a36.748,36.748,0,0,0,14.393-2.907,36.874,36.874,0,0,0,11.76-7.929,36.888,36.888,0,0,0,7.928-11.76A36.766,36.766,0,0,0-2264-14675a36.78,36.78,0,0,0-2.907-14.4,36.853,36.853,0,0,0-7.928-11.76,36.874,36.874,0,0,0-11.76-7.931A36.784,36.784,0,0,0-2301-14712v-45a10.01,10.01,0,0,1,10-10h310a10.01,10.01,0,0,1,10,10v45h-.009a36.756,36.756,0,0,0-14.394,2.906,36.872,36.872,0,0,0-11.761,7.931,36.857,36.857,0,0,0-7.93,11.76A36.776,36.776,0,0,0-2008-14675a36.762,36.762,0,0,0,2.908,14.4,36.879,36.879,0,0,0,7.93,11.76,36.878,36.878,0,0,0,11.761,7.929A36.767,36.767,0,0,0-1971-14638v44A10.01,10.01,0,0,1-1981-14584Z" transform="translate(2300.999 14767)" fill="#1d1d1b"/>
</svg>
