<svg xmlns="http://www.w3.org/2000/svg" xmlns:xlink="http://www.w3.org/1999/xlink" width="79.421" height="64.088" viewBox="0 0 79.421 64.088">
  <defs>
    <filter id="Coupon" x="0" y="0" width="79.421" height="64.088" filterUnits="userSpaceOnUse">
      <feOffset input="SourceAlpha"/>
      <feGaussianBlur stdDeviation="7.5" result="blur"/>
      <feFlood flood-opacity="0"/>
      <feComposite operator="in" in2="blur"/>
      <feComposite in="SourceGraphic"/>
    </filter>
  </defs>
  <g id="Coupon-2" data-name="Coupon" transform="translate(-137.34 -100.5)">
    <g transform="matrix(1, 0, 0, 1, 137.34, 100.5)" filter="url(#Coupon)">
      <g id="Coupon-3" data-name="Coupon" transform="translate(2323.5 14789.5)" fill="none">
        <path d="M-2267.621-14747.912h-32.335a1.044,1.044,0,0,1-1.043-1.043v-4.59h0a3.817,3.817,0,0,0,1.5-.3,3.834,3.834,0,0,0,1.227-.827,3.844,3.844,0,0,0,.827-1.226,3.837,3.837,0,0,0,.3-1.5,3.84,3.84,0,0,0-.3-1.5,3.859,3.859,0,0,0-.827-1.227,3.844,3.844,0,0,0-1.227-.827,3.836,3.836,0,0,0-1.5-.3v-4.694a1.044,1.044,0,0,1,1.043-1.043h32.335a1.044,1.044,0,0,1,1.043,1.043v4.694h0a3.832,3.832,0,0,0-1.5.3,3.844,3.844,0,0,0-1.227.827,3.851,3.851,0,0,0-.827,1.227,3.84,3.84,0,0,0-.3,1.5,3.837,3.837,0,0,0,.3,1.5,3.836,3.836,0,0,0,.827,1.226,3.831,3.831,0,0,0,1.227.827,3.82,3.82,0,0,0,1.5.3v4.59A1.044,1.044,0,0,1-2267.621-14747.912Z" stroke="none"/>
        <path d="M -2268.277587890625 -14749.6123046875 L -2268.277587890625 -14752.109375 C -2268.4345703125 -14752.16015625 -2268.58935546875 -14752.2177734375 -2268.741943359375 -14752.283203125 C -2269.40673828125 -14752.564453125 -2270.001708984375 -14752.96484375 -2270.507080078125 -14753.4716796875 C -2271.017333984375 -14753.98046875 -2271.41845703125 -14754.5751953125 -2271.699462890625 -14755.2392578125 C -2271.98974609375 -14755.92578125 -2272.136962890625 -14756.654296875 -2272.136962890625 -14757.404296875 C -2272.136962890625 -14758.15234375 -2271.989990234375 -14758.880859375 -2271.69921875 -14759.5693359375 C -2271.4189453125 -14760.2314453125 -2271.018310546875 -14760.8251953125 -2270.5087890625 -14761.3349609375 C -2269.998291015625 -14761.8447265625 -2269.40380859375 -14762.24609375 -2268.7421875 -14762.525390625 C -2268.58935546875 -14762.58984375 -2268.434326171875 -14762.6474609375 -2268.277587890625 -14762.6982421875 L -2268.277587890625 -14765.2998046875 L -2299.299072265625 -14765.2998046875 L -2299.299072265625 -14762.6982421875 C -2299.142333984375 -14762.6474609375 -2298.987548828125 -14762.5908203125 -2298.8349609375 -14762.525390625 C -2298.1728515625 -14762.24609375 -2297.578369140625 -14761.8447265625 -2297.067626953125 -14761.3349609375 C -2296.558837890625 -14760.8251953125 -2296.158447265625 -14760.2314453125 -2295.876953125 -14759.5673828125 C -2295.5869140625 -14758.880859375 -2295.43994140625 -14758.15234375 -2295.43994140625 -14757.404296875 C -2295.43994140625 -14756.654296875 -2295.587158203125 -14755.92578125 -2295.8779296875 -14755.23828125 C -2296.1591796875 -14754.57421875 -2296.559814453125 -14753.98046875 -2297.066650390625 -14753.474609375 C -2297.57568359375 -14752.96484375 -2298.170654296875 -14752.5634765625 -2298.831787109375 -14752.2841796875 C -2298.9853515625 -14752.21875 -2299.141357421875 -14752.1611328125 -2299.299072265625 -14752.1103515625 L -2299.299072265625 -14749.6123046875 L -2268.277587890625 -14749.6123046875 M -2267.62060546875 -14747.912109375 L -2299.9560546875 -14747.912109375 C -2300.53125 -14747.912109375 -2300.9990234375 -14748.3798828125 -2300.9990234375 -14748.955078125 L -2300.9990234375 -14753.544921875 L -2300.998046875 -14753.544921875 C -2300.477783203125 -14753.544921875 -2299.972412109375 -14753.646484375 -2299.496826171875 -14753.8486328125 C -2299.037353515625 -14754.04296875 -2298.624755859375 -14754.3203125 -2298.27001953125 -14754.67578125 C -2297.915771484375 -14755.029296875 -2297.6376953125 -14755.4423828125 -2297.443115234375 -14755.9013671875 C -2297.241943359375 -14756.376953125 -2297.139892578125 -14756.8828125 -2297.139892578125 -14757.404296875 C -2297.139892578125 -14757.9248046875 -2297.241943359375 -14758.4296875 -2297.443115234375 -14758.90625 C -2297.6376953125 -14759.365234375 -2297.915771484375 -14759.7783203125 -2298.27001953125 -14760.1328125 C -2298.62451171875 -14760.4873046875 -2299.037109375 -14760.765625 -2299.496826171875 -14760.9599609375 C -2299.97265625 -14761.1611328125 -2300.47802734375 -14761.2626953125 -2300.9990234375 -14761.2626953125 L -2300.9990234375 -14765.95703125 C -2300.9990234375 -14766.5322265625 -2300.53125 -14767 -2299.9560546875 -14767 L -2267.62060546875 -14767 C -2267.04541015625 -14767 -2266.57763671875 -14766.5322265625 -2266.57763671875 -14765.95703125 L -2266.57763671875 -14761.2626953125 L -2266.57861328125 -14761.2626953125 C -2267.09912109375 -14761.2626953125 -2267.604248046875 -14761.1611328125 -2268.079833984375 -14760.9599609375 C -2268.53955078125 -14760.765625 -2268.9521484375 -14760.4873046875 -2269.306640625 -14760.1328125 C -2269.6611328125 -14759.7783203125 -2269.939453125 -14759.365234375 -2270.1337890625 -14758.90625 C -2270.3349609375 -14758.4296875 -2270.43701171875 -14757.9248046875 -2270.43701171875 -14757.404296875 C -2270.43701171875 -14756.8828125 -2270.3349609375 -14756.376953125 -2270.1337890625 -14755.9013671875 C -2269.939453125 -14755.4423828125 -2269.6611328125 -14755.029296875 -2269.306640625 -14754.67578125 C -2268.9521484375 -14754.3203125 -2268.539306640625 -14754.04296875 -2268.079833984375 -14753.8486328125 C -2267.60400390625 -14753.646484375 -2267.0986328125 -14753.544921875 -2266.57763671875 -14753.544921875 L -2266.57763671875 -14748.955078125 C -2266.57763671875 -14748.3798828125 -2267.04541015625 -14747.912109375 -2267.62060546875 -14747.912109375 Z" stroke="none" fill="#1d1d1b"/>
      </g>
    </g>
    <g id="Raggruppa_370" data-name="Raggruppa 370" transform="translate(144.5 123.848)">
      <line id="Linea_40" data-name="Linea 40" x2="5.986" transform="translate(0 8.506)" fill="none" stroke="#1d1d1b" stroke-linecap="round" stroke-width="1.7"/>
      <line id="Linea_42" data-name="Linea 42" x2="5.986" transform="translate(3.922 0) rotate(20)" fill="none" stroke="#1d1d1b" stroke-linecap="round" stroke-width="1.7"/>
      <line id="Linea_41" data-name="Linea 41" x2="5.986" transform="translate(3.922 17.012) rotate(-20)" fill="none" stroke="#1d1d1b" stroke-linecap="round" stroke-width="1.7"/>
    </g>
    <g id="Raggruppa_371" data-name="Raggruppa 371" transform="translate(199.874 123.848)">
      <line id="Linea_40-2" data-name="Linea 40" x1="5.986" transform="translate(3.561 8.506)" fill="none" stroke="#1d1d1b" stroke-linecap="round" stroke-width="1.7"/>
      <line id="Linea_42-2" data-name="Linea 42" x2="5.986" transform="translate(5.625 0) rotate(160)" fill="none" stroke="#1d1d1b" stroke-linecap="round" stroke-width="1.7"/>
      <line id="Linea_41-2" data-name="Linea 41" x2="5.986" transform="translate(5.625 17.012) rotate(-160)" fill="none" stroke="#1d1d1b" stroke-linecap="round" stroke-width="1.7"/>
    </g>
  </g>
</svg>
