<svg xmlns="http://www.w3.org/2000/svg" width="40.496" height="47.389" viewBox="0 0 40.496 47.389">
  <g id="Sloff_Logo" transform="translate(997.309 573.586)">
    <g id="Sloth" transform="translate(-997.309 -573.586)">
      <g id="Raggruppa_18" data-name="Raggruppa 18" transform="translate(0)">
        <path id="Tracciato_39" data-name="Tracciato 39" d="M-1030.3-563.105a20.132,20.132,0,0,0-9.072-4.2,9.651,9.651,0,0,1,3.476-2.7,12.312,12.312,0,0,0-6.764.272c-.553-1.041.624-3.856.624-3.856-4.454,1.312-5.514,4.6-5.514,4.6a7.759,7.759,0,0,0-7.044,1.629,5.308,5.308,0,0,1,3.728,1.27,20.14,20.14,0,0,0-7.913,5.925,20.112,20.112,0,0,0-4.424,14.85,20.112,20.112,0,0,0,7.372,13.629,20.114,20.114,0,0,0,14.85,4.424,20.112,20.112,0,0,0,13.629-7.372,20.113,20.113,0,0,0,4.424-14.85A20.113,20.113,0,0,0-1030.3-563.105Zm2.314,23.927a17.17,17.17,0,0,1-13.311,8.872,17.166,17.166,0,0,1-14.651-5.734,5.242,5.242,0,0,1-1.2-4.761,4.3,4.3,0,0,1,.66-1.44c1.914-2.669,7.7-3.1,9.017-6.45a5.237,5.237,0,0,0-5.85-6.857,17.3,17.3,0,0,0-5.849,2.222,17.218,17.218,0,0,1,14.052-11.118,17.194,17.194,0,0,1,16.595,7.91,17.181,17.181,0,0,0-6.1-.95,5.237,5.237,0,0,0-4.322,7.909c1.978,3,7.727,2.246,10.147,4.467a4.273,4.273,0,0,1,.918,1.228A5.056,5.056,0,0,1-1027.982-539.179Z" transform="translate(1063.309 573.586)" fill="#fff"/>
        <g id="Raggruppa_16" data-name="Raggruppa 16">
          <path id="Tracciato_40" data-name="Tracciato 40" d="M-1018.178-519.005a5.024,5.024,0,0,0-.178-4.089,4.275,4.275,0,0,0-.918-1.228c-2.42-2.221-8.169-1.463-10.147-4.467a5.237,5.237,0,0,1,4.322-7.909,17.113,17.113,0,0,1,6.049.935,17.155,17.155,0,0,0-16.275-7.907,17.092,17.092,0,0,0-7.168,2.416l-.158.1c-.139.087-.275.177-.411.267-.094.063-.188.125-.281.189l-.007,0a17.352,17.352,0,0,0-6.3,8.154,17.3,17.3,0,0,1,5.849-2.222,5.237,5.237,0,0,1,5.85,6.856c-1.321,3.346-7.1,3.781-9.017,6.45a4.3,4.3,0,0,0-.66,1.44,5.24,5.24,0,0,0,1.2,4.753l.018.02q.486.549,1.017,1.055l.063.06q.3.282.612.549l.142.122c.109.091.219.182.33.271q.2.162.411.318c.092.069.186.136.279.2q.173.124.348.244c.085.058.17.116.256.172q.25.164.507.32l.159.1c.21.125.423.246.638.361l.035.018a17.077,17.077,0,0,0,9.822,1.916A17.141,17.141,0,0,0-1018.178-519.005Z" transform="translate(1053.789 552.8)" fill="#fff"/>
          <path id="Tracciato_41" data-name="Tracciato 41" d="M-1000.658-486.647a1.1,1.1,0,0,1,.549,1.22c-.274,1.146-1.423,1.954-3.039,2.086-1.671.137-2.834-.451-3.211-1.577a1.1,1.1,0,0,1,.3-1.159A4.888,4.888,0,0,1-1000.658-486.647Z" transform="translate(1023.654 513.378)" fill="#c6c6c6"/>
          <path id="Tracciato_42" data-name="Tracciato 42" d="M-1022.923-549.476a20.113,20.113,0,0,0-7.372-13.629,20.132,20.132,0,0,0-9.072-4.2,9.651,9.651,0,0,1,3.476-2.7,12.312,12.312,0,0,0-6.764.272c-.553-1.041.624-3.856.624-3.856-4.454,1.312-5.514,4.6-5.514,4.6a7.759,7.759,0,0,0-7.044,1.629,5.308,5.308,0,0,1,3.728,1.27,20.138,20.138,0,0,0-7.913,5.925,20.112,20.112,0,0,0-4.424,14.85,20.112,20.112,0,0,0,7.372,13.629,20.112,20.112,0,0,0,14.85,4.424,20.113,20.113,0,0,0,13.629-7.372A20.114,20.114,0,0,0-1022.923-549.476Zm-3.216-.627c-.005-.031-.009-.062-.014-.093C-1026.148-550.166-1026.144-550.135-1026.139-550.1Zm-.185-.974c-.009-.044-.018-.088-.028-.131C-1026.342-551.165-1026.333-551.121-1026.324-551.078Zm-1.658,11.9a17.17,17.17,0,0,1-13.311,8.872,17.077,17.077,0,0,1-9.842-1.932l-.035-.018q-.323-.174-.638-.361l-.159-.1q-.256-.156-.507-.32c-.086-.056-.171-.115-.256-.172q-.176-.12-.348-.244c-.094-.067-.187-.134-.279-.2q-.208-.156-.411-.318c-.112-.089-.221-.18-.33-.271l-.142-.121q-.312-.267-.612-.549l-.064-.06q-.53-.5-1.016-1.055l-.011-.012-.007-.008a17.075,17.075,0,0,1-4.2-9.575,17.252,17.252,0,0,0,4.2,9.575,5.24,5.24,0,0,1-1.2-4.753,4.3,4.3,0,0,1,.66-1.44c1.914-2.669,7.7-3.1,9.017-6.45a5.237,5.237,0,0,0-5.85-6.856l-.063.009a8.108,8.108,0,0,0-6.849,7.853c0,.134,0,.27,0,.407a17.16,17.16,0,0,1,7.366-14.2l.007,0c.093-.064.187-.127.281-.189q.2-.137.411-.267l.158-.1a17.022,17.022,0,0,1,6.9-2.4,17.194,17.194,0,0,1,16.595,7.91l-.048-.015a17.061,17.061,0,0,1,2.148,5.064,7.977,7.977,0,0,0-8.134-6l-.062,0a5.237,5.237,0,0,0-4.322,7.909c1.978,3,7.727,2.246,10.147,4.467a4.278,4.278,0,0,1,.918,1.228,5.024,5.024,0,0,1,.178,4.089A5.147,5.147,0,0,1-1027.982-539.179Zm-32.248-7.7c0,.021,0,.043,0,.065C-1060.229-546.832-1060.229-546.854-1060.23-546.875Z" transform="translate(1063.309 573.586)" fill="#c6c6c6"/>
        </g>
        <g id="Raggruppa_17" data-name="Raggruppa 17" transform="translate(11.132 28.737)">
          <path id="Tracciato_43" data-name="Tracciato 43" d="M-1007.491-477.292a1.532,1.532,0,0,0-.806-1.274,1.494,1.494,0,0,0-1.492.042A17.5,17.5,0,0,1-1024.565-477a1.523,1.523,0,0,0-1.476.283,1.491,1.491,0,0,0-.507,1.4,8.219,8.219,0,0,0,2.6,4.832,7.523,7.523,0,0,0-.638,6.235,12.357,12.357,0,0,0,1.286,2.945h0c.052.085.09.144.105.167l.05.075.621.967,1.4-.572,1.737-.653a1.055,1.055,0,0,0,.414-.282,1.062,1.062,0,0,0,.5-.06l2.713-1.019a1.062,1.062,0,0,0,.6-.57,1.059,1.059,0,0,0,.008-.827l-.176-.425c-.041-.1-.984-2.491.844-3.851a6.886,6.886,0,0,1,1.257-.747c.108-.049.218-.095.327-.137l.049-.02a10.676,10.676,0,0,0,1.18-.616l.021-.012a8.9,8.9,0,0,0,1.884-1.478h0l.023-.023c.258-.266.41-.454.427-.475l.037-.049A7.738,7.738,0,0,0-1007.491-477.292Zm-6.7,5.807c-.136.06-.274.125-.415.2l-.117.061q-.152.079-.3.165l-.143.083c-.1.058-.2.12-.3.183l-.132.086c-.137.091-.274.187-.413.289l-.013.009-.009.008-.009.007-.016.013,0,0h0l0,0,0,0h0a5.542,5.542,0,0,0-.792.729,5.1,5.1,0,0,0-.611.851,5.194,5.194,0,0,0-.243.487c-.015.033-.03.065-.045.1a5.213,5.213,0,0,0-.2.588c-.027.1-.051.2-.073.294-.04.184-.072.375-.094.57-.021.178-.033.361-.038.544s0,.347.007.512.022.321.04.474.04.293.064.427c.013.075.028.149.042.219l-.034.013c-.021-.027-.042-.053-.064-.077s-.068-.071-.106-.107a2.04,2.04,0,0,0-.172-.15c-.037-.028-.076-.054-.12-.083a1.8,1.8,0,0,0-.182-.106c-.046-.024-.092-.045-.145-.067a2.019,2.019,0,0,0-.2-.07c-.051-.015-.1-.028-.148-.038a2.008,2.008,0,0,0-.22-.033c-.05-.005-.1-.009-.149-.01a1.879,1.879,0,0,0-.228.009c-.035,0-.071.006-.1.011s-.065.008-.094.014a1.951,1.951,0,0,0-.3.082,1.125,1.125,0,0,0-.155.068,1.976,1.976,0,0,0-.365.219,2.013,2.013,0,0,0-.309.291c-.029.032-.062.071-.084.1a2,2,0,0,0-.192.316,1.985,1.985,0,0,0-.131.347,1.976,1.976,0,0,0-.062.349,9.933,9.933,0,0,1-.46-1.154,8.132,8.132,0,0,1-.268-1.044,6.5,6.5,0,0,1-.1-.838,5.4,5.4,0,0,1,0-.632c.008-.118.022-.235.039-.354a4.225,4.225,0,0,1,.093-.475,3.979,3.979,0,0,1,.3-.8,4.062,4.062,0,0,1,.313-.517l0-.006c.058-.081.115-.157.173-.231l.054-.067c.039-.047.077-.093.13-.155l.055-.063c.047-.052.094-.1.138-.147l.036-.038c.057-.057.113-.111.184-.175l.029-.025c.042-.037.084-.073.124-.105l.055-.043c.04-.032.08-.061.118-.088l.045-.032c.047-.032.093-.063.15-.1l.027-.016c.045-.027.09-.052.131-.073l.048-.024c.037-.019.074-.036.126-.06l.024-.011.02-.009c-.047.077-.093.156-.137.236a7.48,7.48,0,0,0-.833,2.318,1.06,1.06,0,0,0,.716,1.2,1.061,1.061,0,0,0,1.283-.548,12.161,12.161,0,0,1,.93-1.656,5.589,5.589,0,0,1,1.149-1.251,3.588,3.588,0,0,1,.571-.358l.056-.025c.135-.058.268-.114.414-.171s.268-.1.4-.143l.1-.032c.119-.038.237-.075.354-.107l.027-.008c.124-.034.245-.063.362-.089l.09-.02c.087-.018.172-.034.258-.049l.057-.01Z" transform="translate(1026.571 478.745)" fill="#c6c6c6"/>
          <path id="Tracciato_44" data-name="Tracciato 44" d="M-1003.423-458.089c-.057-.025-.114-.049-.174-.073l-.1-.039-.154-.056-.114-.038-.16-.049-.117-.034c-.06-.016-.121-.032-.183-.046l-.011,0-.1-.023c-.1-.021-.2-.041-.3-.059l-.077-.012c-.079-.013-.16-.025-.242-.035l-.124-.013c-.07-.007-.14-.014-.211-.018l-.137-.008q-.108,0-.218-.007h-.138c-.084,0-.169,0-.254.006l-.114,0c-.124.007-.251.017-.379.03l-.077.01c-.105.012-.212.026-.32.043l-.14.024c-.1.017-.194.035-.294.056l-.1.022c-.135.03-.272.063-.411.1l-.032.009c-.13.036-.263.076-.4.12l-.107.035c-.146.049-.293.1-.443.158l-.018.007c-.144.056-.29.117-.438.181l-.118.052c-.156.07-.313.142-.473.222l-.01-.006-.006,0-.026-.015-.013-.007-.04-.022-.019-.01-.068-.034-.008,0-.1-.045-.019-.008-.073-.031-.018-.008-.036-.014-.094-.035-.041-.015-.115-.038-.032-.01c-.052-.016-.107-.031-.164-.046l-.011,0c-.052-.013-.105-.025-.161-.037l-.051-.01-.135-.024-.062-.009c-.047-.007-.095-.012-.143-.016l-.06-.006c-.064-.005-.131-.009-.2-.011h-.012c-.072,0-.145,0-.22,0l-.063,0c-.054,0-.109.008-.165.014l-.081.01c-.052.007-.105.015-.158.025l-.1.018-.063.014q-.071.016-.143.036l-.056.015c-.066.019-.133.041-.2.065l-.015.006c-.062.022-.125.048-.187.074l-.06.027c-.051.023-.1.047-.152.072l-.062.031q-.091.048-.184.1l-.025.015c-.07.042-.14.088-.211.137l-.054.038q-.079.056-.159.118l-.067.053c-.054.044-.108.089-.162.137l-.052.045q-.106.1-.211.2l-.041.043q-.085.087-.17.182l-.068.077-.015.017c-.045.053-.091.107-.136.163l-.064.079c-.069.088-.139.18-.207.276h0a5.041,5.041,0,0,0-.4.654,5.04,5.04,0,0,0-.381,1.011,5.329,5.329,0,0,0-.116.591c-.021.144-.038.288-.047.432a6.392,6.392,0,0,0,0,.758,7.567,7.567,0,0,0,.117.977,9.242,9.242,0,0,0,.3,1.179,11.152,11.152,0,0,0,.909,2.047c.045.078.083.142.114.192.045.074.071.114.072.115h0l1.622-.609-.15-.464a.916.916,0,0,1-.013-.525.9.9,0,0,1,.061-.161.936.936,0,0,1,.089-.148c.009-.012.02-.021.029-.032a.914.914,0,0,1,.155-.148.894.894,0,0,1,.169-.1c.023-.011.044-.024.068-.033h0a.957.957,0,0,1,.141-.039l.022,0c.023,0,.046,0,.07-.007a1.01,1.01,0,0,1,.1-.005c.024,0,.048,0,.072.005a.9.9,0,0,1,.1.015c.024,0,.046.011.069.018a.923.923,0,0,1,.093.033l.065.029a.869.869,0,0,1,.086.051c.02.013.039.025.058.039a.89.89,0,0,1,.078.069c.016.015.033.03.048.047a.9.9,0,0,1,.07.093c.011.016.023.03.033.046a.918.918,0,0,1,.077.162l.039.109.106.3,1.854-.7a5.616,5.616,0,0,1-.287-1.054c-.021-.115-.039-.238-.055-.367s-.027-.263-.034-.4-.009-.283-.006-.43.014-.3.032-.451.043-.308.077-.464q.026-.117.058-.235a4.191,4.191,0,0,1,.161-.471c.013-.032.029-.064.043-.1a3.965,3.965,0,0,1,.185-.37,4.025,4.025,0,0,1,.484-.674,4.453,4.453,0,0,1,.657-.6l.023-.019h0c.126-.094.252-.181.377-.264l.118-.076c.088-.056.175-.111.263-.163l.127-.074q.134-.076.267-.145l.105-.055c.122-.061.244-.119.365-.172l.039-.016q.162-.07.321-.13l.112-.041c.083-.03.165-.058.247-.084l.116-.037c.086-.026.171-.049.255-.072l.09-.024q.169-.042.333-.075l.01,0,.042-.007c.1-.019.2-.035.3-.05l.1-.014.029,0a8.3,8.3,0,0,0,1.245-1.036Z" transform="translate(1019.414 464.706)" fill="#fff"/>
          <path id="Tracciato_45" data-name="Tracciato 45" d="M-1006.45-454.514a3.858,3.858,0,0,1,.462-2.1,5.384,5.384,0,0,1,1.4-1.7,6.133,6.133,0,0,1,.926-.591,5.661,5.661,0,0,1,1-.417,7.991,7.991,0,0,1,1.05-.232,8.136,8.136,0,0,1,1.069-.029c-.316.181-.634.312-.944.458l-.454.232c-.15.077-.3.14-.445.231-.287.168-.581.314-.847.5-.282.164-.531.37-.793.557A8.606,8.606,0,0,0-1006.45-454.514Z" transform="translate(1012.557 465.391)" fill="#c6c6c6"/>
          <path id="Tracciato_46" data-name="Tracciato 46" d="M-980.313-459.563a9.964,9.964,0,0,1-2.827,2.363l.7.516,1.793-1.321.776-.877Z" transform="translate(996.3 465.375)" fill="#c6c6c6"/>
        </g>
      </g>
    </g>
  </g>
</svg>
