<svg xmlns="http://www.w3.org/2000/svg" width="119.351" height="31.17" viewBox="0 0 119.351 31.17">
  <g id="SLOFF_logo" transform="translate(-172.918 -431)">
    <g id="SLOFF" transform="translate(216.54 437.494)">
      <path id="S" d="M307.826,464.3a7.025,7.025,0,0,0,1.29,2.2,5.713,5.713,0,0,0,1.721,1.392,6.251,6.251,0,0,0,2,.759,9.429,9.429,0,0,0,2.1.177,7.17,7.17,0,0,0,2.2-.354,3,3,0,0,0,1.366-.835,3.289,3.289,0,0,0,.658-1.012,2.75,2.75,0,0,0,.2-.987,2.55,2.55,0,0,0-.658-1.7,5.734,5.734,0,0,0-1.721-1.265c-.708-.354-1.493-.683-2.328-1.012-.86-.329-1.72-.658-2.581-1.012a17.017,17.017,0,0,1-2.353-1.164,5.325,5.325,0,0,1-1.746-1.594,3.853,3.853,0,0,1-.708-2.176,4.825,4.825,0,0,1,.126-1.012,3.8,3.8,0,0,1,.557-1.19,4.91,4.91,0,0,1,1.113-1.189,6.153,6.153,0,0,1,1.872-.885,9.846,9.846,0,0,1,2.758-.43c1.012-.025,2.075-.025,3.188.051,1.088.076,1.948.177,2.556.253l.911.152-.228,3.213a6.732,6.732,0,0,0-1.949-1.8,9.217,9.217,0,0,0-4.1-1.417,6.955,6.955,0,0,0-3.922.531,2.454,2.454,0,0,0-1.594,2.353,2.91,2.91,0,0,0,1.341,2.328,11.4,11.4,0,0,0,3.087,1.569c1.189.4,2.4.835,3.593,1.265a8.857,8.857,0,0,1,3.087,1.872,4.113,4.113,0,0,1,1.29,2.986,3.957,3.957,0,0,1-1.67,3.568,7.7,7.7,0,0,1-4.352,1.24c-.481,0-.936,0-1.366-.025s-.81-.025-1.113-.051a8.307,8.307,0,0,1-1.037-.126c-.38-.076-.632-.127-.81-.152a3.575,3.575,0,0,1-.784-.2c-.354-.1-.582-.177-.683-.2s-.329-.1-.708-.228-.582-.2-.658-.228Z" transform="translate(-307.269 -451)" fill="#190e3b"/>
      <path id="L" d="M366.35,469.2h-9.977V451h2.363v17.881a10.992,10.992,0,0,0,3.413-.368,9.388,9.388,0,0,0,2.888-1.365A16.059,16.059,0,0,0,367.4,465.2Z" transform="translate(-340.43 -451)" fill="#190e3b"/>
      <path id="O" d="M397.41,459.382a8.962,8.962,0,0,1,3.342-6.2,9.389,9.389,0,0,1,6.811-2.152,8.922,8.922,0,0,1,6.279,3.165,8.4,8.4,0,0,1,2.076,6.609,8.97,8.97,0,0,1-3.393,6.2,9.355,9.355,0,0,1-6.811,2.152,8.921,8.921,0,0,1-6.279-3.165A8.361,8.361,0,0,1,397.41,459.382Zm1.671,0a10.1,10.1,0,0,0,3.114,6.1,9.07,9.07,0,0,0,5.773,2.912,5.172,5.172,0,0,0,4.583-2.127,7.336,7.336,0,0,0,1.57-5.748,10.069,10.069,0,0,0-2.937-6.051,8.647,8.647,0,0,0-5.52-2.811,5.716,5.716,0,0,0-4.811,2.051A6.935,6.935,0,0,0,399.081,459.382Z" transform="translate(-369.067 -451)" fill="#190e3b"/>
      <path id="F" d="M476.357,455.2a10.891,10.891,0,0,0-1.365-1.864,6.19,6.19,0,0,0-2-1.444,6.665,6.665,0,0,0-2.6-.525h-3.728v8.56h7.352v.394h-7.352V469.2h-2.337V451h11.316Z" transform="translate(-414.784 -451)" fill="#190e3b"/>
      <path id="F-2" data-name="F" d="M521.444,455.2a10.928,10.928,0,0,0-1.365-1.864,6.19,6.19,0,0,0-2-1.444,6.666,6.666,0,0,0-2.6-.525h-3.728v8.56h7.352v.394h-7.352V469.2h-2.337V451h11.316Z" transform="translate(-445.715 -451)" fill="#190e3b"/>
    </g>
    <path id="icon" d="M188.089,462.17a14.758,14.758,0,0,1-7.539-2.28c-2.167-1.254-4.887-2.543-6.277-4.947-1.14-1.971-1.355-4.764-1.355-8.111a13.512,13.512,0,0,1,7.62-13.078c1.946-1.126,4.563-2.754,7.551-2.754,2.85,0,5.123,1.082,7.666,2.553a17.147,17.147,0,0,1,8.166,13.279c0,2.624-1.329,5.172-2.717,7.572-1.172,2.025-2.834,4.533-5.3,5.961A15.477,15.477,0,0,1,188.089,462.17Zm0-29.885a14.9,14.9,0,0,0-7.392,1.743,14.7,14.7,0,0,0-5.694,5.25,14.947,14.947,0,0,0-1.768,7.554,14.753,14.753,0,0,0,1.946,7.636,16.908,16.908,0,0,0,12.909,7.385,15.168,15.168,0,0,0,7.654-1.762c2.4-1.39,4.034-3.854,5.186-5.845a14.319,14.319,0,0,0,1.733-7.413,14.744,14.744,0,0,0-1.541-7.524,15.113,15.113,0,0,0-5.525-5.481C193.1,432.384,190.576,432.285,188.089,432.285Z" fill="#190e3b"/>
  </g>
</svg>
