<svg xmlns="http://www.w3.org/2000/svg" width="22.859" height="20.791" viewBox="0 0 22.859 20.791">
  <g id="Raggruppa_399" data-name="Raggruppa 399" transform="translate(-516.224 -917.814)">
    <circle id="Ellisse_197" data-name="Ellisse 197" cx="4.018" cy="4.018" r="4.018" transform="translate(523.578 924.25)" fill="none" stroke="#0f80ff" stroke-miterlimit="10" stroke-width="1.7"/>
    <path id="Tracciato_730" data-name="Tracciato 730" d="M529.116,920.02l1.129-.826a2.475,2.475,0,0,1,3.922,2.265l-.151,1.391a2.475,2.475,0,0,0,1.462,2.532l1.28.564a2.475,2.475,0,0,1,0,4.529l-1.28.564a2.475,2.475,0,0,0-1.462,2.532l.151,1.391a2.475,2.475,0,0,1-3.922,2.265l-1.129-.826a2.475,2.475,0,0,0-2.924,0l-1.129.826a2.475,2.475,0,0,1-3.922-2.265l.151-1.391a2.475,2.475,0,0,0-1.462-2.532l-1.28-.564a2.475,2.475,0,0,1,0-4.529l1.28-.564a2.475,2.475,0,0,0,1.462-2.532l-.151-1.391a2.475,2.475,0,0,1,3.922-2.265l1.129.826A2.475,2.475,0,0,0,529.116,920.02Z" fill="none" stroke="#0f80ff" stroke-miterlimit="10" stroke-width="1.7"/>
  </g>
</svg>
