<svg xmlns="http://www.w3.org/2000/svg" width="227.591" height="59.438" viewBox="0 0 227.591 59.438">
  <g id="SLOFF_logo" transform="translate(-172.918 -431)">
    <g id="SLOFF">
      <path id="S" d="M308.33,476.36a13.4,13.4,0,0,0,2.461,4.2,10.9,10.9,0,0,0,3.281,2.654,11.918,11.918,0,0,0,3.811,1.448,17.977,17.977,0,0,0,4,.338,13.672,13.672,0,0,0,4.2-.676,5.723,5.723,0,0,0,2.605-1.592,6.27,6.27,0,0,0,1.254-1.93,5.244,5.244,0,0,0,.386-1.882,4.863,4.863,0,0,0-1.255-3.233,10.932,10.932,0,0,0-3.281-2.412c-1.351-.676-2.846-1.3-4.439-1.93-1.64-.627-3.281-1.254-4.922-1.93a32.437,32.437,0,0,1-4.487-2.22,10.154,10.154,0,0,1-3.33-3.039,7.348,7.348,0,0,1-1.35-4.15,9.2,9.2,0,0,1,.241-1.929,7.256,7.256,0,0,1,1.062-2.269,9.367,9.367,0,0,1,2.123-2.267,11.732,11.732,0,0,1,3.57-1.688,18.778,18.778,0,0,1,5.259-.82c1.93-.048,3.957-.048,6.08.1,2.075.145,3.715.337,4.873.482l1.737.29-.434,6.128a12.838,12.838,0,0,0-3.716-3.426,17.575,17.575,0,0,0-7.816-2.7,13.262,13.262,0,0,0-7.479,1.013q-3.111,1.519-3.039,4.487a5.548,5.548,0,0,0,2.557,4.439,21.751,21.751,0,0,0,5.887,2.992c2.267.771,4.583,1.592,6.851,2.412a16.889,16.889,0,0,1,5.887,3.571,7.844,7.844,0,0,1,2.461,5.694,7.546,7.546,0,0,1-3.184,6.8,14.676,14.676,0,0,1-8.3,2.364c-.917,0-1.785,0-2.605-.048s-1.544-.048-2.123-.1a15.83,15.83,0,0,1-1.978-.241c-.724-.145-1.206-.241-1.544-.29a6.82,6.82,0,0,1-1.5-.386c-.676-.193-1.11-.338-1.3-.386s-.627-.193-1.351-.434-1.109-.386-1.254-.434Z" transform="translate(-51.169 -7.617)" fill="#fff"/>
      <path id="L" d="M375.4,485.7H356.373V451h4.506v34.1a20.961,20.961,0,0,0,6.509-.7,17.9,17.9,0,0,0,5.507-2.6,30.616,30.616,0,0,0,4.506-3.7Z" transform="translate(-69.87 -7.617)" fill="#fff"/>
      <path id="O" d="M397.465,466.984a17.09,17.09,0,0,1,6.373-11.829,17.905,17.905,0,0,1,12.988-4.1,17.015,17.015,0,0,1,11.974,6.035,16.012,16.012,0,0,1,3.959,12.6,17.106,17.106,0,0,1-6.47,11.829,17.838,17.838,0,0,1-12.988,4.1,17.011,17.011,0,0,1-11.974-6.035A15.943,15.943,0,0,1,397.465,466.984Zm3.187,0a19.267,19.267,0,0,0,5.939,11.637c3.428,3.428,7.1,5.263,11.008,5.553,3.332.29,6.277-1.062,8.739-4.056a13.989,13.989,0,0,0,2.993-10.96,19.2,19.2,0,0,0-5.6-11.54c-3.234-3.283-6.76-5.07-10.526-5.36-3.428-.289-6.469,1.015-9.174,3.911A13.226,13.226,0,0,0,400.652,466.984Z" transform="translate(-87.317 -7.617)" fill="#fff"/>
      <path id="F" d="M487.263,459.011a20.758,20.758,0,0,0-2.6-3.555,11.8,11.8,0,0,0-3.805-2.754,12.707,12.707,0,0,0-4.957-1h-7.11v16.322h14.019v.751H468.788V485.7h-4.456V451h21.579Z" transform="translate(-113.749 -7.617)" fill="#fff"/>
      <path id="F-2" data-name="F" d="M532.35,459.011a20.834,20.834,0,0,0-2.6-3.555,11.8,11.8,0,0,0-3.805-2.754,12.71,12.71,0,0,0-4.957-1h-7.11v16.322h14.019v.751H513.875V485.7h-4.456V451H531Z" transform="translate(-131.841 -7.617)" fill="#fff"/>
    </g>
    <path id="icon" d="M201.847,490.438c-4.68,0-9.248-1.381-14.375-4.348-4.133-2.391-9.319-4.85-11.97-9.433-2.174-3.758-2.584-9.085-2.584-15.466,0-5.8,1.162-10.748,3.454-14.708,2.236-3.865,5.86-7.212,11.078-10.231,3.711-2.148,8.7-5.252,14.4-5.252,5.434,0,9.769,2.062,14.619,4.868a29.419,29.419,0,0,1,10.757,10.672c2.4,4.154,4.814,9.084,4.814,14.651,0,5-2.534,9.862-5.182,14.438-2.235,3.862-5.4,8.644-10.11,11.367C212.8,489.28,207.787,490.438,201.847,490.438Zm0-56.987a28.4,28.4,0,0,0-14.1,3.323c-5.195,3.006-8.645,6.187-10.858,10.011-2.237,3.867-3.371,8.714-3.371,14.406a28.131,28.131,0,0,0,3.71,14.56c2.58,4.46,6.479,7.465,10.543,9.816,5.031,2.911,9.5,4.267,14.073,4.267,5.832,0,10.743-1.131,14.6-3.361,4.583-2.651,7.693-7.35,9.89-11.147,2.594-4.483,3.305-9.239,3.305-14.136,0-5.459-.588-10.287-2.938-14.348a28.818,28.818,0,0,0-10.537-10.452C211.407,433.638,206.59,433.451,201.847,433.451Z" transform="translate(0 0)" fill="#fff"/>
  </g>
</svg>
