<svg xmlns="http://www.w3.org/2000/svg" width="29.452" height="27.915" viewBox="0 0 29.452 27.915">
  <g id="Raggruppa_639" data-name="Raggruppa 639" transform="translate(-268.062 -1777.531)">
    <path id="Poligono_3" data-name="Poligono 3" d="M281.758,1777.918a1.565,1.565,0,0,1,2.061,0l2.741,2.4a1.57,1.57,0,0,0,1.093.385l3.7-.148a1.566,1.566,0,0,1,1.613,1.348l.473,3.391a1.567,1.567,0,0,0,.622,1.044l2.82,2.079a1.566,1.566,0,0,1,.376,2.125l-1.883,2.841a1.565,1.565,0,0,0-.221,1.215l.755,3.29a1.566,1.566,0,0,1-1.07,1.849l-3.464,1.052a1.566,1.566,0,0,0-.919.747l-1.691,3.1a1.566,1.566,0,0,1-1.949.706l-3.449-1.361a1.567,1.567,0,0,0-1.149,0l-3.449,1.361a1.566,1.566,0,0,1-1.949-.706l-1.691-3.1a1.565,1.565,0,0,0-.919-.748l-3.464-1.052a1.566,1.566,0,0,1-1.071-1.849l.755-3.29a1.565,1.565,0,0,0-.221-1.216l-1.882-2.84a1.566,1.566,0,0,1,.376-2.125l2.82-2.079a1.566,1.566,0,0,0,.622-1.044l.473-3.392a1.565,1.565,0,0,1,1.613-1.348l3.7.148a1.566,1.566,0,0,0,1.093-.386Z" transform="translate(0)" fill="#ffae16"/>
    <g id="_1" data-name=" 1" transform="translate(280.411 1785.696)" style="isolation: isolate">
      <g id="Raggruppa_626" data-name="Raggruppa 626" transform="translate(0)" style="isolation: isolate">
        <path id="Tracciato_2540" data-name="Tracciato 2540" d="M402.149,1868.3v-2.115H406.1v11.951h-2.361V1868.3Z" transform="translate(-402.149 -1866.19)" fill="#fff"/>
      </g>
    </g>
  </g>
</svg>
