<svg xmlns="http://www.w3.org/2000/svg" width="28.904" height="27.396" viewBox="0 0 28.904 27.396">
  <g id="Raggruppa_643" data-name="Raggruppa 643" transform="translate(-69.548 -140.302)">
    <g id="Raggruppa_636" data-name="Raggruppa 636" transform="translate(-198.515 -1637.229)">
      <path id="Poligono_3" data-name="Poligono 3" d="M281.5,1777.911a1.536,1.536,0,0,1,2.022,0l2.69,2.351a1.541,1.541,0,0,0,1.073.378l3.628-.145a1.536,1.536,0,0,1,1.583,1.323l.464,3.328a1.538,1.538,0,0,0,.61,1.025l2.768,2.041a1.536,1.536,0,0,1,.369,2.086l-1.848,2.788a1.536,1.536,0,0,0-.217,1.193l.741,3.229a1.537,1.537,0,0,1-1.051,1.814l-3.4,1.032a1.536,1.536,0,0,0-.9.733l-1.66,3.04a1.537,1.537,0,0,1-1.913.693l-3.385-1.336a1.537,1.537,0,0,0-1.128,0l-3.385,1.336a1.537,1.537,0,0,1-1.912-.693l-1.66-3.039a1.535,1.535,0,0,0-.9-.734l-3.4-1.032a1.537,1.537,0,0,1-1.051-1.814l.741-3.229a1.535,1.535,0,0,0-.217-1.193l-1.847-2.788a1.536,1.536,0,0,1,.369-2.086l2.768-2.041a1.537,1.537,0,0,0,.61-1.025l.464-3.329a1.536,1.536,0,0,1,1.583-1.323l3.628.145a1.538,1.538,0,0,0,1.073-.379Z" transform="translate(0)" fill="#aac1d4"/>
    </g>
    <g id="_2" data-name=" 2" transform="translate(79.959 148)" style="isolation: isolate">
      <g id="Raggruppa_627" data-name="Raggruppa 627" transform="translate(0 0)" style="isolation: isolate">
        <path id="Tracciato_2541" data-name="Tracciato 2541" d="M765.57,1872.926q1.567-1.306,2.5-2.18a10.1,10.1,0,0,0,1.551-1.821,3.39,3.39,0,0,0,.62-1.861,1.989,1.989,0,0,0-.392-1.306,1.478,1.478,0,0,0-1.208-.474,1.522,1.522,0,0,0-1.257.547,2.384,2.384,0,0,0-.457,1.494h-2.22a4.028,4.028,0,0,1,1.167-2.972,3.978,3.978,0,0,1,2.8-1.012,3.886,3.886,0,0,1,2.857.988,3.506,3.506,0,0,1,1,2.6,4.708,4.708,0,0,1-.686,2.433,9.619,9.619,0,0,1-1.568,2.016q-.881.857-2.3,2.065h4.816v1.894h-8.065v-1.7Z" transform="translate(-764.705 -1863.342)" fill="#fff"/>
      </g>
    </g>
  </g>
</svg>
