<svg xmlns="http://www.w3.org/2000/svg" width="28.904" height="27.396" viewBox="0 0 28.904 27.396">
  <g id="Raggruppa_642" data-name="Raggruppa 642" transform="translate(-277.548 -140.302)">
    <g id="Raggruppa_637" data-name="Raggruppa 637" transform="translate(9.485 -1637.229)">
      <path id="Poligono_3" data-name="Poligono 3" d="M281.5,1777.911a1.536,1.536,0,0,1,2.022,0l2.69,2.351a1.541,1.541,0,0,0,1.073.378l3.628-.145a1.536,1.536,0,0,1,1.583,1.323l.464,3.328a1.538,1.538,0,0,0,.61,1.025l2.768,2.041a1.536,1.536,0,0,1,.369,2.086l-1.848,2.788a1.536,1.536,0,0,0-.217,1.193l.741,3.229a1.537,1.537,0,0,1-1.051,1.814l-3.4,1.032a1.536,1.536,0,0,0-.9.733l-1.66,3.04a1.537,1.537,0,0,1-1.913.693l-3.385-1.336a1.537,1.537,0,0,0-1.128,0l-3.385,1.336a1.537,1.537,0,0,1-1.912-.693l-1.66-3.039a1.535,1.535,0,0,0-.9-.734l-3.4-1.032a1.537,1.537,0,0,1-1.051-1.814l.741-3.229a1.535,1.535,0,0,0-.217-1.193l-1.847-2.788a1.536,1.536,0,0,1,.369-2.086l2.768-2.041a1.537,1.537,0,0,0,.61-1.025l.464-3.329a1.536,1.536,0,0,1,1.583-1.323l3.628.145a1.538,1.538,0,0,0,1.073-.379Z" transform="translate(0)" fill="#d7975d"/>
    </g>
    <g id="_3" data-name=" 3" transform="translate(288.037 148)" style="isolation: isolate">
      <g id="Raggruppa_628" data-name="Raggruppa 628" transform="translate(0 0)" style="isolation: isolate">
        <path id="Tracciato_2542" data-name="Tracciato 2542" d="M1140.944,1864.035a4.168,4.168,0,0,1,2.756-.871,4.5,4.5,0,0,1,2,.407,2.935,2.935,0,0,1,1.255,1.1,2.968,2.968,0,0,1,.423,1.574,2.765,2.765,0,0,1-.519,1.7,2.546,2.546,0,0,1-1.238.935v.064a2.687,2.687,0,0,1,1.446,1.023,3.2,3.2,0,0,1,.519,1.885,3.324,3.324,0,0,1-.439,1.71,2.993,2.993,0,0,1-1.294,1.174,5.2,5.2,0,0,1-4.994-.487,3.4,3.4,0,0,1-1.2-2.685h2.173a1.741,1.741,0,0,0,.535,1.254,1.941,1.941,0,0,0,1.382.471,1.663,1.663,0,0,0,1.254-.455,1.621,1.621,0,0,0,.439-1.174,1.545,1.545,0,0,0-.607-1.374,3.389,3.389,0,0,0-1.885-.415h-.463v-1.838h.463q2.269,0,2.269-1.518a1.4,1.4,0,0,0-.407-1.071,1.651,1.651,0,0,0-1.174-.383,1.567,1.567,0,0,0-1.159.407,1.647,1.647,0,0,0-.471,1.031h-2.189A3.257,3.257,0,0,1,1140.944,1864.035Z" transform="translate(-1139.658 -1863.164)" fill="#fff"/>
      </g>
    </g>
  </g>
</svg>
