<svg xmlns="http://www.w3.org/2000/svg" width="221.427" height="159.64" viewBox="0 0 221.427 159.64">
  <g id="Raggruppa_400" data-name="Raggruppa 400" transform="translate(-87.191 -279.524)">
    <g id="Clouds_Shadows" transform="translate(-265.789 528.568)" opacity="0.803" style="mix-blend-mode: hard-light;isolation: isolate">
      <path id="Tracciato_566" data-name="Tracciato 566" d="M365-119.816l1.961.188,1.976-.544,1.977.165,1.978.207,1.977-.277,1.978.553,1.977-.428,1.978.482,1.977.022,1.978-.262,1.977.309,1.978-.471,1.978-.281,1.978.311,1.976.11,1.978.348,1.977-.179,1.978-.534,1.979.013,1.979.042,1.979.12,1.978-.056,1.978-.024,1.98-.043,1.981.535,1.926-.441.983-1.528-.033-2,.581-1.814.632-1.842-.187-1.932.061-1.925-.652-1.809-1.035-1.576-1.462-1.182-1.825-.455-1.867-.4-2.183-.025-2.041.843-1.534,1.555-1.491,1.607-.3,2.322-.293-2.042-.578-1.776-1.063-1.531-.731-1.719-1.353-1.275-1.542-1.018-1.684-.75-1.827-.263-1.738-.9-1.887.272-1.916.43-1.921.347-1.631,1.073-1.777.994-1.068,1.716-.8,1.821-.965,1.757-.872,1.847.078,1.721-.9-1.361-.64-1.81-1.427-1.32-1.778-.782-1.9-.3-1.91-.124-1.911.2-1.813.686-1.085,1.6-1.305,1.414-.329,1.909-.947,1.786.277,1.974-.464,1.94.272,1.936Z" transform="translate(0 18.668)" fill="#6c6c6c" fill-rule="evenodd" opacity="0.753"/>
      <path id="Tracciato_567" data-name="Tracciato 567" d="M863.49-128.433l-1.968-.086-2.009-.186-2.007.341-2.009-.022-2.008.032-2.009-.164-2.01.382-2.01-.387-2.01.257-2.011.195-2.009-.036-2.011-.016-2.013-.056-2.026-.108-.253-1.953-.341-1.84-.384-1.854.418-1.838,1.37-1.272,1.863-.258,2.063.53,1.411,1.77-.236,2.335.478-2.053,1.325-1.515.935-1.624,1.326-1.422,1.85-.625,1.926-.218,1.877.519,1.979.617,1.128,1.728.6,1.912.177,1.707,1.251-1.512,1.495-1.465,2.129.167,1.838.517,1.441,1.374.233,2.062.561,2.069Z" transform="translate(-300.742 -58.084)" fill="#6c6c6c" fill-rule="evenodd" opacity="0.753"/>
      <path id="Tracciato_568" data-name="Tracciato 568" d="M642.615-225.938l-2.073-.044-2.009-.423-2.007.521-2.009-.556-2.008.289-2.009.194-2.01-.4-2.01.653-2.01-.185-2.011.11-2.009-.387-2.011.1-2.013.144-1.921-.454-.389-1.611-.681-1.868.782-1.808,1.245-1.339,1.847-.336,1.468.511,1.07.938.8,1.574.257-2.132,1.2-1.538,1.035-1.539,1.25-1.511,1.832-.708,1.943,0,1.771.128,1.612.609,1.586.708.854,1.55.307,1.757-.032,1.929.82-1.9,1.85-.7,1.863-.53,2.071.371,1.387,1.625.584,2.006.063,2.062Z" transform="translate(-155.254 0)" fill="#6c6c6c" fill-rule="evenodd" opacity="0.753"/>
    </g>
    <g id="Clouds" transform="translate(-269.789 523.57)" opacity="0.898">
      <g id="Raggruppa_232" data-name="Raggruppa 232" transform="translate(359.289 -123.719)">
        <path id="Tracciato_566-2" data-name="Tracciato 566" d="M365-119.816l1.961.188,1.976-.544,1.977.165,1.978.207,1.977-.277,1.978.553,1.977-.428,1.978.482,1.977.022,1.978-.262,1.977.309,1.978-.471,1.978-.281,1.978.311,1.976.11,1.978.348,1.977-.179,1.978-.534,1.979.013,1.979.042,1.979.12,1.978-.056,1.978-.024,1.98-.043,1.981.535,1.926-.441.983-1.528-.033-2,.581-1.814.632-1.842-.187-1.932.061-1.925-.652-1.809-1.035-1.576-1.462-1.182-1.825-.455-1.867-.4-2.183-.025-2.041.843-1.534,1.555-1.491,1.607-.3,2.322-.293-2.042-.578-1.776-1.063-1.531-.731-1.719-1.353-1.275-1.542-1.018-1.684-.75-1.827-.263-1.738-.9-1.887.272-1.916.43-1.921.347-1.631,1.073-1.777.994-1.068,1.716-.8,1.821-.965,1.757-.872,1.847.078,1.721-.9-1.361-.64-1.81-1.427-1.32-1.778-.782-1.9-.3-1.91-.124-1.911.2-1.813.686-1.085,1.6-1.305,1.414-.329,1.909-.947,1.786.277,1.974-.464,1.94.272,1.936Z" transform="translate(-364.289 141.387)" fill="#f2f2f2" fill-rule="evenodd"/>
      </g>
      <g id="Raggruppa_233" data-name="Raggruppa 233" transform="translate(543.658 -198.208)">
        <path id="Tracciato_567-2" data-name="Tracciato 567" d="M863.49-128.433l-1.968-.086-2.009-.186-2.007.341-2.009-.022-2.008.032-2.009-.164-2.01.382-2.01-.387-2.01.257-2.011.195-2.009-.036-2.011-.016-2.013-.056-2.026-.108-.253-1.953-.341-1.84-.384-1.854.418-1.838,1.37-1.272,1.863-.258,2.063.53,1.411,1.77-.236,2.335.478-2.053,1.325-1.515.935-1.624,1.326-1.422,1.85-.625,1.926-.218,1.877.519,1.979.617,1.128,1.728.6,1.912.177,1.707,1.251-1.512,1.495-1.465,2.129.167,1.838.517,1.441,1.374.233,2.062.561,2.069Z" transform="translate(-834.4 140.124)" fill="#f2f2f2" fill-rule="evenodd"/>
      </g>
      <g id="Raggruppa_234" data-name="Raggruppa 234" transform="translate(465.179 -237.735)">
        <path id="Tracciato_568-2" data-name="Tracciato 568" d="M642.615-225.938l-2.073-.044-2.009-.423-2.007.521-2.009-.556-2.008.289-2.009.194-2.01-.4-2.01.653-2.01-.185-2.011.11-2.009-.387-2.011.1-2.013.144-1.921-.454-.389-1.611-.681-1.868.782-1.808,1.245-1.339,1.847-.336,1.468.511,1.07.938.8,1.574.257-2.132,1.2-1.538,1.035-1.539,1.25-1.511,1.832-.708,1.943,0,1.771.128,1.612.609,1.586.708.854,1.55.307,1.757-.032,1.929.82-1.9,1.85-.7,1.863-.53,2.071.371,1.387,1.625.584,2.006.063,2.062Z" transform="translate(-613.433 237.735)" fill="#f2f2f2" fill-rule="evenodd"/>
      </g>
    </g>
  </g>
</svg>
