<svg xmlns="http://www.w3.org/2000/svg" width="76.828" height="19.524" viewBox="0 0 76.828 19.524">
  <g id="SLOFF_logo" transform="translate(-814.169 -1123.429)">
    <g id="Raggruppa_375" data-name="Raggruppa 375" transform="translate(814.169 1123.429)">
      <path id="Tracciato_1866" data-name="Tracciato 1866" d="M1619.027,1385.87c-3.239-.745-4.729-1.2-4.729-2.866s1.4-2.006,3.583-2.006a23.225,23.225,0,0,1,7.309,1.691v-3.124a16.9,16.9,0,0,0-6.936-1.634c-4.242,0-7.051,1.519-7.051,5.044,0,3.067,1.634,4.672,7.108,5.933,3.41.774,5.331,1.146,5.331,3.153,0,2.035-1.806,2.264-4.356,2.264a15.526,15.526,0,0,1-8.369-2.809v3.353a15.5,15.5,0,0,0,8.369,2.551c4.557,0,7.452-1.577,7.452-5.36C1626.737,1388.249,1624.53,1387.131,1619.027,1385.87Z" transform="translate(-1610.916 -1377.897)" fill="#1d1d1b"/>
      <path id="Tracciato_1867" data-name="Tracciato 1867" d="M1962.078,1393.283v-15.352h-3.1v16.784a2.706,2.706,0,0,0,2.706,2.706h8.214v-3.1h-6.783A1.042,1.042,0,0,1,1962.078,1393.283Z" transform="translate(-1941.529 -1377.897)" fill="#1d1d1b"/>
      <path id="Tracciato_1868" data-name="Tracciato 1868" d="M2598.492,1382.068a1.041,1.041,0,0,1,1.042-1.042h6.783v-3.1H2598.1a2.706,2.706,0,0,0-2.706,2.706v4.682h-7.827v-3.251a1.042,1.042,0,0,1,1.042-1.042h6.783v-3.1h-8.214a2.705,2.705,0,0,0-2.705,2.706v16.784h3.095V1388.4h7.827v9.022h3.1V1388.4h7.878v-3.08h-7.878Z" transform="translate(-2535.654 -1377.897)" fill="#1d1d1b"/>
      <path id="Tracciato_1869" data-name="Tracciato 1869" d="M2176.373,1377.252a9.732,9.732,0,1,0,9.732,9.732A9.732,9.732,0,0,0,2176.373,1377.252Zm0,16.383a6.651,6.651,0,1,1,6.652-6.651A6.659,6.659,0,0,1,2176.373,1393.635Z" transform="translate(-2138.774 -1377.252)" fill="#1d1d1b"/>
      <path id="Tracciato_1870" data-name="Tracciato 1870" d="M3101.049,1392.985c0-.3-.22-.492-.577-.492h-.692v1.552h.273v-.541h.341l.382.541h.321l-.419-.588A.465.465,0,0,0,3101.049,1392.985Zm-1,.277v-.521h.4c.2,0,.321.089.321.259s-.124.262-.319.262Z" transform="translate(-3025.12 -1391.729)" fill="#1d1d1b"/>
      <path id="Tracciato_1871" data-name="Tracciato 1871" d="M3083.108,1377.252a1.54,1.54,0,1,0,1.54,1.54A1.54,1.54,0,0,0,3083.108,1377.252Zm0,2.824a1.284,1.284,0,1,1,1.283-1.283A1.285,1.285,0,0,1,3083.108,1380.076Z" transform="translate(-3007.821 -1377.252)" fill="#1d1d1b"/>
    </g>
  </g>
</svg>
