<svg xmlns="http://www.w3.org/2000/svg" width="33.137" height="39.156" viewBox="0 0 33.137 39.156">
  <g id="Sloth" transform="translate(-786.122 -1114.494)">
    <g id="Raggruppa_373" data-name="Raggruppa 373" transform="translate(786.122 1114.494)">
      <circle id="Ellisse_249" data-name="Ellisse 249" cx="15.205" cy="15.205" r="15.205" transform="translate(1.364 6.413)" fill="#fff"/>
      <path id="Tracciato_1862" data-name="Tracciato 1862" d="M1089.319,1572.065a.9.9,0,0,1,.451,1,2.547,2.547,0,0,1-2.483,1.713c-1.367.115-2.319-.364-2.63-1.285a.9.9,0,0,1,.245-.949A4,4,0,0,1,1089.319,1572.065Z" transform="translate(-1070.495 -1549.997)" fill="#1d1d1b"/>
      <path id="Tracciato_1863" data-name="Tracciato 1863" d="M819.077,1133.621a16.478,16.478,0,0,0-13.04-13.748A8.49,8.49,0,0,1,809,1117.6a10.7,10.7,0,0,0-5.879.25c-.483-.9.534-3.353.534-3.353a6.933,6.933,0,0,0-4.783,4.014,6.744,6.744,0,0,0-6.12,1.431,4.59,4.59,0,0,1,3.178,1.044,16.574,16.574,0,1,0,23.15,12.639Zm-13.015.712c1.625,2.454,6.327,1.823,8.312,3.636a3.5,3.5,0,0,1,.754,1q.036.071.069.143a3.7,3.7,0,0,1-.09,3.193,13.879,13.879,0,0,1-21.927,3.9,14.119,14.119,0,0,1-1.229-1.317,3.8,3.8,0,0,1-.808-3.182q.017-.082.038-.162a3.512,3.512,0,0,1,.538-1.18c1.561-2.188,6.291-2.555,7.366-5.3a4.286,4.286,0,0,0-4.8-5.6l-.052.008a6.6,6.6,0,0,0-5.242,4.441,13.881,13.881,0,0,1,26.646-2.811,6.507,6.507,0,0,0-6-3.261l-.051,0A4.286,4.286,0,0,0,806.063,1134.334Z" transform="translate(-786.122 -1114.494)" fill="#1d1d1b"/>
    </g>
    <g id="Raggruppa_374" data-name="Raggruppa 374" transform="translate(795.251 1138.391)">
      <path id="Tracciato_1864" data-name="Tracciato 1864" d="M994.873,1621.056a1.3,1.3,0,0,0-.687-1.081,1.27,1.27,0,0,0-1.267.039,14.275,14.275,0,0,1-12.049,1.271h0a1.3,1.3,0,0,0-1.253.243,1.269,1.269,0,0,0-.427,1.193,6.81,6.81,0,0,0,1.911,3.754q-.2.334-.369.706l-.012.026-.011.026a6.619,6.619,0,0,0,.036,4.746,10.076,10.076,0,0,0,1.032,2.149l.638.956,1.075-.406,1.321-.5.024-.009,1.373-.519,1.5-.568,1.441-.544-.622-1.374a2.625,2.625,0,0,1,.243-2.472,3.345,3.345,0,0,1,.869-.679,8.616,8.616,0,0,0,3.056-1.763A6.4,6.4,0,0,0,994.873,1621.056ZM985.7,1632.3l-.119-.332a.747.747,0,0,0-1.405.505l.127.354-1.321.5s-2-3-.938-5.535q.1-.22.21-.417l.106.065a7.511,7.511,0,0,0,1.907.792,2.425,2.425,0,0,0,.016.341c.05-.1.1-.2.153-.3a8.9,8.9,0,0,0,2.1.248c.22,0,.442-.009.665-.025a4.38,4.38,0,0,0,0,3.233Z" transform="translate(-979.169 -1619.824)" fill="#1d1d1b"/>
      <path id="Tracciato_1865" data-name="Tracciato 1865" d="M1035.854,1727.746a3.642,3.642,0,0,1,1.7-3.4s-2.407-.667-3.939,2.615c-1.063,2.533.938,5.534.938,5.534l1.321-.5-.127-.354a.747.747,0,0,1,.45-.955h0a.747.747,0,0,1,.955.45l.119.332,1.5-.568a4.1,4.1,0,0,1,.469-3.971,5.918,5.918,0,0,1,2.439-1.532,9.806,9.806,0,0,0,1.595-1.282A6.316,6.316,0,0,0,1035.854,1727.746Z" transform="translate(-1030.743 -1718.998)" fill="#fff"/>
    </g>
  </g>
</svg>
