<svg xmlns="http://www.w3.org/2000/svg" width="23.359" height="29.847" viewBox="0 0 23.359 29.847">
  <g id="Notifiche" transform="translate(-500.41 -826.412)">
    <circle id="Ellisse_202" data-name="Ellisse 202" cx="2.764" cy="2.764" r="2.764" transform="translate(507.164 849.88)" fill="none" stroke="#000" stroke-width="1.7"/>
    <g id="Raggruppa_313" data-name="Raggruppa 313" transform="translate(501.291 827.453)">
      <rect id="Rettangolo_169" data-name="Rettangolo 169" width="3.561" height="5.737" rx="1.78" transform="matrix(0.966, -0.259, 0.259, 0.966, 3.782, 0.922)" fill="none" stroke="#000" stroke-width="1.7"/>
      <path id="Tracciato_819" data-name="Tracciato 819" d="M521.733,861.125h0a13.528,13.528,0,0,1-4.178-6.7h0a8.182,8.182,0,0,0-10.021-5.785h0a8.182,8.182,0,0,0-5.785,10.021h0a13.527,13.527,0,0,1-.27,7.888h0a3.389,3.389,0,0,0,4.083,4.373l14.82-3.971A3.389,3.389,0,0,0,521.733,861.125Z" transform="translate(-501.291 -845.413)" fill="#fff" stroke="#000" stroke-width="1.7"/>
    </g>
  </g>
</svg>
